<svg xmlns="http://www.w3.org/2000/svg" viewBox="0 0 174.5 174.5"><defs><style>.cls-1{fill:#fff;}.cls-2{fill:none;stroke:#42210b;stroke-linecap:round;stroke-linejoin:round;stroke-width:5px;}.cls-3{fill:#42210b;}</style></defs><title>administrador</title><g id="Capa_2" data-name="Capa 2"><g id="Object"><rect class="cls-1" width="174.5" height="174.5" rx="87.25" ry="87.25"/><path class="cls-2" d="M38.7,52.55a23,23,0,0,1,36.63,0"/><path class="cls-2" d="M101.15,52.55a23,23,0,0,1,36.63,0"/><path class="cls-3" d="M71.81,65.71a14.92,14.92,0,1,1-15.76-14A14.93,14.93,0,0,1,71.81,65.71Z"/><path class="cls-1" d="M64.67,60.85a3.35,3.35,0,1,1-3.34-3.35A3.35,3.35,0,0,1,64.67,60.85Z"/><path class="cls-1" d="M65.4,65.49a1.29,1.29,0,0,1-2.58,0,1.29,1.29,0,1,1,2.58,0Z"/><path class="cls-3" d="M134.89,65.71a14.92,14.92,0,1,1-15.77-14A14.93,14.93,0,0,1,134.89,65.71Z"/><path class="cls-1" d="M127.74,60.85a3.35,3.35,0,1,1-3.34-3.35A3.34,3.34,0,0,1,127.74,60.85Z"/><path class="cls-1" d="M128.48,65.49a1.29,1.29,0,1,1-1.29-1.29A1.28,1.28,0,0,1,128.48,65.49Z"/><path class="cls-3" d="M29.82,103.59c0,6.06,6.69,15,27.06,15s32.89-8.27,32.89-13.54-5-9-17.46-9C55.43,96.06,50.89,120.38,29.82,103.59Z"/><path class="cls-3" d="M144.68,103.59c0,6.06-6.69,15-27.06,15s-32.89-8.27-32.89-13.54,5-9,17.46-9C119.07,96.06,122.17,118.47,144.68,103.59Z"/></g></g></svg>