<svg xmlns="http://www.w3.org/2000/svg" viewBox="0 0 102.67 102.67"><defs><style>.cls-1{fill:#fff;}.cls-2{fill:#4d4d4d;}</style></defs><title>carrito</title><g id="Capa_2" data-name="Capa 2"><g id="Слой_1" data-name="Слой 1"><path class="cls-1" d="M51.34,102.67a51.34,51.34,0,1,1,51.33-51.33A51.48,51.48,0,0,1,51.34,102.67Z"/><polygon class="cls-2" points="66.25 34.67 39.76 22.48 33.02 37.15 65.11 37.15 66.25 34.67"/><path class="cls-2" d="M38.68,67.46a6.67,6.67,0,1,0,6.67,6.66A6.66,6.66,0,0,0,38.68,67.46Zm0,8.66a2,2,0,1,1,2-2A2,2,0,0,1,38.68,76.12Z"/><path class="cls-2" d="M58.84,67.46a6.67,6.67,0,1,0,6.67,6.66A6.67,6.67,0,0,0,58.84,67.46Zm0,8.66a2,2,0,1,1,2-2A2,2,0,0,1,58.84,76.12Z"/><path class="cls-2" d="M84.62,33.31a1.38,1.38,0,0,0-.81-.22H71.54L70.4,37.77l-.24,1H23.65l6.3,26H68.44L74.89,38h8.35c.57,0,1-.25,1.1-.59l.57-3.6A.51.51,0,0,0,84.62,33.31ZM66.92,43.38l-.69.69.46.47-.46-.46-.65.64.65-.65-.7-.69Zm-11.4,0-.18.17,2.07,2.08L59,44.07l-.69-.69h1.38l-.69.69.46.47L59,44.07l-1.56,1.56,1.4,1.4-1.4-1.4L55.34,47.7l.86.87-.86-.87-1.56,1.56.93.93-.93-.93-2.07,2.07,1,1-1-1h0l-2.08-2.07-1.55,1.55,2.07,2.08h0l.84.83-.84-.83L48.08,55l1.21,1.21L48.08,55h0L46,52.89l-.71.7.71-.7h0l2.08-2.08h0l1.55-1.55h0l2.08-2.08h0l1.55-1.55h0l2.08-2.08h0l.17-.17ZM44.44,58.59h0L43.05,60l1.39-1.4-2.06-2.07-.79.77.78-.77h0l2.06-2.08-1.55-1.55L40.81,55h0l-1.09,1.09L40.81,55l-2.06-2.07L37.61,54l1.13-1.13h0l2.06-2.08L40,50l.78.78h0l2.08,2.08h0l1.55,1.55h0l2.08,2.08h0l.71.7-.71-.7Zm-9.32-9.34h0L34,48.12l1.14,1.13,2.07-2.07-.93-.93.93.93h0l2.07,2.07,1.55-1.55-2.06-2.08h0l-.93-.93.94.93,2.08-2.07h0l.14-.14-.13.14,2.06,2.07.94-.93-.93.93h0L40.81,47.7h0l-1.55,1.55h0l-2.07,2.08h0l-.63.62.63-.62Zm11.4,0h0l1.09,1.09-1.09-1.09-2.08,2.07h0l-1.09,1.09,1.08-1.09-2.06-2.08h0l-1.09-1.09,1.1,1.09,2.07-2.07h0l.85-.85-.85.85Zm5.88-5.88-.69.69.71.71-.71-.71h0L51,43.38Zm-7.25,0-.7.69L46,45.62l2.08-2.07h0l.08-.08-.08.08,2.07,2.07,1.41-1.39-1.41,1.4h0L48.08,47.7l.78.78-.78-.78h0L46,45.62h0l-1.55-1.55h0l-.69-.69Zm-15.24,0h.71L30,44Zm.95,4.73L32,49.25l1.55-1.55-2.07-2.08-.95,1-.47-2.36h0l.47,2.34.94-.94-.85-.84.85.84,2.07-2.07-.12-.12.12.12h0l2.07,2.07,1.56-1.55-.7-.69h1.39l-.69.69h0l-1.55,1.55h0L33.56,47.7h0L32,49.25h0l-.76.77Zm5,12.31-.28-.27-.27.27h-2L33,58.64l.58-.57-.18-.17.18.17h0l2.07,2.08h0l.27.27Zm7.26,0-.28-.27-.27.27H39l-.27-.27-.15.13.14-.14-1.55-1.55-1,1,1-1-2.07-2.07-1.25,1.24,1.24-1.25h0l2.07-2.08-1.56-1.55L33.56,55h0l-1.09,1.09h0L33.56,55l-1.65-1.65-.15-.71,1.8-1.79L32.78,50l.78.78h0l2.07,2.08h0l1.55,1.55h0l2.07,2.08h0l1.55,1.55h0l2.08,2.08h0l.28.28Zm7.25,0-.27-.27-.28.27H46.28L46,60.15l-.27.27h0l.27-.28h0l2.08-2.08h0l1.55-1.55h0l2.08-2.08h0l1.55-1.55h0l2.08-2.08h0l1.55-1.55h0L59,47.18h0l1.55-1.55h0l2.08-2.08.17-.17h0l-.17.17,2.07,2.08h0L62.6,47.7l.62.62-.62-.62-.62.62.62-.62-2.08-2.07L59,47.18,61,49.26h0L59,51.33l.86.87L59,51.33l-1.56,1.56.85.85-.85-.85L55.34,55l1.21,1.21L55.34,55l-1.56,1.56.78.77-.78-.77-2.07,2.07,1.4,1.4-1.4-1.4-1.56,1.56.28.27Zm14.25-7.53L62.6,55h0l-2.07-2.07h0l2.07-2.08h0l2.07,2.08Zm-7,7.53-.27-.27-.28.27h-3.6l-.27-.27-.27.27.27-.27h0l2.08-2.08h0l1.55-1.55h0L59,54.44h0L61,56.52l.63-.62-.62.62.93.93L61,56.52,59,58.6h0l-2.07-2.07-1.55,1.55,2.07,2.08.52-.52-.52.52.28.27Zm7.18,0H60.79l-.27-.27h0l2.07-2.08h0l2.28,2.29Zm.62-2.57-1.33-1.33h0l2.07-2.08h0l0,.06Zm1-4.35L66.88,52l-.35-.36.35.36Zm.77-3.24-1.06,1.08h0l-2.07-2.08h0l2.07-2.08h0l1.45,1.47Zm1-4.13-.5-.5h0l.82-.82Z"/><polygon class="cls-2" points="39.26 56.52 37.19 58.59 38.75 60.15 40.81 58.07 39.26 56.52"/><polygon class="cls-2" points="51.71 47.18 53.78 49.26 53.78 49.26 55.34 47.7 53.26 45.63 51.71 47.18"/><polygon class="cls-2" points="58.97 51.33 56.89 49.26 55.34 50.81 57.41 52.89 58.97 51.33"/><polygon class="cls-2" points="55.34 54.96 53.26 52.89 51.71 54.44 53.78 56.52 55.34 54.96"/><polygon class="cls-2" points="49.63 56.52 48.08 58.07 50.15 60.15 51.71 58.59 49.63 56.52"/></g></g></svg>