<svg xmlns="http://www.w3.org/2000/svg" viewBox="0 0 864.85 765.66"><defs><style>.cls-1,.cls-2,.cls-3{fill:none;stroke-miterlimit:10;}.cls-1,.cls-2,.cls-3,.cls-4{stroke:#fff;}.cls-1{stroke-width:9px;}.cls-2{stroke-width:5px;}.cls-3{stroke-width:7px;}.cls-4{font-size:104px;fill:#fff;font-family:Montserrat-SemiBold, Montserrat;font-weight:700;}</style></defs><title>catelera</title><g id="Capa_2" data-name="Capa 2"><g id="marcoext"><polygon class="cls-1" points="9.19 195.62 430.12 4.93 860.35 193.3 860.35 570.04 437.1 760.74 4.54 572.37 9.19 195.62"/><polygon class="cls-2" points="47.61 212.62 430.33 39.24 821.5 210.51 821.5 553.05 436.67 726.43 43.38 555.16 47.61 212.62"/></g><g id="lineas"><path class="cls-2" d="M427.73,80.33l4,152Z"/><line class="cls-2" x1="487.73" y1="94.33" x2="465.73" y2="232.33"/><line class="cls-2" x1="541.73" y1="142.33" x2="515.73" y2="236.33"/><line class="cls-2" x1="593.73" y1="166.33" x2="567.73" y2="264.33"/><line class="cls-2" x1="617.73" y1="226.33" x2="611.73" y2="272.33"/><line class="cls-2" x1="671.73" y1="208.33" x2="647.73" y2="276.33"/><line class="cls-2" x1="763.73" y1="218.33" x2="693.73" y2="306.33"/><line class="cls-2" x1="773.73" y1="280.33" x2="719.73" y2="322.33"/><line class="cls-2" x1="709.73" y1="352.33" x2="769.73" y2="332.33"/><line class="cls-2" x1="727.73" y1="398.33" x2="771.73" y2="398.33"/><line class="cls-2" x1="723.73" y1="440.33" x2="795.73" y2="472.33"/><line class="cls-2" x1="687.73" y1="470.33" x2="771.73" y2="532.33"/><line class="cls-2" x1="603.73" y1="468.33" x2="717.73" y2="574.33"/><line class="cls-2" x1="555.73" y1="476.33" x2="641.73" y2="566.33"/><line class="cls-2" x1="527.73" y1="490.33" x2="593.73" y2="614.33"/><line class="cls-2" x1="491.73" y1="502.33" x2="515.73" y2="568.33"/><line class="cls-2" x1="455.73" y1="522.33" x2="499.73" y2="626.33"/><line class="cls-2" x1="435.73" y1="520.33" x2="435.73" y2="676.33"/><line class="cls-2" x1="407.73" y1="518.33" x2="385.73" y2="674.33"/><line class="cls-2" x1="343.73" y1="536.33" x2="321.73" y2="630.33"/><line class="cls-2" x1="311.73" y1="474.33" x2="261.73" y2="612.33"/><line class="cls-2" x1="259.73" y1="488.33" x2="201.73" y2="584.33"/><line class="cls-2" x1="149.73" y1="554.33" x2="237.73" y2="466.33"/><line class="cls-2" x1="215.73" y1="458.33" x2="89.73" y2="534.33"/><line class="cls-2" x1="135.73" y1="432.33" x2="65.73" y2="490.33"/><line class="cls-2" x1="63.73" y1="402.33" x2="127.73" y2="382.33"/><line class="cls-2" x1="61.73" y1="344.33" x2="127.73" y2="344.33"/><line class="cls-2" x1="63.73" y1="280.33" x2="113.73" y2="310.33"/><line class="cls-2" x1="93.73" y1="218.33" x2="185.73" y2="294.33"/><line class="cls-2" x1="167.73" y1="186.33" x2="233.73" y2="278.33"/><line class="cls-2" x1="235.73" y1="170.33" x2="279.73" y2="256.33"/><line class="cls-2" x1="261.73" y1="138.33" x2="313.73" y2="256.33"/><line class="cls-2" x1="325.73" y1="160.33" x2="343.73" y2="230.33"/><line class="cls-2" x1="369.73" y1="112.33" x2="381.73" y2="232.33"/><line class="cls-2" x1="403.73" y1="134.33" x2="409.73" y2="186.33"/><line class="cls-2" x1="188.73" y1="561.33" x2="188.73" y2="574.33"/><line class="cls-2" x1="258.73" y1="462.33" x2="255.73" y2="469.33"/><line class="cls-2" x1="346.73" y1="512.33" x2="347.73" y2="521.33"/><line class="cls-2" x1="343.73" y1="643.33" x2="343.73" y2="653.33"/><line class="cls-2" x1="450.73" y1="594.33" x2="449.73" y2="608.33"/><line class="cls-2" x1="516.73" y1="586.33" x2="524.73" y2="595.33"/><line class="cls-2" x1="556.73" y1="614.33" x2="568.73" y2="621.33"/><line class="cls-2" x1="611.73" y1="586.33" x2="615.73" y2="592.33"/><line class="cls-2" x1="81.73" y1="502.33" x2="91.73" y2="503.33"/><line class="cls-2" x1="118.73" y1="286.33" x2="128.73" y2="292.33"/><line class="cls-2" x1="154.73" y1="195.33" x2="162.73" y2="202.33"/><line class="cls-2" x1="247.73" y1="255.33" x2="247.73" y2="263.33"/><line class="cls-2" x1="284.73" y1="228.33" x2="289.73" y2="241.33"/><line class="cls-2" x1="128.73" y1="406.33" x2="132.73" y2="406.33"/><line class="cls-2" x1="406.73" y1="209.33" x2="406.73" y2="218.33"/><line class="cls-2" x1="321.73" y1="123.33" x2="325.73" y2="128.33"/><line class="cls-2" x1="393.73" y1="98.33" x2="399.73" y2="102.33"/><line class="cls-2" x1="570.73" y1="165.33" x2="572.73" y2="176.33"/><line class="cls-2" x1="490.73" y1="229.33" x2="492.73" y2="240.33"/><line class="cls-2" x1="619.73" y1="193.33" x2="621.73" y2="209.33"/><line class="cls-2" x1="679.73" y1="228.33" x2="680.73" y2="233.33"/><line class="cls-2" x1="774.73" y1="304.33" x2="781.73" y2="304.33"/><line class="cls-2" x1="738.73" y1="430.33" x2="748.73" y2="430.33"/><line class="cls-2" x1="739.73" y1="553.33" x2="735.73" y2="558.33"/></g><g id="cubiertos"><path class="cls-3" d="M393.73,456.33S493.06,359,696.4,425.67"/><path class="cls-3" d="M705.73,412.33c-14.93-16.38-68.85,1.75-18,31.67"/><path class="cls-3" d="M469.73,458.33s-98-93-272-35c0,0-31.77-21.67-39,11.48a11.37,11.37,0,0,0,3.88,11.27c8.17,6.64,25.13,15,39.43-13.41"/></g><g id="letras"><text class="cls-4" transform="matrix(0.76, -0.26, 0.32, 0.95, 177.79, 413.96)">C</text><text class="cls-4" transform="translate(230.43 395.84) rotate(-13.18) scale(0.8 1)">A</text><text class="cls-4" transform="translate(290.73 381.77) rotate(-8.31) scale(0.8 1)">R</text><text class="cls-4" transform="translate(349.36 373.36) rotate(-4.27) scale(0.8 1)">T</text><text class="cls-4" transform="translate(398.29 369.59) rotate(-0.54) scale(0.8 1)">E</text><text class="cls-4" transform="translate(453.02 369.19) rotate(2.95) scale(0.8 1)">L</text><text class="cls-4" transform="matrix(0.8, 0.09, -0.11, 0.99, 498.04, 371.34)">E</text><text class="cls-4" transform="translate(552.35 377.29) rotate(10.16) scale(0.8 1)">R</text><text class="cls-4" transform="translate(610.72 387.67) rotate(14.08) scale(0.8 1)">A</text></g></g></svg>