<svg xmlns="http://www.w3.org/2000/svg" viewBox="0 0 174.5 174.5"><defs><style>.cls-1{fill:#fff;}.cls-2{fill:none;stroke:#42210b;stroke-linecap:round;stroke-miterlimit:10;stroke-width:2px;}.cls-3{fill:#42210b;}.cls-4{fill:#c1272d;}</style></defs><title>cliente</title><g id="Capa_2" data-name="Capa 2"><g id="Object"><rect class="cls-1" width="174.5" height="174.5" rx="87.25" ry="87.25"/><path class="cls-2" d="M41.49,79.92a13.35,13.35,0,0,1,26.7,0"/><path class="cls-2" d="M113.81,79.92a13.35,13.35,0,0,1,26.7,0"/><path class="cls-3" d="M99,102.48a8,8,0,1,1-16-.13c.09-5.49,6.07,1.78,12.09-2.07C97.21,98.91,99,99.94,99,102.48Z"/><path class="cls-4" d="M37.33,91.73c0,1.59-3.09,2.87-6.91,2.87s-6.92-1.28-6.92-2.87,3.1-2.88,6.92-2.88S37.33,90.14,37.33,91.73Z"/><path class="cls-4" d="M144.67,91.73c0,1.59,3.09,2.87,6.91,2.87s6.92-1.28,6.92-2.87-3.1-2.88-6.92-2.88S144.67,90.14,144.67,91.73Z"/></g></g></svg>