<svg xmlns="http://www.w3.org/2000/svg" viewBox="0 0 174.5 174.5"><defs><style>.cls-1{fill:#fff;}.cls-2{fill:#42210b;}.cls-3,.cls-4{fill:none;stroke:#42210b;stroke-linecap:round;stroke-miterlimit:10;}.cls-3{stroke-width:1.35px;}.cls-4{stroke-width:1.32px;}.cls-5{fill:#c1272d;}</style></defs><title>colaborador</title><g id="Capa_2" data-name="Capa 2"><g id="Object"><rect class="cls-1" width="174.5" height="174.5" rx="87.25" ry="87.25"/><path class="cls-2" d="M133.92,80a13.59,13.59,0,1,1-13.59-13.68A13.63,13.63,0,0,1,133.92,80Z"/><path class="cls-1" d="M129,73.5a3.76,3.76,0,1,1-3.76-3.78A3.76,3.76,0,0,1,129,73.5Z"/><path class="cls-1" d="M129.85,78.73a1.45,1.45,0,1,1-1.45-1.46A1.45,1.45,0,0,1,129.85,78.73Z"/><path class="cls-3" d="M113.83,64.46a16.55,16.55,0,0,1,6.5-1.32A16.77,16.77,0,0,1,137.05,80a17,17,0,0,1-.58,4.43"/><path class="cls-4" d="M59.85,64.84A16.41,16.41,0,0,0,37.6,84.23"/><path class="cls-2" d="M67.35,79.92A13.35,13.35,0,1,1,54,66.6,13.33,13.33,0,0,1,67.35,79.92Z"/><path class="cls-1" d="M62.54,73.63A3.69,3.69,0,1,1,58.85,70,3.69,3.69,0,0,1,62.54,73.63Z"/><path class="cls-1" d="M63.35,78.72a1.42,1.42,0,0,1-2.84,0,1.42,1.42,0,0,1,2.84,0Z"/><path class="cls-2" d="M97.29,98.48a8,8,0,0,1-16,0c0-4.43,3.59-1,8-1S97.29,94.05,97.29,98.48Z"/><path class="cls-5" d="M95.8,103.13a8,8,0,0,1-12.2,1c-1.45-1.45,1.24-4.69,5.67-4.69S96.74,101.82,95.8,103.13Z"/><path class="cls-3" d="M136.68,76.42c1.65.91,6.15-.14,6.32-2.53"/><path class="cls-3" d="M137.37,79a3,3,0,0,0,4.94-.8"/><path class="cls-3" d="M37,76.42c-1.66.91-6.16-.14-6.32-2.53"/><path class="cls-3" d="M36.3,79a3,3,0,0,1-4.94-.8"/></g></g></svg>