<svg xmlns="http://www.w3.org/2000/svg" viewBox="0 0 224.75 224.75"><defs><style>.cls-1{fill:#395398;}.cls-2{fill:#fff;}</style></defs><title>face_color</title><g id="Capa_2" data-name="Capa 2"><g id="OBJECTS"><path class="cls-1" d="M224.75,112.38A112.38,112.38,0,1,0,112.37,224.75l1,0v-78.4H86.28V115h27.06V91.89c0-26.82,16.37-41.42,40.29-41.42a219.21,219.21,0,0,1,24.18,1.24v28H161.22c-13,0-15.53,6.18-15.53,15.25v20h31l-4,31.33h-27v73.4A112.42,112.42,0,0,0,224.75,112.38Z"/><path class="cls-2" d="M172.68,146.33l4-31.33h-31V95c0-9.07,2.52-15.25,15.53-15.25h16.59v-28a219.21,219.21,0,0,0-24.18-1.24c-23.92,0-40.29,14.6-40.29,41.42V115H86.28v31.33h27.06v78.4a112.56,112.56,0,0,0,32.35-5v-73.4Z"/></g></g></svg>