<svg xmlns="http://www.w3.org/2000/svg" viewBox="0 0 622.47 621.79"><defs><style>.cls-1{fill:#fbeadc;}.cls-13,.cls-14,.cls-2,.cls-3,.cls-7{fill:none;}.cls-2,.cls-3{stroke:#ea4863;}.cls-10,.cls-11,.cls-12,.cls-13,.cls-14,.cls-2,.cls-3,.cls-7{stroke-miterlimit:10;}.cls-2{stroke-width:4.44px;}.cls-3{stroke-width:4.56px;}.cls-4{fill:#ea4863;}.cls-5{fill:#a8e6cf;}.cls-6{fill:#7a762f;}.cls-7{stroke:#4d480f;stroke-width:5.28px;}.cls-8{fill:#bda882;}.cls-10,.cls-11,.cls-9{fill:#f33051;}.cls-10,.cls-11,.cls-12,.cls-13,.cls-14{stroke:#000;}.cls-11,.cls-14{stroke-width:0.5px;}.cls-12{fill:#82a593;}.cls-15{opacity:0.5;}</style></defs><title>flamingo_aside</title><g id="Capa_2" data-name="Capa 2"><g id="Capa_2-2" data-name="Capa 2"><rect class="cls-1" width="622.32" height="370.82"/><line class="cls-2" x1="347.03" y1="26.59" x2="347.03" y2="347.3"/><line class="cls-3" x1="274.02" y1="27.11" x2="274.02" y2="372.41"/><ellipse class="cls-4" cx="273.93" cy="160.49" rx="5.81" ry="5.87"/><rect class="cls-5" y="369.24" width="622.47" height="252.55"/><polygon class="cls-6" points="260.55 427.77 372.95 427.77 372.95 345.71 260.61 345.83 260.55 427.77"/><polygon class="cls-6" points="187.02 427.77 246.88 427.77 246.88 384.07 187.05 384.13 187.02 427.77"/><line class="cls-7" x1="173.66" y1="428.65" x2="439.09" y2="428.65"/><circle class="cls-4" cx="346.93" cy="161.14" r="5.92"/><path class="cls-4" d="M368.57.81c6.32,20.62-2.9,39.5-2.9,39.5s-3.75,8.5-31,47.25-19.75,63-19.75,63,1.8,17.59,14.25,30l32.25,35.5s9,8.5,9,24.25c0,0,14.75,6.75,4.75,22.5l-8-8-8.5,8.5s-12-13.25,3.75-22.5c0,0,2.75-11.75-14.75-26.75l-27.49-27.89a61.84,61.84,0,0,1-16.56-30.63c-2.72-13-2.86-30.81,6.05-52l16-31.75H180.42l69-71"/><polygon class="cls-8" points="358.02 262.4 366.52 253.9 374.94 262.31 374.94 285.73 357.86 285.73 358.02 262.4"/><path class="cls-9" d="M357.86,285.73h7v-9.19c0-2.05-.82-3.84-2.54-4.31a3.84,3.84,0,0,0-2.25,0,4.21,4.21,0,0,0-2.21,3.92Z"/><line class="cls-10" x1="366.86" y1="263.73" x2="366.86" y2="285.73"/><line class="cls-11" x1="368.77" y1="263.81" x2="368.77" y2="268.73"/><circle class="cls-12" cx="366.64" cy="254.89" r="2.67"/><circle cx="366.64" cy="254.89" r="0.79"/><path d="M374.86,285.73h-17L346,299.08a1.8,1.8,0,0,0,2.27,2.73Z"/><line class="cls-13" x1="274.32" y1="62.31" x2="185.49" y2="62.31"/><line class="cls-14" x1="195.16" y1="62.31" x2="253.73" y2="0.98"/><line class="cls-14" x1="205.49" y1="62.48" x2="264.07" y2="1.15"/><line class="cls-14" x1="216.32" y1="62.48" x2="274.32" y2="0.98"/><line class="cls-14" x1="228.32" y1="62.15" x2="274.32" y2="13.98"/><line class="cls-14" x1="240.32" y1="62.15" x2="274.23" y2="26.65"/><line class="cls-14" x1="252.95" y1="62.27" x2="274.32" y2="39.98"/><line class="cls-14" x1="264.57" y1="62.27" x2="274.22" y2="52.14"/><polyline class="cls-14" points="185.49 62.65 244.23 0.98 274.31 0.98 274.31 61.48 274.31 62.73"/><rect class="cls-15" x="360.32" y="351.56" width="5" height="53.33" rx="2.5" ry="2.5"/><rect class="cls-15" x="349.98" y="351.56" width="4.67" height="22" rx="2.33" ry="2.33"/><rect class="cls-15" x="236.9" y="388.23" width="3" height="14.14" rx="1.5" ry="1.5"/><rect class="cls-15" x="236.9" y="405.43" width="3" height="3.58" rx="1.33" ry="1.33"/><rect class="cls-15" x="236.9" y="412.06" width="3" height="9.42" rx="1.5" ry="1.5"/></g></g></svg>