<svg xmlns="http://www.w3.org/2000/svg" viewBox="0 0 918 404.27"><defs><style>.cls-1{fill:#b9dbff;}.cls-2{fill:#fee778;opacity:0.49;}.cls-3{fill:#a8e6cf;}.cls-13,.cls-4,.cls-7{fill:none;}.cls-4{stroke:#02d8b2;stroke-width:3.95px;}.cls-10,.cls-12,.cls-13,.cls-4,.cls-7{stroke-miterlimit:10;}.cls-5{fill:#efc21e;}.cls-6{fill:#e77463;}.cls-10,.cls-12,.cls-13,.cls-7{stroke:#000;}.cls-7{stroke-width:0.5px;}.cls-8{fill:#f3a401;}.cls-9{font-size:17.12px;font-family:Pacifico-Regular, Pacifico;}.cls-10{fill:#fff;}.cls-11{fill:#57b06f;}.cls-12{stroke-width:0.25px;}.cls-13{stroke-width:3.72px;}.cls-14{opacity:0.2;}</style></defs><title>form_fondo</title><g id="Capa_2" data-name="Capa 2"><g id="Capa_2-2" data-name="Capa 2"><path class="cls-1" d="M10,0h897.9a10,10,0,0,1,10,10V271a0,0,0,0,1,0,0H0a0,0,0,0,1,0,0V10A10,10,0,0,1,10,0Z"/><polygon class="cls-2" points="312 0 622 0 905.5 283.5 24.5 288.5 312 0"/><path class="cls-3" d="M.19,271H918a0,0,0,0,1,0,0V395.59a6.93,6.93,0,0,1-6.93,6.93H7.12a6.93,6.93,0,0,1-6.93-6.93V271a0,0,0,0,1,0,0Z"/><line class="cls-4" x1="18" y1="272.38" x2="902" y2="272.38"/><polygon class="cls-5" points="278.25 354.68 285.14 357.51 290.44 355.66 288.77 350.54 281.89 346.88 282.69 350.88 278.25 354.68"/><polygon class="cls-6" points="318.28 371.58 321.56 364.51 326.05 370.88 318.28 371.58"/><line class="cls-7" x1="279.7" y1="350.56" x2="318.9" y2="367.68"/><polygon class="cls-7" points="317.43 371.19 320.64 364.23 325.06 370.5 317.43 371.19"/><polyline class="cls-7" points="279.7 354.39 284.43 352.66 282.94 347.9"/><polyline class="cls-7" points="281.79 355.34 286.52 353.62 285.02 348.86"/><polyline class="cls-7" points="283.93 356.3 288.66 354.57 287.16 349.81"/><polyline class="cls-7" points="285.78 357.2 290.51 355.48 289.02 350.72"/><polygon class="cls-6" points="596.39 371.94 593.17 364.98 588.75 371.25 596.39 371.94"/><polygon class="cls-8" points="635.56 354.25 628.84 357.01 624.11 355.29 625.6 350.53 632.94 347.56 632.38 352.13 635.56 354.25"/><line class="cls-7" x1="634.61" y1="350.56" x2="595.41" y2="367.68"/><polygon class="cls-7" points="596.89 371.19 593.67 364.23 589.25 370.5 596.89 371.19"/><polyline class="cls-7" points="634.61 354.39 629.88 352.66 631.37 347.9"/><polyline class="cls-7" points="632.53 355.34 627.8 353.62 629.29 348.86"/><polyline class="cls-7" points="630.39 356.3 625.66 354.57 627.15 349.81"/><polyline class="cls-7" points="628.53 357.2 623.8 355.48 625.29 350.72"/><text class="cls-9" transform="matrix(0.99, 0.14, -0.14, 0.99, 383.17, 391.45)">V</text><text class="cls-9" transform="translate(396.04 393.26) rotate(6.71)">e</text><text class="cls-9" transform="translate(402.66 394.05) rotate(5.65)">r</text><text class="cls-9" transform="matrix(1, 0.08, -0.08, 1, 410.34, 394.81)">b</text><text class="cls-9" transform="translate(418.38 395.44) rotate(3.5)">e</text><text class="cls-9" transform="translate(425.03 395.85) rotate(2.49)">n</text><text class="cls-9" transform="matrix(1, 0.02, -0.02, 1, 433.46, 396.22)">a</text><text class="cls-9" transform="matrix(1, 0.01, -0.01, 1, 441.27, 396.4)"> </text><text class="cls-9" transform="matrix(1, 0, 0, 1, 445.74, 396.46)">d</text><text class="cls-9" transform="matrix(1, -0.02, 0.02, 1, 454.5, 396.42)">e</text><text class="cls-9" transform="matrix(1, -0.03, 0.03, 1, 461.51, 396.27)"> </text><text class="cls-9" transform="matrix(1, -0.04, 0.04, 1, 466.03, 396.12)">l</text><text class="cls-9" transform="translate(471.38 395.9) rotate(-3.28)">a</text><text class="cls-9" transform="translate(479.17 395.44) rotate(-4)"> </text><text class="cls-9" transform="translate(483.65 395.17) rotate(-5.07)">B</text><text class="cls-9" transform="translate(497.35 393.93) rotate(-6.27)">u</text><text class="cls-9" transform="translate(505.15 393.06) rotate(-7.07)">e</text><text class="cls-9" transform="matrix(0.99, -0.14, 0.14, 0.99, 511.81, 392.24)">n</text><text class="cls-9" transform="translate(520.17 391.08) rotate(-8.76)">a</text><line class="cls-10" x1="280.01" y1="334.92" x2="377.34" y2="334.92"/><line class="cls-10" x1="398.96" y1="334.92" x2="525.13" y2="334.92"/><line class="cls-10" x1="544.95" y1="334.92" x2="635.07" y2="334.92"/><line class="cls-10" x1="275.5" y1="341.41" x2="319.66" y2="341.41"/><line class="cls-10" x1="368.33" y1="341.41" x2="381.84" y2="341.41"/><line class="cls-10" x1="410.68" y1="341.41" x2="512.51" y2="341.41"/><line class="cls-10" x1="541.35" y1="341.41" x2="553.97" y2="341.41"/><line class="cls-10" x1="602.63" y1="341.41" x2="637.78" y2="341.41"/><path class="cls-11" d="M544.93,360.55c1.76-.31,4.86.12,5.83,1.91v-.63c-.15.25-1.49.4-1.77.44a4.49,4.49,0,0,1-1.93,0c-1.2-.36-1.4-1.61-1.59-2.7l-1.05.61c1.5,1.28,3.15,4,5.46,2.51a.64.64,0,0,0,.23-.86c-.81-1.16-2.16-.77-3.14-1.6l-.61,1.05a1.38,1.38,0,0,1,.73.24.63.63,0,0,0,.75-1,5,5,0,0,0-.75-.77c-.61-.52-1.5.36-.88.88a5.53,5.53,0,0,1,.75.78l.76-1a2.89,2.89,0,0,0-1-.37c-.54-.08-1.14.6-.6,1.05a3.34,3.34,0,0,0,1.15.64c.56.18,1.42.17,1.79.7l.22-.85c-1.55,1-3-1.47-3.94-2.31a.63.63,0,0,0-1,.61c.26,1.42.73,3.06,2.28,3.55a6.07,6.07,0,0,0,2.78,0c.66-.12,1.86-.21,2.34-.75,1-1.1-1.26-2.31-2-2.7a7.94,7.94,0,0,0-5-.68c-.79.14-.46,1.34.33,1.2Z"/><path class="cls-11" d="M549.56,360.85l-.92-.42a.63.63,0,0,0-.63,1.08,21.17,21.17,0,0,0,1.81,1.14.63.63,0,0,0,.63-1.08,21.17,21.17,0,0,1-1.81-1.14l-.63,1.08.91.42c.73.34,1.37-.74.64-1.08Z"/><path class="cls-11" d="M565.28,344a26.77,26.77,0,0,1,3.08-2.75,12.75,12.75,0,0,1,4.53-1.5l-.79-.61c.26,3.11-4.45,4.26-6.67,4.31l.32,1.17,5.51-4.17-.94-.54c.1,1.09-1.59,2.31-2.29,2.93l.88.89a15.62,15.62,0,0,1,1.83-2c.52-.47-.19-1.42-.75-1l-1.94,1.48.76,1a7,7,0,0,1,1.7-1.59l-.76-1a6.56,6.56,0,0,0-1.1,1.36c-.31.51.34,1.22.86.86a12.09,12.09,0,0,0,3-3l-1.14-.48-.28.77c-.28.75.93,1.08,1.2.33l.29-.77c.26-.71-.76-1-1.15-.48a10.35,10.35,0,0,1-2.54,2.53l.85.85a3.61,3.61,0,0,1,.91-1.11c.5-.48-.16-1.38-.76-1a7.87,7.87,0,0,0-2,1.78c-.4.5.14,1.46.75,1l1.94-1.48-.76-1a16.24,16.24,0,0,0-1.83,2,.63.63,0,0,0,.88.89c1.08-1,2.81-2.2,2.66-3.82,0-.42-.53-.86-1-.54l-5.5,4.17c-.46.34-.37,1.18.31,1.16a9.62,9.62,0,0,0,5.61-1.66c1.19-.88,2.44-2.32,2.31-3.9a.63.63,0,0,0-.79-.6c-1.56.38-3.35.59-4.7,1.53a28.61,28.61,0,0,0-3.47,3c-.57.57.31,1.45.89.89Z"/><path class="cls-11" d="M567.12,352.75a11.68,11.68,0,0,0,6.1,3,.63.63,0,0,0,.7-.92,3.59,3.59,0,0,0-2.11-1.58A17.37,17.37,0,0,0,568,352.1a.63.63,0,0,0-.77.43c-.79,2.44,4.19,3.2,5.69,3.28.81,0,.81-1.21,0-1.25a9.18,9.18,0,0,1-2.32-.4c-.33-.1-2.35-.72-2.16-1.3l-.77.44a15,15,0,0,1,2.71.72c.88.31,2,.56,2.51,1.43l.7-.92a10.5,10.5,0,0,1-5.55-2.66c-.59-.54-1.47.34-.88.88Z"/><path class="cls-11" d="M585,344.78c2.11-1.73,4.78-1.66,7.31-1.09l-.28-1a5.88,5.88,0,0,1-4.26,1.44c-1-.11-1.88-.55-2.9-.58v1.25a19.59,19.59,0,0,0,4.87-.79.63.63,0,0,0-.17-1.23h-.8a.63.63,0,0,0,0,1.25h.46a.63.63,0,0,0,0-1.25h-.46V344h.8l-.16-1.23a17.89,17.89,0,0,1-4.54.75.63.63,0,0,0,0,1.25c1.55.05,2.75.81,4.34.5a6.8,6.8,0,0,0,3.71-1.73.64.64,0,0,0-.28-1c-3-.67-6-.62-8.53,1.41-.62.51.27,1.39.89.89Z"/><path class="cls-11" d="M591.53,342.74a1.38,1.38,0,0,0-1.93.57.63.63,0,0,0,.7.92,2.3,2.3,0,0,0,1.12-.62.63.63,0,0,0-.28-1,1.75,1.75,0,0,0-1.56.18,1.08,1.08,0,0,0-.37,1.22.63.63,0,0,0,.91.38,1,1,0,0,0,.6-.78.64.64,0,0,0-.43-.77.84.84,0,0,0-1.12.48.74.74,0,0,0,.53.92c.79.13,1.13-1.07.34-1.21H590l.38.29v.43L590,344h0l-.43-.77,0,0,.92.37c-.07.07,0,.1.06.07a2,2,0,0,1,.34.06l-.28-1a1.1,1.1,0,0,1-.56.3l.71.91c.05-.1.1-.19.22-.12a.63.63,0,0,0,.63-1.08Z"/><path class="cls-11" d="M528.84,343a17.42,17.42,0,0,1,7.74-8.76l-1-.54c.22,4.16-3.65,7.25-7.2,8.6l.71.92q2.83-3.93,6-7.62l-1-.13c.87,1.42-2.52,4.31-3.31,5.26l1,.76c1.34-2.16,2.76-4.25,4.26-6.29.48-.65-.6-1.27-1.08-.63-1.5,2-2.92,4.13-4.25,6.29-.37.59.52,1.31,1,.75,1.19-1.43,4.87-4.53,3.5-6.77a.63.63,0,0,0-1-.13q-3.24,3.81-6.17,7.88a.63.63,0,0,0,.7.91c4-1.54,8.38-5.05,8.12-9.8a.63.63,0,0,0-.94-.54,18.85,18.85,0,0,0-8.31,9.51c-.3.74.91,1.07,1.21.33Z"/><path class="cls-11" d="M518.8,348.68a5.22,5.22,0,0,1-.35-4.76c.31-1,1-3,1.89-3.61q.55-1.14.9.63l0,.73a7.68,7.68,0,0,1-.5,2.7,13,13,0,0,1-2.47,4.06l1.05.61a79.72,79.72,0,0,0,1.78-8.8l-.77.44c1.1.34,0,3.53-.22,4.24l1.23.17a17.46,17.46,0,0,0,.08-3,.63.63,0,0,0-1.23-.16,23.85,23.85,0,0,0-.71,3.75h1.25a31.61,31.61,0,0,0-.1-3.37.63.63,0,0,0-1.23-.16,15.85,15.85,0,0,0-.54,3.81h1.25l0-3.14c0-.68-1.11-.88-1.23-.17l-.68,4.26,1.23.17.33-3.77c.07-.73-1-.81-1.22-.16-.35,1.08-.65,2.17-.91,3.27a.63.63,0,0,0,1.21.34,15,15,0,0,0,.64-3.87.62.62,0,0,0-1.22-.17l-.76,3.07a.62.62,0,0,0,1.2.33,17.41,17.41,0,0,0,.92-3.56c.11-.77-1-1.13-1.21-.33a16.79,16.79,0,0,0-.48,2.82c-.06.72,1,.82,1.23.16l.77-2.66-1.23-.17a4.75,4.75,0,0,1-.08,1.8c-.15.78,1,1.12,1.2.33a7.62,7.62,0,0,0,.13-2.13.62.62,0,0,0-1.22-.17l-.78,2.67,1.23.17a14.92,14.92,0,0,1,.44-2.49l-1.21-.33a17.39,17.39,0,0,1-.91,3.56l1.2.33.76-3.06-1.23-.17a13.19,13.19,0,0,1-.6,3.53l1.21.34c.26-1.11.56-2.2.9-3.28l-1.23-.17-.33,3.77c-.06.69,1.11.86,1.22.17l.69-4.26-1.23-.17,0,3.14a.63.63,0,0,0,1.25,0,14.55,14.55,0,0,1,.5-3.48l-1.23-.17a31.61,31.61,0,0,1,.1,3.37c0,.82,1.17.78,1.25,0a20.89,20.89,0,0,1,.67-3.42l-1.23-.17a17.46,17.46,0,0,1-.08,3c-.09.73,1,.8,1.23.16.53-1.6,1.65-5.07-.65-5.78a.63.63,0,0,0-.77.44,79.75,79.75,0,0,1-1.79,8.8c-.15.57.63,1.1,1,.61a12.9,12.9,0,0,0,3.27-6.76c.12-1,.32-4.48-1.58-4.25-1.6.2-2.82,3.18-3.3,4.41-.86,2.15-1.26,4.6.15,6.59.46.65,1.54,0,1.08-.63Z"/><path class="cls-11" d="M519.68,343.08a1.44,1.44,0,0,0,1-1.86c-.15-.39-.71-.67-1-.27a1.45,1.45,0,0,0-.35,1.26c.1.66,1,.52,1.21,0a.8.8,0,0,0-.89-1c-.66.09-.76.76-.68,1.31.12.79,1.33.45,1.21-.33l-.13.17-.48.06-.15-.14-.06-.48,0,.08h1.21l0-.05-1-.27c.06.15.06.27-.12.32a.62.62,0,0,0,.33,1.2Z"/><path class="cls-11" d="M405.92,348.25a5.94,5.94,0,0,1-3.09-3.84c-.07-.26-.89-4.65-.65-4.7a14.69,14.69,0,0,1,1.63,1.9,6.62,6.62,0,0,1,1.05,2.23c.38,1.52.28,3.15.59,4.69l1.21-.34c-.63-2.17-1-4.57-2.39-6.43-.4-.54-1.36-.25-1.14.48l1.6,5.53c.18.65,1.3.56,1.22-.16a12.83,12.83,0,0,0-2.38-6.34.63.63,0,0,0-1.14.48l1.45,5.43c.22.8,1.31.44,1.21-.33a15.72,15.72,0,0,0-2-5.9.63.63,0,0,0-1.15.48,25.51,25.51,0,0,0,1.52,5.21c.29.72,1.43.46,1.2-.34l-1.18-4.09a.63.63,0,0,0-1.23.17,25.46,25.46,0,0,0,.43,4.36.63.63,0,0,0,1.21,0c.39-1.86-.37-3.83-.8-5.63l-1.21.33a6.26,6.26,0,0,0,.66,1.44.63.63,0,0,0,1.17-.31,7.67,7.67,0,0,0-.23-2.34.63.63,0,0,0-1.21,0l-.09.38,1.22.17v-.72a.63.63,0,0,0-1.06-.44,1.37,1.37,0,0,0-.51,1c-.14.78,1,1.12,1.2.33l.13-.5h-1.2a2,2,0,0,0,.22.75c.3.74,1.51.42,1.21-.33a2,2,0,0,1-.23-.76c-.11-.62-1.05-.57-1.2,0l-.13.51,1.2.33.19-.42-1.07-.44v.72a.63.63,0,0,0,1.23.17l.1-.38h-1.21a4.38,4.38,0,0,1,.19,2l1.16-.32a3.14,3.14,0,0,1-.53-1.14.63.63,0,0,0-1.21.33c.36,1.49,1.12,3.44.8,5h1.21a23.6,23.6,0,0,1-.39-4l-1.23.17,1.19,4.09,1.2-.34a25.39,25.39,0,0,1-1.51-5.2l-1.14.48a14.74,14.74,0,0,1,1.91,5.6l1.21-.33-1.45-5.43-1.15.48a11.65,11.65,0,0,1,2.21,5.71l1.23-.17-1.6-5.53-1.14.48c1.28,1.76,1.67,4.07,2.26,6.14a.63.63,0,0,0,1.21-.34c-.58-2.85-.29-5.32-2.17-7.74-.61-.79-1.9-2.84-3.07-1.74s-.22,4.47.12,5.71a7.27,7.27,0,0,0,3.75,4.91c.72.36,1.35-.72.63-1.08Z"/><path class="cls-11" d="M395.18,342c-2-.61-4.19-1.29-5.43-3.12a48.12,48.12,0,0,1-2.76-5.34l-.54.94c2-.12,4.65,1.87,6,3.27s1.37,3.36,2.71,4.56c.6.53,1.48-.34.88-.89q-2.25-2-4.32-4.26c-.55-.59-1.42.29-.88.88a29.75,29.75,0,0,0,2.78,2.72c.5.42,1.44-.15,1-.76a17.48,17.48,0,0,0-3.24-3.36c-.62-.49-1.49.31-.89.88l1.68,1.61c.49.46,1.42-.17,1-.76a9.53,9.53,0,0,0-2.89-2.62.63.63,0,0,0-.85.86,5.12,5.12,0,0,0,1,1.36.63.63,0,0,0,.89-.89,6.34,6.34,0,0,0-2.63-1.79.63.63,0,0,0-.61,1l1.53,1.29c.5.42,1.44-.15,1-.76a5.37,5.37,0,0,0-2.56-1.94c-.53-.2-1,.48-.71.92a2.58,2.58,0,0,0,1.19,1.12.63.63,0,0,0,.76-1,4.35,4.35,0,0,0-1.13-.92c-.6-.34-1.31.51-.76,1l.35.29a.63.63,0,0,0,1-.76l-.25-.45-1,.76c1.11,1.18,2.23,2.34,3.36,3.51a.63.63,0,0,0,1-.76,8.86,8.86,0,0,0-1.35-1.82.63.63,0,0,0-1,.61,3.72,3.72,0,0,0,1.2,2c.6.52,1.46-.32.89-.89a13.12,13.12,0,0,0-2-1.62c-.51-.33-1.23.34-.86.85a14.21,14.21,0,0,0,2.54,2.71.64.64,0,0,0,1.07-.45,1.45,1.45,0,0,0-1.59-1.67.64.64,0,0,0-.45,1.07,7.4,7.4,0,0,0,2,1.64c.65.39,1.19-.45.76-1l-1.47-1.78c-.45-.56-1.34.16-1,.75a3.14,3.14,0,0,0,2.53,1.88.63.63,0,0,0,.44-1.06,2.7,2.7,0,0,0-1.57-.8c-.58-.09-1.1.58-.61,1.05a13,13,0,0,0,1.84,1.46.63.63,0,0,0,.76-1,4.86,4.86,0,0,0-.79-.63c-.5-.33-1.24.36-.86.86a4.18,4.18,0,0,0,.75.82l.89-.88-.95-.79a.62.62,0,0,0-.88.88,11,11,0,0,0,1.38,1.26.63.63,0,0,0,1-.27,1.89,1.89,0,0,0-.12-1.83c-.32-.62-1.4-.18-1.14.49a1.43,1.43,0,0,0,.61.8c.55.4,1.1-.36.85-.86l-.22-.46c-.35-.73-1.43-.09-1.08.63l.23.46.85-.85,0-.06-1.14.48v.87l1-.28a11.79,11.79,0,0,1-1.38-1.26l-.88.88.94.79c.62.51,1.5-.35.89-.88l-.56-.57-.85.85.54.43.76-1a10.26,10.26,0,0,1-1.6-1.27l-.61,1.05,1,.47.45-1.07a2.43,2.43,0,0,1-1.45-1.26l-1,.76,1.46,1.79.76-1a6.47,6.47,0,0,1-1.71-1.46l-.44,1.07.34.42,1.06-.44a12.64,12.64,0,0,1-2.34-2.45l-.85.86a10.56,10.56,0,0,1,1.77,1.43l.89-.89a2,2,0,0,1-.89-1.41l-1,.6a8.45,8.45,0,0,1,1.15,1.57l1-.76c-1.12-1.16-2.25-2.33-3.36-3.5a.62.62,0,0,0-1,.75l.25.45,1-.75-.34-.3-.76,1a2.37,2.37,0,0,1,.88.72l.75-1-.74-.68-.71.92a3.42,3.42,0,0,1,1.83,1.37l1-.76-1.54-1.28-.61,1a5,5,0,0,1,2.08,1.48l.89-.89a2.81,2.81,0,0,1-.85-1.11l-.86.86A7.81,7.81,0,0,1,392,339l1-.76-1.68-1.6-.89.88a16.33,16.33,0,0,1,3.05,3.11l1-.76a28.44,28.44,0,0,1-2.78-2.71l-.88.88q2.07,2.24,4.32,4.27l.88-.89c-.92-.83-1.06-2.35-1.76-3.4a9.82,9.82,0,0,0-2-2.11c-1.58-1.27-3.69-2.81-5.8-2.68a.64.64,0,0,0-.54.94c1,2,1.9,4.63,3.52,6.3a12.2,12.2,0,0,0,5.42,2.74c.77.24,1.1-1,.33-1.21Z"/><path class="cls-11" d="M390.15,334.91l-2-.91c-.72-.33-1.36.75-.63,1.08l2,.91c.73.33,1.37-.75.63-1.08Z"/><path class="cls-11" d="M371.3,363a.85.85,0,0,0,.76.28l-.32-1.16-.12.06a.6.6,0,0,0-.31.54.83.83,0,0,0,1.37.65c1.07-.68.48-1.83-.46-2.18-.47-.17-.86.35-.77.77.25,1.1,1.82,2.29,2.66,1,.67-1-.64-2.56-1.75-2.21a.6.6,0,0,0-.43.43c-.32,1.42,2.1,2.91,3.18,1.87s-1-3.4-2.08-2.27,1.89,3.08,3,2.58a1.09,1.09,0,0,0,.49-1.45,2.44,2.44,0,0,0-2.35-1.36.64.64,0,0,0-.63.63c0,.93.73,2.57,1.88,2.43.95-.11,1.05-1.31.44-1.89-2.12-2-2.86,3-.5,2.09a.94.94,0,0,0,0-1.74c-.87-.46-2.23.06-2.09,1.19a1.06,1.06,0,0,0,1.84.57c.78-.87-.14-1.89-1.11-1.81a.63.63,0,0,0-.31,1.17c1.88,1.22,3.51-1.27,1.56-1.87-.42-.13-.95.32-.77.77.33.82,1.34,1.82,2.31,1.19s.38-1.64-.41-2c-2.34-1-1.51,3.45.64,2.16,2-1.18-2.12-3-1.84-.77.12.91,1.29,1.09,1.92.59,1-.79.43-2-.47-2.54a.63.63,0,0,0-.92.7,1.28,1.28,0,0,0,2.19.63c.7-.9-.2-1.95-1.15-2a.63.63,0,0,0-.6.79c.14,1,1.53,2.38,2.48,1.31s-.57-2.18-1.44-2.37a.63.63,0,0,0-.76.44c-.31.91.12,2.13,1.29,2a1.12,1.12,0,0,0,.86-1.7,1,1,0,0,0-1.82.05c-.62,1.06.45,1.87,1.35,2.12a.63.63,0,0,0,.79-.6,1,1,0,0,0-1.65-.95c-.93.75-.19,1.78.68,2.06a.64.64,0,0,0,.79-.61,3.39,3.39,0,0,0-.1-1.27.63.63,0,0,0-.92-.37,1.07,1.07,0,0,0-.22,1.79.64.64,0,0,0,.88,0,2,2,0,0,0-.35-3.28v1.08a1,1,0,0,0,0-1.81.64.64,0,0,0-.94.54c-.05.83.49,1.22,1.24,1.38a.66.66,0,0,0,.71-.29,1.37,1.37,0,0,0,0-1.73.64.64,0,0,0-1.14.15,1,1,0,1,0,2,.6.64.64,0,0,0-.29-.71.92.92,0,0,0-.88-.13.64.64,0,0,0-.43.77,1,1,0,0,0,1.57.65.63.63,0,0,0-.15-1.14,1.21,1.21,0,0,0-1.19,2.06c.49.51,1.38-.16,1-.76a2.37,2.37,0,0,0-2.17-1.16.64.64,0,0,0-.6.79,1.49,1.49,0,0,0,.68.94c.39.3.95-.11.94-.54,0-1.07-.73-1.43-1.73-1.4a.63.63,0,0,0-.61.45,1,1,0,0,0,1.56,1.2.63.63,0,0,0,0-1.08c-1.82-1-2.71,1.46-.54,1.73a.64.64,0,0,0,.63-.63,1.38,1.38,0,0,0-2.22-1,1,1,0,0,0,.6,1.83.63.63,0,0,0,.61-.79c-.26-1.09-1.81-1.73-2.37-.44s1.07,1.32,1.85,1a.63.63,0,0,0,.13-1,2.88,2.88,0,0,0-1.26-.89.63.63,0,0,0-.79.61,1.44,1.44,0,0,0,.48,1.13.63.63,0,0,0,1-.27l.23-.63c.18-.5-.35-.83-.77-.77a2.09,2.09,0,0,0-1.45.82.63.63,0,0,0,.12,1,1.35,1.35,0,0,0,.89.25.63.63,0,0,0,.62-.62,1,1,0,1,0-1.56.62.64.64,0,0,0,.88,0l.35-.29-.76.1.4.2c.72.36,1.35-.72.63-1.08l-.4-.2a.65.65,0,0,0-.76.1l-.34.28h.88l-.57.27.63-.63-.26-.08.13,1a1,1,0,0,1,.9-.51l-.77-.76-.22.62,1-.27-.11-.25-.79.6.7.56.13-1-.06.9.6-.8.37.4.62-.62-.09.6v-1.08l.28.22-.6.46.48.15.94-.54-.1-.19-.61.79,1.09.54,1-.75,0,0-.15-1.14.26.1-.43.77h-.09l-.28-.7.41.07-1.15.14,0,.47.71-.29-.33-.17-.94.54.05-.35a.63.63,0,0,0,0,1.08l.1,1.31h.88l0,.17-.92-.37a1.68,1.68,0,0,1,.06.94l.79-.6-.61.1.79-.6-.81-.94-.77.44.49-.48-.6.79.17-.24-.92.71.21.32-.54.31v-.72l-.77.77-.59-.41-.32,1.16.74,0,.16-.61c.52-.41.49-.9-.09-1.46l-.62.62c.3,0,1.74.66,1,.26a2.27,2.27,0,0,1-1.22-1v.63c.26.41.22.51-.12.28a4.08,4.08,0,0,0-1.14-.35l-.77.77.37-.07.31.54v-.15l-.31.54.12-.06c.53-.28.31-1.23-.31-1.17l.13.08c-.6-.53-1.49.35-.89.89Z"/><path class="cls-11" d="M330,342.88l0,.34a.63.63,0,0,0,1.23.16,1.24,1.24,0,0,0,.12-.71h-1.25a1.85,1.85,0,0,0,.85,1.47.63.63,0,0,0,.92-.38,3.2,3.2,0,0,0,.11-1.07l-1.23.17a1.48,1.48,0,0,0,.43,1,.62.62,0,0,0,1.07,0,.93.93,0,0,0,.11-1c-.22-.61-1.31-.59-1.23.17a2,2,0,0,0,.9,1.57.65.65,0,0,0,.86-.23.93.93,0,1,0-1.65-.77,1.09,1.09,0,0,0,.86,1.33,2.71,2.71,0,0,0,1.06-.11,11.7,11.7,0,0,1,3.29,0v-1.25l-3,.34a.63.63,0,0,0,0,1.25,11.15,11.15,0,0,0,5.67-.89c.47-.21.33-.84,0-1.08a5.68,5.68,0,0,0-2.78-1.13c-1.11-.12-3,.77-3.93.25l.13,1c1.91-1.49,3.14,0,4.82.73l.32-1.17a6.91,6.91,0,0,1-2.17-.21.63.63,0,0,0-.33,1.21l1.4.37L337,343l-1.61-.25A.63.63,0,0,0,335,344l1.1.37c.61.21,1-.61.61-1a3.39,3.39,0,0,0-.86-.7l-.32,1.16,2-.18c.65-.07.92-1.09.17-1.23l-.46-.09-.16,1.22h.39a.63.63,0,0,0,0-1.25h-.39c-.69,0-.88,1.09-.17,1.23l.46.09.16-1.22-2,.18a.63.63,0,0,0-.31,1.17l.6.5.61-1-1.1-.38L335,344l1.61.24c.77.12,1.13-1,.33-1.2l-1.4-.38-.33,1.21a8.09,8.09,0,0,0,2.5.25c.56,0,.92-.89.31-1.16-1.15-.52-1.92-1.43-3.24-1.55a4.33,4.33,0,0,0-3.1,1,.63.63,0,0,0,.13,1,3,3,0,0,0,2.36.16,4.8,4.8,0,0,1,4.35.72v-1.08a10,10,0,0,1-5,.72v1.25l3-.34a.63.63,0,0,0,0-1.25,15,15,0,0,0-2.32-.14,11.48,11.48,0,0,0-2.32.32l.85-.22-.28-.49-1.22.16,0,0h1.07l-.3-.71c-.11-.7-1.25-.53-1.22.16l-.07.74.92-.37-.23-.39c-.1-.78-1.29-.83-1.25,0l-.07.38,1.22.17,0-.34c-.09-.79-1.34-.8-1.25,0Z"/><path class="cls-11" d="M359.55,343.33a10.51,10.51,0,0,0-3.39-2.94A33.78,33.78,0,0,0,351,338.9a.63.63,0,0,0-.6,1.05c2,2.5,4.59,5.06,8.08,4.12a.63.63,0,0,0,.28-1,11.86,11.86,0,0,0-5.15-3.09A.63.63,0,0,0,353,341a8.27,8.27,0,0,0,3.25,2.29c.63.25,1-.63.61-1a6.12,6.12,0,0,0-3.38-1.95.63.63,0,0,0-.61,1,5.1,5.1,0,0,0,3.48,1.78c.7.08.74-.84.32-1.16l-3.4-2.61-.15,1.14c2.39-.58,4,1.47,5.23,3.19.46.64,1.55,0,1.08-.64-1.61-2.22-3.62-4.49-6.64-3.75a.63.63,0,0,0-.15,1.14L356,343l.31-1.17a3.82,3.82,0,0,1-2.6-1.42l-.61,1.05a5,5,0,0,1,2.84,1.62l.61-1a6.93,6.93,0,0,1-2.71-2l-.61,1a10.58,10.58,0,0,1,4.61,2.76l.27-1c-3,.8-5.18-1.71-6.87-3.81l-.61,1.05a39.89,39.89,0,0,1,4.7,1.31,9,9,0,0,1,3.31,2.79c.52.62,1.4-.27.89-.88Z"/><path class="cls-11" d="M350.41,355c0-2,4.63-2.3,6.07-2.46l-.62-.62c0,1.12-1.92,2.07-2.81,2.43a7.37,7.37,0,0,1-3.54.47l.54.94a3.82,3.82,0,0,1,2.52-1.46,1.79,1.79,0,0,0,1.18-.83c.32-.51-.33-1.22-.85-.86a2.7,2.7,0,0,0-1.12,1.49.63.63,0,0,0,.76.77,2.33,2.33,0,0,0,1.68-2.12.63.63,0,0,0-.94-.54,3.11,3.11,0,0,0-1.41,1.81l.77-.44a1.65,1.65,0,0,0-1.78.5.63.63,0,0,0,.28,1,1.48,1.48,0,0,0,1.92-1,.63.63,0,0,0-.61-.79,1.31,1.31,0,0,0-1.46,1.33.63.63,0,0,0,.46.6,2.18,2.18,0,0,0,2.7-2.1l-1.23.17a1.23,1.23,0,1,0,2.18-1,.63.63,0,0,0-1-.12,1.46,1.46,0,0,0-.55,1.23.63.63,0,0,0,1.07.44,2.07,2.07,0,0,0,.48-.84.65.65,0,0,0-.29-.71.86.86,0,0,0-.86-.13.63.63,0,0,0-.46.6,1.44,1.44,0,0,0,.68,1.2.62.62,0,0,0,.85-.22l.38-.67a.63.63,0,0,0-.37-.92,1.16,1.16,0,0,0-.64,0,.63.63,0,0,0-.44.44l-.05.14a.6.6,0,0,0,.16.61l.1.08c.61.5,1.5-.38.88-.89l-.1-.08.16.61.05-.14-.43.44,0,0-.38-.91-.38.67.86-.23-.06-.12-.46.6h-.1l-.29-.7-.15.29,1.06.44.18-.35-1-.13.11.05a.63.63,0,0,0-1.23.16l-1.11.9.45.6.21-.08-.6-.8-.38.15.28,1.05.56-.17a.63.63,0,0,0,.77-.44,1.5,1.5,0,0,1,.83-1.06l-.94-.54-.76.91.77.77.55-.74-.86-.85c-.29.47-1.58.5-2.1.79a4.78,4.78,0,0,0-1.6,1.5c-.3.42.11.9.54.94a8.45,8.45,0,0,0,4.88-1c1.15-.63,2.76-1.72,2.72-3.18a.64.64,0,0,0-.63-.63c-2.33.25-7.27.49-7.32,3.71a.63.63,0,0,0,1.25,0Z"/><path class="cls-12" d="M452,372.63l3.32-4.48c1.51-2,2.69-3.24,5.22-3.79,3.45-.76,6.93-1.41,10.4-2.05,7.51-1.39,15-2,22.59-3a68.93,68.93,0,0,0,34.28-14.69c.55-.44-.23-1.21-.77-.77a68,68,0,0,1-18.79,10.71,79.48,79.48,0,0,1-20.54,4.26c-7.19.69-14.31,1.89-21.4,3.28-2.84.56-6.73.66-9.17,2.33s-4.31,5.26-6.09,7.67c-.42.57.53,1.12.95.55Z"/><path class="cls-12" d="M527.88,344.21a12.1,12.1,0,0,1,9.37-10.79.55.55,0,0,0-.29-1.06,13.18,13.18,0,0,0-10.17,11.85c-.07.7,1,.69,1.09,0Z"/><path class="cls-12" d="M527.76,344.54a13.73,13.73,0,0,0,7-4.24c1.67-1.94,3.5-5,3.34-7.62,0-.7-1.13-.71-1.09,0,.14,2.48-1.8,5.58-3.47,7.34a12.75,12.75,0,0,1-6,3.46.55.55,0,0,0,.29,1.06Z"/><path class="cls-12" d="M518.23,350.48c-.45-2.26-1.28-4.69-.65-7a8.72,8.72,0,0,1,3.9-5c.6-.37,0-1.32-.55-1a9.94,9.94,0,0,0-4.2,5.06c-1,2.74-.11,5.45.44,8.2.14.69,1.2.39,1.06-.3Z"/><path class="cls-12" d="M521.23,338.31a9.5,9.5,0,0,1,.34,7.21c-.81,1.83-2.49,3-4.06,4.18-.57.41,0,1.36.55.94,1.87-1.35,3.86-2.82,4.7-5.06a10.81,10.81,0,0,0-.59-7.82c-.32-.63-1.26-.08-.94.55Z"/><path class="cls-12" d="M500,358.11c11.49-.83,23.29-1,34.5-3.93A77.76,77.76,0,0,0,549,348.85c4.09-2,9.33-4.23,11.58-8.43.33-.62-.61-1.17-.95-.55-2.28,4.26-8.11,6.62-12.31,8.57a76.21,76.21,0,0,1-14.69,5.08C522,356,510.85,356.23,500,357c-.7.05-.71,1.15,0,1.1Z"/><path class="cls-12" d="M553,346.83a45.52,45.52,0,0,0,9.77-1.82c.67-.22.38-1.28-.29-1.06a43.47,43.47,0,0,1-9.48,1.78c-.69.08-.7,1.17,0,1.1Z"/><path class="cls-12" d="M563.55,344.54c1.18-1.49,2.3-3.45,4-4.41s4.21-.81,6.24-.77a.55.55,0,0,0,0-1.09c-2,0-4.58-.24-6.48.64s-3.22,3.24-4.5,4.86c-.43.54.34,1.32.77.77Z"/><path class="cls-12" d="M563.25,345c2.27.49,4.7.66,6.8-.54s3.18-3.17,4.27-5.09a.54.54,0,0,0-.94-.55,13.68,13.68,0,0,1-3.2,4.22c-2,1.51-4.35,1.4-6.64.9-.69-.15-1,.91-.29,1.06Z"/><path class="cls-12" d="M520.17,356.64a8.59,8.59,0,0,1,5.09,5.12c.24.66,1.3.38,1.06-.29a9.82,9.82,0,0,0-5.85-5.89c-.67-.24-1,.82-.3,1.06Z"/><path class="cls-12" d="M541.2,352.09c7.48,1.62,15.52,1,23.06,0,6.83-.91,13.48-2.81,19-7.08.55-.43-.23-1.2-.78-.77-5.58,4.33-12.5,6.09-19.41,6.9-7.08.84-14.56,1.4-21.57-.12-.69-.14-1,.91-.29,1.06Z"/><path class="cls-12" d="M583.23,345.22c1.23-1.5,2.11-2.87,4.21-3.21a10,10,0,0,1,5.74,1.26c.64.29,1.19-.65.55-.95a11.26,11.26,0,0,0-6.44-1.42c-2.39.38-3.39,1.78-4.84,3.54-.44.54.33,1.32.78.78Z"/><path class="cls-12" d="M583.22,345.23c3.78,1.16,8.25,1.81,11.08-1.59.45-.54-.32-1.32-.78-.77-2.58,3.09-6.6,2.35-10,1.31-.67-.21-1,.85-.29,1.05Z"/><path class="cls-12" d="M565.31,352.06a7.62,7.62,0,0,0,9.48,4.38c.65-.25.37-1.31-.29-1.05a6.54,6.54,0,0,1-8.13-3.62c-.25-.65-1.31-.37-1.06.29Z"/><path class="cls-12" d="M575.15,356c.49-4.23-5.84-5.27-8.84-5-.7.06-.7,1.16,0,1.1,2.37-.2,8.15.41,7.75,3.92-.08.7,1,.69,1.09,0Z"/><path class="cls-12" d="M532.41,354.7a17.93,17.93,0,0,1,8.51,2.42c1.94,1.23,1.77,3.73,3.06,5.57,2.14,3,6.47,2.2,9.33.72.62-.32.07-1.27-.56-.94-2.67,1.38-6.38,2-8.2-.94-.86-1.4-.67-3.39-1.83-4.55-2.4-2.41-7.11-3.2-10.31-3.38-.71,0-.71,1.06,0,1.1Z"/><path class="cls-12" d="M543.54,359.18c1.78-.23,3.63-.47,5.24.5a11.78,11.78,0,0,1,3.69,3.33c.4.58,1.35,0,.95-.55a13.23,13.23,0,0,0-4.08-3.73c-1.8-1.07-3.8-.91-5.8-.64-.69.09-.7,1.18,0,1.09Z"/><path d="M471.43,372.63l-3.32-4.48c-1.51-2-2.69-3.24-5.22-3.79-3.45-.76-6.93-1.41-10.4-2.05-7.51-1.39-15-2-22.59-3a69,69,0,0,1-34.29-14.69c-.55-.44.23-1.21.78-.77a68,68,0,0,0,18.79,10.71,79.5,79.5,0,0,0,20.53,4.26c7.2.69,14.32,1.89,21.41,3.28,2.84.56,6.73.66,9.17,2.33s4.3,5.26,6.08,7.67c.42.57-.53,1.12-.94.55Z"/><path d="M395.5,344.21a12.1,12.1,0,0,0-9.37-10.79.55.55,0,0,1,.29-1.06,13.18,13.18,0,0,1,10.17,11.85c.07.7-1,.69-1.09,0Z"/><path d="M395.62,344.54a13.69,13.69,0,0,1-6.95-4.24c-1.67-1.94-3.5-5-3.34-7.62,0-.7,1.13-.71,1.09,0-.14,2.48,1.8,5.58,3.47,7.34a12.65,12.65,0,0,0,6,3.46.55.55,0,0,1-.29,1.06Z"/><path d="M405.15,350.48c.45-2.26,1.28-4.69.65-7a8.76,8.76,0,0,0-3.9-5c-.6-.37,0-1.32.55-1a10,10,0,0,1,4.2,5.06c1,2.74.11,5.45-.45,8.2-.13.69-1.19.39-1.05-.3Z"/><path d="M402.15,338.31a9.5,9.5,0,0,0-.34,7.21c.81,1.83,2.49,3,4.06,4.18.56.41,0,1.36-.55.94-1.87-1.35-3.86-2.82-4.7-5.06a10.81,10.81,0,0,1,.59-7.82c.31-.63,1.26-.08.94.55Z"/><path d="M423.38,358.11c-11.49-.83-23.29-1-34.5-3.93a77.76,77.76,0,0,1-14.47-5.33c-4.09-2-9.33-4.23-11.58-8.43-.33-.62.61-1.17.95-.55,2.28,4.26,8.11,6.62,12.3,8.57a76.3,76.3,0,0,0,14.7,5.08c10.62,2.51,21.75,2.71,32.6,3.49.7.05.71,1.15,0,1.1Z"/><path d="M370.42,346.83a45.72,45.72,0,0,1-9.78-1.82c-.66-.22-.37-1.28.3-1.06a43.47,43.47,0,0,0,9.48,1.78c.69.08.7,1.17,0,1.1Z"/><path d="M359.83,344.54c-1.19-1.49-2.3-3.45-4-4.41s-4.21-.81-6.24-.77a.55.55,0,0,1,0-1.09c2,0,4.57-.24,6.48.64s3.22,3.24,4.5,4.86c.43.54-.34,1.32-.77.77Z"/><path d="M360.13,345c-2.28.49-4.7.66-6.8-.54s-3.18-3.17-4.27-5.09a.54.54,0,0,1,.94-.55,13.52,13.52,0,0,0,3.2,4.22c2,1.51,4.34,1.4,6.64.9.69-.15,1,.91.29,1.06Z"/><path d="M403.2,356.64a8.6,8.6,0,0,0-5.08,5.12c-.24.66-1.3.38-1.06-.29a9.82,9.82,0,0,1,5.85-5.89c.66-.24.95.82.29,1.06Z"/><path d="M382.18,352.09c-7.48,1.62-15.52,1-23.06,0-6.83-.91-13.48-2.81-19-7.08-.56-.43.22-1.2.77-.77,5.59,4.33,12.51,6.09,19.42,6.9,7.07.84,14.56,1.4,21.57-.12.69-.14,1,.91.29,1.06Z"/><path d="M340.15,345.22c-1.23-1.5-2.11-2.87-4.21-3.21a10,10,0,0,0-5.74,1.26c-.64.29-1.19-.65-.55-.95a11.26,11.26,0,0,1,6.44-1.42c2.39.38,3.39,1.78,4.84,3.54.44.54-.33,1.32-.78.78Z"/><path d="M340.16,345.23c-3.78,1.16-8.25,1.81-11.08-1.59-.45-.54.32-1.32.78-.77,2.57,3.09,6.6,2.35,10,1.31a.55.55,0,0,1,.3,1.05Z"/><path d="M358.07,352.06a7.62,7.62,0,0,1-9.48,4.38c-.65-.25-.37-1.31.29-1.05a6.54,6.54,0,0,0,8.13-3.62c.25-.65,1.31-.37,1.06.29Z"/><path d="M348.23,356c-.49-4.23,5.84-5.27,8.84-5,.69.06.7,1.16,0,1.1-2.37-.2-8.15.41-7.75,3.92.08.7-1,.69-1.09,0Z"/><path d="M391,354.7a17.93,17.93,0,0,0-8.51,2.42c-1.94,1.23-1.77,3.73-3.07,5.57-2.13,3-6.46,2.2-9.32.72-.62-.32-.07-1.27.56-.94,2.67,1.38,6.38,2,8.2-.94.86-1.4.67-3.39,1.83-4.55,2.4-2.41,7.11-3.2,10.31-3.38.71,0,.7,1.06,0,1.1Z"/><path d="M379.84,359.18c-1.78-.23-3.63-.47-5.25.5A12,12,0,0,0,370.9,363c-.39.58-1.34,0-.94-.55a13.23,13.23,0,0,1,4.08-3.73c1.8-1.07,3.8-.91,5.8-.64.69.09.7,1.18,0,1.09Z"/><line class="cls-13" x1="299" y1="14" x2="24.5" y2="288.5"/><line class="cls-13" x1="615.5" y1="14" x2="890" y2="288.5"/><rect class="cls-14" x="735" y="353" width="154" height="7" rx="3.5" ry="3.5"/><rect class="cls-14" x="800.25" y="365" width="88.75" height="7" rx="2.66" ry="2.66"/></g></g></svg>