<svg xmlns="http://www.w3.org/2000/svg" viewBox="0 0 1370.58 1371.35"><defs><style>.cls-1{fill:#f42c72;}.cls-1,.cls-2,.cls-3,.cls-4,.cls-5,.cls-6,.cls-7{stroke:#000;stroke-miterlimit:10;}.cls-1,.cls-5,.cls-6,.cls-7{stroke-width:8px;}.cls-2,.cls-6,.cls-8{fill:#fff;}.cls-2{stroke-width:6.2px;}.cls-3{fill:#fed000;}.cls-3,.cls-4{stroke-width:7px;}.cls-4{fill:none;}.cls-5{fill:#75e5d1;}.cls-7{fill:#193441;}</style></defs><title>formas2</title><g id="Capa_2" data-name="Capa 2"><g id="aside2"><rect class="cls-1" x="8.44" y="4" width="1358.14" height="1358.14"/><circle cx="76.43" cy="59.34" r="7.39"/><circle cx="140.76" cy="59.34" r="7.39"/><circle cx="205.08" cy="59.34" r="7.39"/><circle cx="269.4" cy="59.34" r="7.39"/><circle cx="333.73" cy="59.34" r="7.39"/><circle cx="398.05" cy="59.34" r="7.39"/><circle cx="462.37" cy="59.34" r="7.39"/><circle cx="526.7" cy="59.34" r="7.39"/><circle cx="591.02" cy="59.34" r="7.39"/><circle cx="655.34" cy="59.34" r="7.39"/><circle cx="719.67" cy="59.34" r="7.39"/><circle cx="783.99" cy="59.34" r="7.39"/><circle cx="848.31" cy="59.34" r="7.39"/><circle cx="912.64" cy="59.34" r="7.39"/><circle cx="976.96" cy="59.34" r="7.39"/><circle cx="1041.28" cy="59.34" r="7.39"/><circle cx="1105.61" cy="59.34" r="7.39"/><circle cx="1169.93" cy="59.34" r="7.39"/><circle cx="1234.25" cy="59.34" r="7.39"/><circle cx="1298.58" cy="59.34" r="7.39"/><circle cx="76.43" cy="126.13" r="7.39"/><circle cx="140.76" cy="126.13" r="7.39"/><circle cx="205.08" cy="126.13" r="7.39"/><circle cx="269.4" cy="126.13" r="7.39"/><circle cx="333.73" cy="126.13" r="7.39"/><circle cx="398.05" cy="126.13" r="7.39"/><circle cx="462.37" cy="126.13" r="7.39"/><circle cx="526.7" cy="126.13" r="7.39"/><circle cx="591.02" cy="126.13" r="7.39"/><circle cx="655.34" cy="126.13" r="7.39"/><circle cx="719.67" cy="126.13" r="7.39"/><circle cx="783.99" cy="126.13" r="7.39"/><circle cx="848.31" cy="126.13" r="7.39"/><circle cx="912.64" cy="126.13" r="7.39"/><circle cx="976.96" cy="126.13" r="7.39"/><circle cx="1041.28" cy="126.13" r="7.39"/><circle cx="1105.61" cy="126.13" r="7.39"/><circle cx="1169.93" cy="126.13" r="7.39"/><circle cx="1234.25" cy="126.13" r="7.39"/><circle cx="1298.58" cy="126.13" r="7.39"/><circle cx="76.43" cy="192.92" r="7.39"/><circle cx="140.76" cy="192.92" r="7.39"/><circle cx="205.08" cy="192.92" r="7.39"/><circle cx="269.4" cy="192.92" r="7.39"/><circle cx="333.73" cy="192.92" r="7.39"/><circle cx="398.05" cy="192.92" r="7.39"/><circle cx="462.37" cy="192.92" r="7.39"/><circle cx="526.7" cy="192.92" r="7.39"/><circle cx="591.02" cy="192.92" r="7.39"/><circle cx="655.34" cy="192.92" r="7.39"/><circle cx="719.67" cy="192.92" r="7.39"/><circle cx="783.99" cy="192.92" r="7.39"/><circle cx="848.31" cy="192.92" r="7.39"/><circle cx="912.64" cy="192.92" r="7.39"/><circle cx="976.96" cy="192.92" r="7.39"/><circle cx="1041.28" cy="192.92" r="7.39"/><circle cx="1105.61" cy="192.92" r="7.39"/><circle cx="1169.93" cy="192.92" r="7.39"/><circle cx="1234.25" cy="192.92" r="7.39"/><circle cx="1298.58" cy="192.92" r="7.39"/><circle cx="76.43" cy="259.71" r="7.39"/><circle cx="140.76" cy="259.71" r="7.39"/><circle cx="205.08" cy="259.71" r="7.39"/><circle cx="269.4" cy="259.71" r="7.39"/><circle cx="333.73" cy="259.71" r="7.39"/><circle cx="398.05" cy="259.71" r="7.39"/><circle cx="462.37" cy="259.71" r="7.39"/><circle cx="526.7" cy="259.71" r="7.39"/><circle cx="591.02" cy="259.71" r="7.39"/><circle cx="655.34" cy="259.71" r="7.39"/><circle cx="719.67" cy="259.71" r="7.39"/><circle cx="783.99" cy="259.71" r="7.39"/><circle cx="848.31" cy="259.71" r="7.39"/><circle cx="912.64" cy="259.71" r="7.39"/><circle cx="976.96" cy="259.71" r="7.39"/><circle cx="1041.28" cy="259.71" r="7.39"/><circle cx="1105.61" cy="259.71" r="7.39"/><circle cx="1169.93" cy="259.71" r="7.39"/><circle cx="1234.25" cy="259.71" r="7.39"/><circle cx="1298.58" cy="259.71" r="7.39"/><circle cx="76.43" cy="326.49" r="7.39"/><circle cx="140.76" cy="326.49" r="7.39"/><circle cx="205.08" cy="326.49" r="7.39"/><circle cx="269.4" cy="326.49" r="7.39"/><circle cx="333.73" cy="326.49" r="7.39"/><circle cx="398.05" cy="326.49" r="7.39"/><circle cx="462.37" cy="326.49" r="7.39"/><circle cx="526.7" cy="326.49" r="7.39"/><circle cx="591.02" cy="326.49" r="7.39"/><circle cx="655.34" cy="326.49" r="7.39"/><circle cx="719.67" cy="326.49" r="7.39"/><circle cx="783.99" cy="326.49" r="7.39"/><circle cx="848.31" cy="326.49" r="7.39"/><circle cx="912.64" cy="326.49" r="7.39"/><circle cx="976.96" cy="326.49" r="7.39"/><circle cx="1041.28" cy="326.49" r="7.39"/><circle cx="1105.61" cy="326.49" r="7.39"/><circle cx="1169.93" cy="326.49" r="7.39"/><circle cx="1234.25" cy="326.49" r="7.39"/><circle cx="1298.58" cy="326.49" r="7.39"/><circle cx="76.43" cy="393.28" r="7.39"/><circle cx="140.76" cy="393.28" r="7.39"/><circle cx="205.08" cy="393.28" r="7.39"/><circle cx="269.4" cy="393.28" r="7.39"/><circle cx="333.73" cy="393.28" r="7.39"/><circle cx="398.05" cy="393.28" r="7.39"/><circle cx="462.37" cy="393.28" r="7.39"/><circle cx="526.7" cy="393.28" r="7.39"/><circle cx="591.02" cy="393.28" r="7.39"/><circle cx="655.34" cy="393.28" r="7.39"/><circle cx="719.67" cy="393.28" r="7.39"/><circle cx="783.99" cy="393.28" r="7.39"/><circle cx="848.31" cy="393.28" r="7.39"/><circle cx="912.64" cy="393.28" r="7.39"/><circle cx="976.96" cy="393.28" r="7.39"/><circle cx="1041.28" cy="393.28" r="7.39"/><circle cx="1105.61" cy="393.28" r="7.39"/><circle cx="1169.93" cy="393.28" r="7.39"/><circle cx="1234.25" cy="393.28" r="7.39"/><circle cx="1298.58" cy="393.28" r="7.39"/><circle cx="76.43" cy="460.07" r="7.39"/><circle cx="140.76" cy="460.07" r="7.39"/><circle cx="205.08" cy="460.07" r="7.39"/><circle cx="269.4" cy="460.07" r="7.39"/><circle cx="333.73" cy="460.07" r="7.39"/><circle cx="398.05" cy="460.07" r="7.39"/><circle cx="462.37" cy="460.07" r="7.39"/><circle cx="526.7" cy="460.07" r="7.39"/><circle cx="591.02" cy="460.07" r="7.39"/><circle cx="655.34" cy="460.07" r="7.39"/><circle cx="719.67" cy="460.07" r="7.39"/><circle cx="783.99" cy="460.07" r="7.39"/><circle cx="848.31" cy="460.07" r="7.39"/><circle cx="912.64" cy="460.07" r="7.39"/><circle cx="976.96" cy="460.07" r="7.39"/><circle cx="1041.28" cy="460.07" r="7.39"/><circle cx="1105.61" cy="460.07" r="7.39"/><circle cx="1169.93" cy="460.07" r="7.39"/><circle cx="1234.25" cy="460.07" r="7.39"/><circle cx="1298.58" cy="460.07" r="7.39"/><circle cx="76.43" cy="526.86" r="7.39"/><circle cx="140.76" cy="526.86" r="7.39"/><circle cx="205.08" cy="526.86" r="7.39"/><circle cx="269.4" cy="526.86" r="7.39"/><circle cx="333.73" cy="526.86" r="7.39"/><circle cx="398.05" cy="526.86" r="7.39"/><circle cx="462.37" cy="526.86" r="7.39"/><circle cx="526.7" cy="526.86" r="7.39"/><circle cx="591.02" cy="526.86" r="7.39"/><circle cx="655.34" cy="526.86" r="7.39"/><circle cx="719.67" cy="526.86" r="7.39"/><circle cx="783.99" cy="526.86" r="7.39"/><circle cx="848.31" cy="526.86" r="7.39"/><circle cx="912.64" cy="526.86" r="7.39"/><circle cx="976.96" cy="526.86" r="7.39"/><circle cx="1041.28" cy="526.86" r="7.39"/><circle cx="1105.61" cy="526.86" r="7.39"/><circle cx="1169.93" cy="526.86" r="7.39"/><circle cx="1234.25" cy="526.86" r="7.39"/><circle cx="1298.58" cy="526.86" r="7.39"/><circle cx="76.43" cy="593.64" r="7.39"/><circle cx="140.76" cy="593.64" r="7.39"/><circle cx="205.08" cy="593.64" r="7.39"/><circle cx="269.4" cy="593.64" r="7.39"/><circle cx="333.73" cy="593.64" r="7.39"/><circle cx="398.05" cy="593.64" r="7.39"/><circle cx="462.37" cy="593.64" r="7.39"/><circle cx="526.7" cy="593.64" r="7.39"/><circle cx="591.02" cy="593.64" r="7.39"/><circle cx="655.34" cy="593.64" r="7.39"/><circle cx="719.67" cy="593.64" r="7.39"/><circle cx="783.99" cy="593.64" r="7.39"/><circle cx="848.31" cy="593.64" r="7.39"/><circle cx="912.64" cy="593.64" r="7.39"/><circle cx="976.96" cy="593.64" r="7.39"/><circle cx="1041.28" cy="593.64" r="7.39"/><circle cx="1105.61" cy="593.64" r="7.39"/><circle cx="1169.93" cy="593.64" r="7.39"/><circle cx="1234.25" cy="593.64" r="7.39"/><circle cx="1298.58" cy="593.64" r="7.39"/><circle cx="76.43" cy="660.43" r="7.39"/><circle cx="140.76" cy="660.43" r="7.39"/><circle cx="205.08" cy="660.43" r="7.39"/><circle cx="269.4" cy="660.43" r="7.39"/><circle cx="333.73" cy="660.43" r="7.39"/><circle cx="398.05" cy="660.43" r="7.39"/><circle cx="462.37" cy="660.43" r="7.39"/><circle cx="526.7" cy="660.43" r="7.39"/><circle cx="591.02" cy="660.43" r="7.39"/><circle cx="655.34" cy="660.43" r="7.39"/><circle cx="719.67" cy="660.43" r="7.39"/><circle cx="783.99" cy="660.43" r="7.39"/><circle cx="848.31" cy="660.43" r="7.39"/><circle cx="912.64" cy="660.43" r="7.39"/><circle cx="976.96" cy="660.43" r="7.39"/><circle cx="1041.28" cy="660.43" r="7.39"/><circle cx="1105.61" cy="660.43" r="7.39"/><circle cx="1169.93" cy="660.43" r="7.39"/><circle cx="1234.25" cy="660.43" r="7.39"/><circle cx="1298.58" cy="660.43" r="7.39"/><circle cx="76.43" cy="727.22" r="7.39"/><circle cx="140.76" cy="727.22" r="7.39"/><circle cx="205.08" cy="727.22" r="7.39"/><circle cx="269.4" cy="727.22" r="7.39"/><circle cx="333.73" cy="727.22" r="7.39"/><circle cx="398.05" cy="727.22" r="7.39"/><circle cx="462.37" cy="727.22" r="7.39"/><circle cx="526.7" cy="727.22" r="7.39"/><circle cx="591.02" cy="727.22" r="7.39"/><circle cx="655.34" cy="727.22" r="7.39"/><circle cx="719.67" cy="727.22" r="7.39"/><circle cx="783.99" cy="727.22" r="7.39"/><circle cx="848.31" cy="727.22" r="7.39"/><circle cx="912.64" cy="727.22" r="7.39"/><circle cx="976.96" cy="727.22" r="7.39"/><circle cx="1041.28" cy="727.22" r="7.39"/><circle cx="1105.61" cy="727.22" r="7.39"/><circle cx="1169.93" cy="727.22" r="7.39"/><circle cx="1234.25" cy="727.22" r="7.39"/><circle cx="1298.58" cy="727.22" r="7.39"/><circle cx="76.43" cy="794.01" r="7.39"/><circle cx="140.76" cy="794.01" r="7.39"/><circle cx="205.08" cy="794.01" r="7.39"/><circle cx="269.4" cy="794.01" r="7.39"/><circle cx="333.73" cy="794.01" r="7.39"/><circle cx="398.05" cy="794.01" r="7.39"/><circle cx="462.37" cy="794.01" r="7.39"/><circle cx="526.7" cy="794.01" r="7.39"/><circle cx="591.02" cy="794.01" r="7.39"/><circle cx="655.34" cy="794.01" r="7.39"/><circle cx="719.67" cy="794.01" r="7.39"/><circle cx="783.99" cy="794.01" r="7.39"/><circle cx="848.31" cy="794.01" r="7.39"/><circle cx="912.64" cy="794.01" r="7.39"/><circle cx="976.96" cy="794.01" r="7.39"/><circle cx="1041.28" cy="794.01" r="7.39"/><circle cx="1105.61" cy="794.01" r="7.39"/><circle cx="1169.93" cy="794.01" r="7.39"/><circle cx="1234.25" cy="794.01" r="7.39"/><circle cx="1298.58" cy="794.01" r="7.39"/><circle cx="76.43" cy="860.79" r="7.39"/><circle cx="140.76" cy="860.79" r="7.39"/><circle cx="205.08" cy="860.79" r="7.39"/><circle cx="269.4" cy="860.79" r="7.39"/><circle cx="333.73" cy="860.79" r="7.39"/><circle cx="398.05" cy="860.79" r="7.39"/><circle cx="462.37" cy="860.79" r="7.39"/><circle cx="526.7" cy="860.79" r="7.39"/><circle cx="591.02" cy="860.79" r="7.39"/><circle cx="655.34" cy="860.79" r="7.39"/><circle cx="719.67" cy="860.79" r="7.39"/><circle cx="783.99" cy="860.79" r="7.39"/><circle cx="848.31" cy="860.79" r="7.39"/><circle cx="912.64" cy="860.79" r="7.39"/><circle cx="976.96" cy="860.79" r="7.39"/><circle cx="1041.28" cy="860.79" r="7.39"/><circle cx="1105.61" cy="860.79" r="7.39"/><circle cx="1169.93" cy="860.79" r="7.39"/><circle cx="1234.25" cy="860.79" r="7.39"/><circle cx="1298.58" cy="860.79" r="7.39"/><circle cx="76.43" cy="927.58" r="7.39"/><circle cx="140.76" cy="927.58" r="7.39"/><circle cx="205.08" cy="927.58" r="7.39"/><circle cx="269.4" cy="927.58" r="7.39"/><circle cx="333.73" cy="927.58" r="7.39"/><circle cx="398.05" cy="927.58" r="7.39"/><circle cx="462.37" cy="927.58" r="7.39"/><circle cx="526.7" cy="927.58" r="7.39"/><circle cx="591.02" cy="927.58" r="7.39"/><circle cx="655.34" cy="927.58" r="7.39"/><circle cx="719.67" cy="927.58" r="7.39"/><circle cx="783.99" cy="927.58" r="7.39"/><circle cx="848.31" cy="927.58" r="7.39"/><circle cx="912.64" cy="927.58" r="7.39"/><circle cx="976.96" cy="927.58" r="7.39"/><circle cx="1041.28" cy="927.58" r="7.39"/><circle cx="1105.61" cy="927.58" r="7.39"/><circle cx="1169.93" cy="927.58" r="7.39"/><circle cx="1234.25" cy="927.58" r="7.39"/><circle cx="1298.58" cy="927.58" r="7.39"/><circle cx="76.43" cy="994.37" r="7.39"/><circle cx="140.76" cy="994.37" r="7.39"/><circle cx="205.08" cy="994.37" r="7.39"/><circle cx="269.4" cy="994.37" r="7.39"/><circle cx="333.73" cy="994.37" r="7.39"/><circle cx="398.05" cy="994.37" r="7.39"/><circle cx="462.37" cy="994.37" r="7.39"/><circle cx="526.7" cy="994.37" r="7.39"/><circle cx="591.02" cy="994.37" r="7.39"/><circle cx="655.34" cy="994.37" r="7.39"/><circle cx="719.67" cy="994.37" r="7.39"/><circle cx="783.99" cy="994.37" r="7.39"/><circle cx="848.31" cy="994.37" r="7.39"/><circle cx="912.64" cy="994.37" r="7.39"/><circle cx="976.96" cy="994.37" r="7.39"/><circle cx="1041.28" cy="994.37" r="7.39"/><circle cx="1105.61" cy="994.37" r="7.39"/><circle cx="1169.93" cy="994.37" r="7.39"/><circle cx="1234.25" cy="994.37" r="7.39"/><circle cx="1298.58" cy="994.37" r="7.39"/><circle cx="76.43" cy="1061.16" r="7.39"/><circle cx="140.76" cy="1061.16" r="7.39"/><circle cx="205.08" cy="1061.16" r="7.39"/><circle cx="269.4" cy="1061.16" r="7.39"/><circle cx="333.73" cy="1061.16" r="7.39"/><circle cx="398.05" cy="1061.16" r="7.39"/><circle cx="462.37" cy="1061.16" r="7.39"/><circle cx="526.7" cy="1061.16" r="7.39"/><circle cx="591.02" cy="1061.16" r="7.39"/><circle cx="655.34" cy="1061.16" r="7.39"/><circle cx="719.67" cy="1061.16" r="7.39"/><circle cx="783.99" cy="1061.16" r="7.39"/><circle cx="848.31" cy="1061.16" r="7.39"/><circle cx="912.64" cy="1061.16" r="7.39"/><circle cx="976.96" cy="1061.16" r="7.39"/><circle cx="1041.28" cy="1061.16" r="7.39"/><circle cx="1105.61" cy="1061.16" r="7.39"/><circle cx="1169.93" cy="1061.16" r="7.39"/><circle cx="1234.25" cy="1061.16" r="7.39"/><circle cx="1298.58" cy="1061.16" r="7.39"/><circle cx="76.43" cy="1127.94" r="7.39"/><circle cx="140.76" cy="1127.94" r="7.39"/><circle cx="205.08" cy="1127.94" r="7.39"/><circle cx="269.4" cy="1127.94" r="7.39"/><circle cx="333.73" cy="1127.94" r="7.39"/><circle cx="398.05" cy="1127.94" r="7.39"/><circle cx="462.37" cy="1127.94" r="7.39"/><circle cx="526.7" cy="1127.94" r="7.39"/><circle cx="591.02" cy="1127.94" r="7.39"/><circle cx="655.34" cy="1127.94" r="7.39"/><circle cx="719.67" cy="1127.94" r="7.39"/><circle cx="783.99" cy="1127.94" r="7.39"/><circle cx="848.31" cy="1127.94" r="7.39"/><circle cx="912.64" cy="1127.94" r="7.39"/><circle cx="976.96" cy="1127.94" r="7.39"/><circle cx="1041.28" cy="1127.94" r="7.39"/><circle cx="1105.61" cy="1127.94" r="7.39"/><circle cx="1169.93" cy="1127.94" r="7.39"/><circle cx="1234.25" cy="1127.94" r="7.39"/><circle cx="1298.58" cy="1127.94" r="7.39"/><circle cx="76.43" cy="1194.73" r="7.39"/><circle cx="140.76" cy="1194.73" r="7.39"/><circle cx="205.08" cy="1194.73" r="7.39"/><circle cx="269.4" cy="1194.73" r="7.39"/><circle cx="333.73" cy="1194.73" r="7.39"/><circle cx="398.05" cy="1194.73" r="7.39"/><circle cx="462.37" cy="1194.73" r="7.39"/><circle cx="526.7" cy="1194.73" r="7.39"/><circle cx="591.02" cy="1194.73" r="7.39"/><circle cx="655.34" cy="1194.73" r="7.39"/><circle cx="719.67" cy="1194.73" r="7.39"/><circle cx="783.99" cy="1194.73" r="7.39"/><circle cx="848.31" cy="1194.73" r="7.39"/><circle cx="912.64" cy="1194.73" r="7.39"/><circle cx="976.96" cy="1194.73" r="7.39"/><circle cx="1041.28" cy="1194.73" r="7.39"/><circle cx="1105.61" cy="1194.73" r="7.39"/><circle cx="1169.93" cy="1194.73" r="7.39"/><circle cx="1234.25" cy="1194.73" r="7.39"/><circle cx="1298.58" cy="1194.73" r="7.39"/><circle cx="76.43" cy="1261.52" r="7.39"/><circle cx="140.76" cy="1261.52" r="7.39"/><circle cx="205.08" cy="1261.52" r="7.39"/><circle cx="269.4" cy="1261.52" r="7.39"/><circle cx="333.73" cy="1261.52" r="7.39"/><circle cx="398.05" cy="1261.52" r="7.39"/><circle cx="462.37" cy="1261.52" r="7.39"/><circle cx="526.7" cy="1261.52" r="7.39"/><circle cx="591.02" cy="1261.52" r="7.39"/><circle cx="655.34" cy="1261.52" r="7.39"/><circle cx="719.67" cy="1261.52" r="7.39"/><circle cx="783.99" cy="1261.52" r="7.39"/><circle cx="848.31" cy="1261.52" r="7.39"/><circle cx="912.64" cy="1261.52" r="7.39"/><circle cx="976.96" cy="1261.52" r="7.39"/><circle cx="1041.28" cy="1261.52" r="7.39"/><circle cx="1105.61" cy="1261.52" r="7.39"/><circle cx="1169.93" cy="1261.52" r="7.39"/><circle cx="1234.25" cy="1261.52" r="7.39"/><circle cx="1298.58" cy="1261.52" r="7.39"/><circle cx="76.43" cy="1328.31" r="7.39"/><circle cx="140.76" cy="1328.31" r="7.39"/><circle cx="205.08" cy="1328.31" r="7.39"/><circle cx="269.4" cy="1328.31" r="7.39"/><circle cx="333.73" cy="1328.31" r="7.39"/><circle cx="398.05" cy="1328.31" r="7.39"/><circle cx="462.37" cy="1328.31" r="7.39"/><circle cx="526.7" cy="1328.31" r="7.39"/><circle cx="591.02" cy="1328.31" r="7.39"/><circle cx="655.34" cy="1328.31" r="7.39"/><circle cx="719.67" cy="1328.31" r="7.39"/><circle cx="783.99" cy="1328.31" r="7.39"/><circle cx="848.31" cy="1328.31" r="7.39"/><circle cx="912.64" cy="1328.31" r="7.39"/><circle cx="976.96" cy="1328.31" r="7.39"/><circle cx="1041.28" cy="1328.31" r="7.39"/><circle cx="1105.61" cy="1328.31" r="7.39"/><circle cx="1169.93" cy="1328.31" r="7.39"/><circle cx="1234.25" cy="1328.31" r="7.39"/><circle cx="1298.58" cy="1328.31" r="7.39"/><rect class="cls-2" x="8.44" y="309.95" width="1052.19" height="1052.19"/><rect class="cls-3" x="8.44" y="496" width="866.14" height="866.14"/><polyline class="cls-4" points="10.77 507.01 64.55 549.68 118.32 507.01 172.1 549.68 225.88 507.01 279.65 549.68 333.43 507.01 387.21 549.68 440.99 507.01 494.76 549.68 548.55 507.01 602.32 549.68 656.1 507.01 709.88 549.68 763.66 507.01 817.45 549.68 871.24 507.01"/><polyline class="cls-4" points="10.77 573.92 64.55 616.59 118.32 573.92 172.1 616.59 225.88 573.92 279.65 616.59 333.43 573.92 387.21 616.59 440.99 573.92 494.76 616.59 548.55 573.92 602.32 616.59 656.1 573.92 709.88 616.59 763.66 573.92 817.45 616.59 871.24 573.92"/><polyline class="cls-4" points="10.77 640.83 64.55 683.5 118.32 640.83 172.1 683.5 225.88 640.83 279.65 683.5 333.43 640.83 387.21 683.5 440.99 640.83 494.76 683.5 548.55 640.83 602.32 683.5 656.1 640.83 709.88 683.5 763.66 640.83 817.45 683.5 871.24 640.83"/><polyline class="cls-4" points="10.77 707.74 64.55 750.41 118.32 707.74 172.1 750.41 225.88 707.74 279.65 750.41 333.43 707.74 387.21 750.41 440.99 707.74 494.76 750.41 548.55 707.74 602.32 750.41 656.1 707.74 709.88 750.41 763.66 707.74 817.45 750.41 871.24 707.74"/><polyline class="cls-4" points="10.77 774.65 64.55 817.32 118.32 774.65 172.1 817.32 225.88 774.65 279.65 817.32 333.43 774.65 387.21 817.32 440.99 774.65 494.76 817.32 548.55 774.65 602.32 817.32 656.1 774.65 709.88 817.32 763.66 774.65 817.45 817.32 871.24 774.65"/><polyline class="cls-4" points="10.77 841.56 64.55 884.23 118.32 841.56 172.1 884.23 225.88 841.56 279.65 884.23 333.43 841.56 387.21 884.23 440.99 841.56 494.76 884.23 548.55 841.56 602.32 884.23 656.1 841.56 709.88 884.23 763.66 841.56 817.45 884.23 871.24 841.56"/><polyline class="cls-4" points="10.77 908.47 64.55 951.14 118.32 908.47 172.1 951.14 225.88 908.47 279.65 951.14 333.43 908.47 387.21 951.14 440.99 908.47 494.76 951.14 548.55 908.47 602.32 951.14 656.1 908.47 709.88 951.14 763.66 908.47 817.45 951.14 871.24 908.47"/><polyline class="cls-4" points="10.77 975.38 64.55 1018.05 118.32 975.38 172.1 1018.05 225.88 975.38 279.65 1018.05 333.43 975.38 387.21 1018.05 440.99 975.38 494.76 1018.05 548.55 975.38 602.32 1018.05 656.1 975.38 709.88 1018.05 763.66 975.38 817.45 1018.05 871.24 975.38"/><polyline class="cls-4" points="10.77 1042.29 64.55 1084.96 118.32 1042.29 172.1 1084.96 225.88 1042.29 279.65 1084.96 333.43 1042.29 387.21 1084.96 440.99 1042.29 494.76 1084.96 548.55 1042.29 602.32 1084.96 656.1 1042.29 709.88 1084.96 763.66 1042.29 817.45 1084.96 871.24 1042.29"/><polyline class="cls-4" points="10.77 1109.19 64.55 1151.87 118.32 1109.19 172.1 1151.87 225.88 1109.19 279.65 1151.87 333.43 1109.19 387.21 1151.87 440.99 1109.19 494.76 1151.87 548.55 1109.19 602.32 1151.87 656.1 1109.19 709.88 1151.87 763.66 1109.19 817.45 1151.87 871.24 1109.19"/><polyline class="cls-4" points="10.77 1176.1 64.55 1218.77 118.32 1176.1 172.1 1218.77 225.88 1176.1 279.65 1218.77 333.43 1176.1 387.21 1218.77 440.99 1176.1 494.76 1218.77 548.55 1176.1 602.32 1218.77 656.1 1176.1 709.88 1218.77 763.66 1176.1 817.45 1218.77 871.24 1176.1"/><polyline class="cls-4" points="10.77 1243.01 64.55 1285.68 118.32 1243.01 172.1 1285.68 225.88 1243.01 279.65 1285.68 333.43 1243.01 387.21 1285.68 440.99 1243.01 494.76 1285.68 548.55 1243.01 602.32 1285.68 656.1 1243.01 709.88 1285.68 763.66 1243.01 817.45 1285.68 871.24 1243.01"/><polyline class="cls-4" points="10.77 1309.92 64.55 1352.59 118.32 1309.92 172.1 1352.59 225.88 1309.92 279.65 1352.59 333.43 1309.92 387.21 1352.59 440.99 1309.92 494.76 1352.59 548.55 1309.92 602.32 1352.59 656.1 1309.92 709.88 1352.59 763.66 1309.92 817.45 1352.59 871.24 1309.92"/><polygon class="cls-5" points="254.76 1114.05 1173.46 1114.05 923.73 1363.79 9.52 1364.54 254.76 1114.05"/><polygon class="cls-6" points="252.76 1111.05 252.76 768.32 7.52 1013.56 7.52 1361.54 252.76 1111.05"/><rect class="cls-7" x="254.38" y="766.32" width="922" height="345.73"/><circle class="cls-8" cx="412.8" cy="842.82" r="7.42"/><circle class="cls-8" cx="537.29" cy="842.82" r="7.42"/><circle class="cls-8" cx="649.87" cy="842.82" r="7.42"/><circle class="cls-8" cx="774.37" cy="842.82" r="7.42"/><circle class="cls-8" cx="894.27" cy="842.82" r="7.42"/><circle class="cls-8" cx="1018.77" cy="842.82" r="7.42"/><circle class="cls-8" cx="353.51" cy="938.06" r="7.42"/><circle class="cls-8" cx="478" cy="938.06" r="7.42"/><circle class="cls-8" cx="590.58" cy="938.06" r="7.42"/><circle class="cls-8" cx="715.08" cy="938.06" r="7.42"/><circle class="cls-8" cx="840.98" cy="938.06" r="7.42"/><circle class="cls-8" cx="965.47" cy="938.06" r="7.42"/><circle class="cls-8" cx="1078.06" cy="938.06" r="7.42"/><circle class="cls-8" cx="412.8" cy="1033.31" r="7.42"/><circle class="cls-8" cx="537.29" cy="1033.31" r="7.42"/><circle class="cls-8" cx="649.87" cy="1033.31" r="7.42"/><circle class="cls-8" cx="774.37" cy="1033.31" r="7.42"/><circle class="cls-8" cx="894.27" cy="1033.31" r="7.42"/><circle class="cls-8" cx="1018.77" cy="1033.31" r="7.42"/></g></g></svg>