<svg xmlns="http://www.w3.org/2000/svg" viewBox="0 0 99.04 99.04"><defs><style>.cls-1,.cls-2{fill:#fff;}.cls-2{fill-rule:evenodd;}</style></defs><title>google</title><g id="Capa_2" data-name="Capa 2"><g id="_16" data-name="16"><path class="cls-1" d="M49.52,0a49.51,49.51,0,1,1-35,14.5A49.34,49.34,0,0,1,49.52,0ZM81.79,17.25A45.64,45.64,0,1,0,95.17,49.52,45.47,45.47,0,0,0,81.79,17.25Z"/><path class="cls-2" d="M54.56,46.06c-3.64.06-7.29.06-10.94.06-1,0-2.11-.06-3.12,0-.22,0-.55.24-.55.38,0,2.11,0,4.22,0,6.42h8.91a4.43,4.43,0,0,1-.3,1.07c-1.34,4-5.54,6.06-10.06,5.32a9.81,9.81,0,0,1-8-11.68,10.54,10.54,0,0,1,.66-2.28,9.84,9.84,0,0,1,11-5.51A9.1,9.1,0,0,1,46.25,42l4.91-4.9a2.64,2.64,0,0,1-.41-.36A16,16,0,0,0,37.21,33,16.83,16.83,0,0,0,24.32,55.55,16.88,16.88,0,0,0,42,66.16a14.92,14.92,0,0,0,9.68-4.52c3.86-4.12,4.88-9,4.25-14.51-.11-.9-.47-1.07-1.32-1.07Zm16.59.52h-1.1v-1c0-1.4,0-2.8,0-4.23,0-.21-.27-.63-.38-.63-1.26-.05-2.55-.05-3.89-.05v5.84h-5.9V47.6c.06,1,.09,2.11.17,3.15,1,.06,2,.11,3.09.11.86,0,1.73,0,2.66,0v5.76c1.46,0,2.8,0,4.25,0V50.86h5.76V46.58Z"/></g></g></svg>