<?xml version="1.0" encoding="utf-8"?>
<!-- Generator: Adobe Illustrator 22.1.0, SVG Export Plug-In . SVG Version: 6.00 Build 0)  -->
<svg version="1.1" id="Capa_1" xmlns="http://www.w3.org/2000/svg" xmlns:xlink="http://www.w3.org/1999/xlink" x="0px" y="0px"
	 viewBox="0 0 803 800" style="enable-background:new 0 0 803 800;" xml:space="preserve">
<style type="text/css">
	.st0{fill:#7F7F7F;}
	.st1{fill:none;stroke:#FFFFFF;stroke-width:4;stroke-miterlimit:10;stroke-dasharray:10,7;}
	.st2{opacity:0.1;fill:#62C3EF;enable-background:new    ;}
	.st3{fill:#C1BBB2;stroke:#34508B;stroke-width:3;stroke-linecap:round;stroke-linejoin:round;}
	.st4{fill:#F5FBFF;stroke:#34508B;stroke-width:3;stroke-linecap:round;stroke-linejoin:round;}
	.st5{fill:#BDE05C;stroke:#34508B;stroke-width:3;stroke-linecap:round;stroke-linejoin:round;}
	.st6{fill:#CCEF7F;stroke:#34508B;stroke-width:3;stroke-linecap:round;stroke-linejoin:round;}
	.st7{fill:#B28F6D;stroke:#34508B;stroke-width:3;stroke-linecap:round;stroke-linejoin:round;}
	.st8{fill:#A5D996;stroke:#34508B;stroke-width:3;stroke-linecap:round;stroke-linejoin:round;}
	.st9{fill:#FFFFFF;stroke:#34508B;stroke-width:3;stroke-linecap:round;stroke-linejoin:round;}
	.st10{fill:#62C3EF;stroke:#34508B;stroke-width:3;stroke-linecap:round;stroke-linejoin:round;}
	.st11{fill:#34508B;}
	.st12{fill:none;stroke:#34508B;stroke-width:3;stroke-linecap:round;stroke-linejoin:round;}
	.st13{fill:#F7AB6F;stroke:#34508B;stroke-width:3;stroke-linecap:round;stroke-linejoin:round;}
	.st14{fill:#93BA86;stroke:#34508B;stroke-width:3;stroke-linecap:round;stroke-linejoin:round;}
	.st15{fill:#3BDDBA;stroke:#34508B;stroke-width:3;stroke-linecap:round;stroke-linejoin:round;}
	.st16{fill:#FFD3A2;stroke:#34508B;stroke-width:3;stroke-linecap:round;stroke-linejoin:round;}
	.st17{fill:none;stroke:#34508B;stroke-width:3;stroke-linecap:round;stroke-linejoin:round;stroke-dasharray:2.96,6.91;}
	.st18{fill:#34508B;stroke:#34508B;stroke-width:3;stroke-linecap:round;stroke-linejoin:round;}
	.st19{fill:none;}
</style>
<title>img_registro</title>
<g id="Capa_2_1_">
	<g id="Objects">
		<g id="_Grupo_">
			<rect id="_Rectángulo_" x="0.3" y="537.3" class="st0" width="802.5" height="33.9"/>
			<line id="_Trazado_" class="st1" x1="13.2" y1="554.2" x2="794" y2="554.2"/>
		</g>
		<g id="_Grupo_2">
			<polygon id="_Trazado_2" class="st2" points="176.8,372.4 63,490.4 186,490.4 290.6,490.4 			"/>
			<polygon id="_Trazado_3" class="st2" points="332,337.5 184.6,490.4 343.9,490.4 479.4,490.4 			"/>
			<polygon id="_Trazado_4" class="st2" points="430.1,337.5 282.7,490.4 442,490.4 577.5,490.4 			"/>
		</g>
		<g id="_Grupo_3">
			<polygon id="_Trazado_5" class="st3" points="105,490.4 252.4,337.5 399.8,490.4 			"/>
			<polygon id="_Trazado_6" class="st4" points="252.4,337.5 275.9,410.9 252.4,410.9 264.3,490.4 399.8,490.4 			"/>
		</g>
		<path id="_Trazado_7" class="st5" d="M206.1,490.4l99-58.2c25.4-14.9,56.6-16.1,83-3.1l125.1,61.4H206.1z"/>
		<path id="_Trazado_8" class="st6" d="M78.3,490.4l88-51.7c22.6-13.3,50.3-14.3,73.8-2.8l111.2,54.5L78.3,490.4z"/>
		<path id="_Rectángulo_2" class="st7" d="M779.2,537.3H30.3l0,0v-14.8c0-17.7,14.4-32.1,32.1-32.1l0,0h684.7
			c17.7,0,32.1,14.4,32.1,32.1l0,0C779.2,522.5,779.2,537.3,779.2,537.3z"/>
		<path id="_Rectángulo_3" class="st7" d="M30.3,571.5h748.8l0,0v14.8c0,17.7-14.4,32.1-32.1,32.1l0,0H62.4
			c-17.7,0-32.1-14.4-32.1-32.1l0,0L30.3,571.5C30.3,571.5,30.3,571.5,30.3,571.5z"/>
		<path id="_Trazado_9" class="st8" d="M31.5,513.8h496.2v-23.4H62.4C48,490.4,35.4,500,31.5,513.8z"/>
		<g id="_Grupo_4">
			<polygon id="_Trazado_10" class="st9" points="698,409.6 691.8,409.6 688.2,490.4 701.6,490.4 			"/>
			<g id="_Grupo_5">
				<polygon id="_Trazado_11" class="st9" points="696.7,411.1 739.6,450.3 742.3,447.4 717.3,414.3 701.9,405.5 				"/>
				<polygon id="_Trazado_12" class="st9" points="699.3,400.3 717.6,345.1 713.8,343.8 693.8,380.2 692.1,397.9 				"/>
				<polygon id="_Trazado_13" class="st9" points="691,409.4 637.6,432.4 636,428.8 670.5,405.7 688,402.4 				"/>
				<circle id="_Trazado_14" class="st10" cx="695.1" cy="404.7" r="7.2"/>
				<circle id="_Trazado_15" class="st11" cx="695.1" cy="404.7" r="3.2"/>
			</g>
		</g>
		<g id="_Grupo_6">
			<polygon id="_Trazado_16" class="st3" points="442,490.4 589.4,337.5 736.8,490.4 			"/>
			<polygon id="_Trazado_17" class="st4" points="589.4,337.5 612.9,410.9 589.4,410.9 601.3,490.4 736.8,490.4 			"/>
		</g>
		<line id="_Trazado_18" class="st12" x1="1.4" y1="571.2" x2="801.4" y2="571.2"/>
		<line id="_Trazado_19" class="st12" x1="1.4" y1="537.3" x2="801.4" y2="537.3"/>
		<g id="_Grupo_7">
			<g id="_Grupo_8">
				<path id="_Trazado_20" class="st13" d="M86.3,571.2v91.1c0,12,9.7,21.8,21.8,21.8h0h114.7c12,0,21.8-9.7,21.8-21.8l0,0v-91.1
					h-11.9v91.1c0,5.5-4.4,9.9-9.9,9.9H108c-5.5,0-9.9-4.4-9.9-9.9v-91.1H86.3z"/>
				<g id="_Grupo_9">
					<line id="_Trazado_21" class="st12" x1="121.9" y1="670.4" x2="121.9" y2="686.7"/>
					<line id="_Trazado_22" class="st12" x1="115.9" y1="670.4" x2="115.9" y2="686.7"/>
				</g>
				<g id="_Grupo_10">
					<line id="_Trazado_23" class="st12" x1="207.9" y1="670.4" x2="207.9" y2="686.7"/>
					<line id="_Trazado_24" class="st12" x1="202" y1="670.4" x2="202" y2="686.7"/>
				</g>
				<g id="_Grupo_11">
					<line id="_Trazado_25" class="st12" x1="246.6" y1="589.5" x2="230.3" y2="589.5"/>
					<line id="_Trazado_26" class="st12" x1="246.6" y1="583.6" x2="230.3" y2="583.6"/>
				</g>
				<g id="_Grupo_12">
					<line id="_Trazado_27" class="st12" x1="99.7" y1="589.5" x2="83.5" y2="589.5"/>
					<line id="_Trazado_28" class="st12" x1="99.7" y1="583.6" x2="83.5" y2="583.6"/>
				</g>
			</g>
			<g id="_Grupo_13">
				<path id="_Trazado_29" class="st10" d="M565.7,571.2v91.1c0,12,9.7,21.8,21.7,21.8c0,0,0,0,0,0h114.7c12,0,21.7-9.8,21.7-21.8
					v-91.1h-11.8v91.1c0,5.5-4.4,9.9-9.9,9.9H587.5c-5.5,0-9.9-4.4-9.9-9.9v-91.1H565.7z"/>
				<g id="_Grupo_14">
					<line id="_Trazado_30" class="st12" x1="601.3" y1="670.4" x2="601.3" y2="686.7"/>
					<line id="_Trazado_31" class="st12" x1="595.4" y1="670.4" x2="595.4" y2="686.7"/>
				</g>
				<g id="_Grupo_15">
					<line id="_Trazado_32" class="st12" x1="687.3" y1="670.4" x2="687.3" y2="686.7"/>
					<line id="_Trazado_33" class="st12" x1="681.4" y1="670.4" x2="681.4" y2="686.7"/>
				</g>
				<g id="_Grupo_16">
					<line id="_Trazado_34" class="st12" x1="726" y1="589.5" x2="709.8" y2="589.5"/>
					<line id="_Trazado_35" class="st12" x1="726" y1="583.6" x2="709.8" y2="583.6"/>
				</g>
				<g id="_Grupo_17">
					<line id="_Trazado_36" class="st12" x1="579.2" y1="589.5" x2="562.9" y2="589.5"/>
					<line id="_Trazado_37" class="st12" x1="579.2" y1="583.6" x2="562.9" y2="583.6"/>
				</g>
			</g>
		</g>
		<g id="_Grupo_18">
			<polygon id="_Trazado_38" class="st9" points="108.8,409.6 102.6,409.6 99,490.4 112.4,490.4 			"/>
			<g id="_Grupo_19">
				<polygon id="_Trazado_39" class="st9" points="110.1,401.7 142.2,353.2 138.9,351 110.1,380.9 103.8,397.5 				"/>
				<polygon id="_Trazado_40" class="st9" points="99,400.9 41.7,391.4 41,395.4 80.1,409.4 97.8,408.4 				"/>
				<polygon id="_Trazado_41" class="st9" points="109.3,407.7 140.4,456.8 137.1,458.9 108.9,428.4 102.9,411.7 				"/>
				<circle id="_Trazado_42" class="st10" cx="104.1" cy="404.3" r="7.2"/>
				<circle id="_Trazado_43" class="st11" cx="104.1" cy="404.3" r="3.2"/>
			</g>
		</g>
		<g id="_Grupo_20">
			<polygon id="_Trazado_44" class="st9" points="242.4,409.6 236.2,409.6 232.6,490.4 246,490.4 			"/>
			<g id="_Grupo_21">
				<polygon id="_Trazado_45" class="st9" points="244,408.2 302.1,411.6 302.3,407.7 262,397.8 244.5,400.6 				"/>
				<polygon id="_Trazado_46" class="st9" points="239.2,398.2 218.5,343.9 214.8,345.3 222.3,386.1 232.1,400.9 				"/>
				<polygon id="_Trazado_47" class="st9" points="238.5,410.6 211.6,462.1 208.1,460.3 220.3,420.6 231.7,407 				"/>
				<circle id="_Trazado_48" class="st10" cx="238.7" cy="404.3" r="7.2"/>
				<circle id="_Trazado_49" class="st11" cx="238.7" cy="404.3" r="3.2"/>
			</g>
		</g>
		<path id="_Rectángulo_4" class="st14" d="M99.8,462.1L99.8,462.1c12.1,0,21.9,9.8,21.9,21.9v6.4l0,0H77.9l0,0V484
			C77.9,471.9,87.7,462.1,99.8,462.1z"/>
		<path id="_Trazado_50" class="st14" d="M717.9,462.1c-4.5,0-8.9,1.4-12.5,4c-8.6-14.4-27.2-19.1-41.5-10.5
			c-6.5,3.9-11.3,10.1-13.5,17.3c-9.7-7.2-23.4-5.3-30.6,4.4c-2.8,3.8-4.4,8.4-4.4,13.1h124.5v-6.4C739.8,472,730,462.1,717.9,462.1
			C717.9,462.1,717.9,462.1,717.9,462.1z"/>
		<g id="_Grupo_22">
			<polygon id="_Trazado_51" class="st8" points="332,490.4 479.4,337.5 626.9,490.4 			"/>
			<path id="_Trazado_52" class="st10" d="M503.1,490.4V450c0-12.7,10.3-23,23-23h39.6l-10.3-10.7h-29.6c-19.9,0-36.1,16.1-36.1,36
				c0,0,0,0,0,0v38L503.1,490.4z"/>
		</g>
		<path id="_Trazado_53" class="st10" d="M778,513.8c-3.9-13.9-16.5-23.4-30.9-23.4H489.8c0,12.9,10.5,23.4,23.4,23.4c0,0,0,0,0,0
			H778z"/>
		<path id="_Trazado_54" class="st6" d="M392.7,470c-3.2,0-6.4,1-9.1,2.9c-6.2-10.4-19.6-13.8-30-7.6c-4.7,2.8-8.2,7.3-9.8,12.5
			c-7-5.2-16.9-3.8-22.1,3.1c-2.1,2.7-3.2,6.1-3.2,9.5h90v-4.6C408.5,477.1,401.4,470,392.7,470z"/>
		<g id="_Grupo_23">
			<polygon id="_Trazado_55" class="st15" points="200.6,458 178.7,480 130.2,480 152.1,458 			"/>
			<g id="_Grupo_24">
				<line id="_Trazado_56" class="st12" x1="168.2" y1="458" x2="146.2" y2="480"/>
				<line id="_Trazado_57" class="st12" x1="184.5" y1="458" x2="162.6" y2="480"/>
			</g>
			<line id="_Trazado_58" class="st12" x1="141.1" y1="469" x2="189.6" y2="469"/>
			<rect id="_Trazado_59" x="160.2" y="480" class="st15" width="6.7" height="10.4"/>
		</g>
		<g id="_Grupo_25">
			<polygon id="_Trazado_60" class="st15" points="293.7,458 271.8,480 223.3,480 245.2,458 			"/>
			<g id="_Grupo_26">
				<line id="_Trazado_61" class="st12" x1="261.3" y1="458" x2="239.3" y2="480"/>
				<line id="_Trazado_62" class="st12" x1="277.6" y1="458" x2="255.7" y2="480"/>
			</g>
			<line id="_Trazado_63" class="st12" x1="234.3" y1="469" x2="282.7" y2="469"/>
			<rect id="_Trazado_64" x="253.3" y="480" class="st15" width="6.7" height="10.4"/>
		</g>
		<circle id="_Trazado_65" class="st16" cx="239.3" cy="248.7" r="22.9"/>
		<g id="_Grupo_27">
			
				<ellipse transform="matrix(0.9735 -0.2288 0.2288 0.9735 -50.517 60.9798)" class="st17" cx="237.7" cy="248.4" rx="31.3" ry="31.3"/>
		</g>
		<path id="_Trazado_66" class="st9" d="M177.9,283.1c-3,0-5.8,1.2-7.8,3.3c0-10.1-8.2-18.3-18.4-18.3c-7.4,0-14.1,4.5-16.9,11.3
			c-6.3-4.4-15-2.8-19.4,3.6c-4.4,6.3-2.8,15,3.6,19.4c2.3,1.6,5.1,2.5,7.9,2.5h51c6,0,10.9-4.9,10.9-10.9S183.9,283.2,177.9,283.1
			L177.9,283.1z"/>
		<path id="_Trazado_67" class="st9" d="M375.5,284.3c-3.1,0-6.1,1.3-8.2,3.5c0-10.6-8.7-19.3-19.3-19.2c-7.8,0-14.8,4.7-17.8,11.8
			c-6.7-4.6-15.8-2.9-20.3,3.8c-4.6,6.7-2.9,15.8,3.8,20.3c2.4,1.7,5.3,2.6,8.3,2.6h53.6c6.3,0.2,11.5-4.8,11.7-11.1
			c0.2-6.3-4.8-11.5-11.1-11.7C375.9,284.3,375.7,284.3,375.5,284.3L375.5,284.3z"/>
		<path id="_Trazado_68" class="st9" d="M679.3,289.6c-3.4,0-6.6,1.4-9,3.9c0-11.7-9.5-21.2-21.2-21.2c-8.6,0-16.3,5.1-19.6,13
			c-7.3-5-17.3-3.2-22.4,4.2c-5,7.3-3.2,17.3,4.2,22.4c2.7,1.8,5.8,2.8,9.1,2.8h58.8c6.9-0.4,12.2-6.3,11.8-13.2
			C690.7,295.1,685.7,290,679.3,289.6L679.3,289.6z"/>
		<g id="_Grupo_28">
			<polygon id="_Trazado_69" class="st7" points="427.1,376.4 386.5,376.4 386.5,398.8 382.5,400.9 382.5,490.4 471.6,490.4 
				471.6,400.9 			"/>
			<polygon id="_Trazado_70" class="st7" points="431,490.4 342,490.4 342,400.9 386.5,376.4 431,400.9 			"/>
			<rect id="_Rectángulo_5" x="431" y="400.9" class="st4" width="40.5" height="89.5"/>
			<g id="_Grupo_29">
				<polygon id="_Trazado_71" class="st15" points="353.9,490.4 353.9,407.9 386.5,389.9 419.1,407.9 419.1,490.4 				"/>
				<polygon id="_Trazado_72" class="st15" points="353.9,490.4 353.9,407.9 386.5,389.9 419.1,407.9 419.1,490.4 				"/>
			</g>
			<rect id="_Rectángulo_6" x="353.9" y="407.9" class="st18" width="5.8" height="82.5"/>
			<polygon id="_Trazado_73" class="st18" points="353.9,407.9 359.7,409.3 391.3,392.5 386.5,389.9 			"/>
			<line id="_Trazado_74" class="st12" x1="353.9" y1="436" x2="419.1" y2="436"/>
			<line id="_Trazado_75" class="st12" x1="353.9" y1="466.5" x2="419.1" y2="466.5"/>
			<line id="_Trazado_76" class="st12" x1="391.3" y1="392.5" x2="391.3" y2="490.4"/>
			<rect id="_Rectángulo_7" x="445.4" y="427.9" class="st10" width="14.6" height="35.5"/>
			<line id="_Trazado_77" class="st12" x1="445.4" y1="445.7" x2="460" y2="445.7"/>
			<line id="_Trazado_78" class="st12" x1="452.7" y1="427.9" x2="452.7" y2="463.4"/>
			<polygon id="_Trazado_79" class="st15" points="437.1,382 460.1,394.6 440.8,394.6 417.9,382 			"/>
			<line id="_Trazado_80" class="st12" x1="430.1" y1="388.3" x2="448.6" y2="388.3"/>
		</g>
		<path id="_Trazado_81" class="st9" d="M519.8,251.2c-3,0-5.9,0.9-8.3,2.6c-4.1-9.8-15.4-14.5-25.2-10.4c-7.2,3-11.9,10-11.9,17.8
			c-4.4-4.5-11.6-4.7-16.1-0.3c-2.2,2.1-3.5,5.1-3.5,8.2c0,0.2,0,0.3,0,0.5h-0.4c-1.5-4.2-6.2-6.4-10.4-4.9
			c-4.2,1.5-6.4,6.2-4.9,10.4c1.2,3.2,4.2,5.4,7.7,5.4h73c8.1-0.2,14.5-6.9,14.3-15C533.8,257.7,527.6,251.4,519.8,251.2
			L519.8,251.2z"/>
		<line id="_Trazado_82" class="st12" x1="625.6" y1="301.5" x2="571.9" y2="301.5"/>
		<line id="_Trazado_83" class="st12" x1="738.3" y1="321" x2="716.8" y2="321"/>
		<line id="_Trazado_84" class="st12" x1="190" y1="649.9" x2="168.6" y2="649.9"/>
		<line id="_Trazado_85" class="st12" x1="155.5" y1="649.9" x2="134.1" y2="649.9"/>
		<line id="_Trazado_86" class="st12" x1="223.2" y1="717.4" x2="178.9" y2="717.4"/>
		<line id="_Trazado_87" class="st12" x1="572.6" y1="717.4" x2="528.4" y2="717.4"/>
		<line id="_Trazado_88" class="st12" x1="652.1" y1="717.4" x2="607.9" y2="717.4"/>
		<line id="_Trazado_89" class="st12" x1="432.6" y1="247.9" x2="408.2" y2="247.9"/>
		<line id="_Trazado_90" class="st12" x1="399.1" y1="247.9" x2="383.6" y2="247.9"/>
		<line id="_Trazado_91" class="st12" x1="96.1" y1="293.7" x2="77.8" y2="293.7"/>
		<line id="_Trazado_92" class="st12" x1="315" y1="295.2" x2="299.5" y2="295.2"/>
		<line id="_Trazado_93" class="st12" x1="650.9" y1="241.8" x2="643.4" y2="241.8"/>
		<line id="_Trazado_94" class="st12" x1="624.9" y1="241.8" x2="617.4" y2="241.8"/>
		<line id="_Trazado_95" class="st12" x1="77.9" y1="372" x2="60.6" y2="372"/>
		<rect id="_Rectángulo_8" x="1.4" y="0.7" class="st19" width="800" height="800"/>
	</g>
</g>
</svg>
