<svg xmlns="http://www.w3.org/2000/svg" viewBox="0 0 421.57 676.74"><defs><style>.cls-1{font-size:35.07px;}.cls-1,.cls-3,.cls-54{fill:#fff;}.cls-1,.cls-19,.cls-20,.cls-21,.cls-3,.cls-32,.cls-33,.cls-39,.cls-40,.cls-41{font-family:Questrial-Regular, Questrial;}.cls-2{fill:none;stroke:#fff;stroke-miterlimit:10;stroke-width:3px;}.cls-3{font-size:24.81px;}.cls-4{letter-spacing:-0.01em;}.cls-5{letter-spacing:-0.01em;}.cls-6{letter-spacing:0.14em;}.cls-7{letter-spacing:0.14em;}.cls-8{letter-spacing:-0.01em;}.cls-9{letter-spacing:-0.01em;}.cls-10,.cls-21{letter-spacing:-0.01em;}.cls-11{letter-spacing:0.14em;}.cls-12{letter-spacing:-0.04em;}.cls-13,.cls-35,.cls-36,.cls-37{font-family:Nunito-Regular, Nunito;}.cls-14{letter-spacing:0.26em;}.cls-15{letter-spacing:-0.01em;}.cls-16,.cls-40{letter-spacing:0em;}.cls-17{letter-spacing:-0.02em;}.cls-18,.cls-36{letter-spacing:-0.04em;}.cls-20{letter-spacing:0.22em;}.cls-22{letter-spacing:-0.03em;}.cls-23{letter-spacing:-0.03em;}.cls-24{letter-spacing:-0.03em;}.cls-25{letter-spacing:0.65em;}.cls-26{letter-spacing:0em;}.cls-27{letter-spacing:0em;}.cls-28{letter-spacing:-0.03em;}.cls-29{letter-spacing:-0.01em;}.cls-30{letter-spacing:-0.01em;}.cls-31{letter-spacing:-0.02em;}.cls-32{letter-spacing:0em;}.cls-33{letter-spacing:-0.01em;}.cls-34{letter-spacing:0.43em;}.cls-35{letter-spacing:-0.02em;}.cls-37{letter-spacing:-0.01em;}.cls-38{letter-spacing:0.11em;}.cls-39{letter-spacing:0.09em;}.cls-41{letter-spacing:0.09em;}.cls-42{letter-spacing:-0.01em;}.cls-43{letter-spacing:0.22em;}.cls-44{letter-spacing:0.22em;}.cls-45{letter-spacing:0.22em;}.cls-46{letter-spacing:1.28em;}.cls-47{letter-spacing:1.28em;}.cls-48{letter-spacing:0.4em;}.cls-49{letter-spacing:0.4em;}.cls-50{letter-spacing:0.4em;}.cls-51{letter-spacing:0.19em;}.cls-52{letter-spacing:0.19em;}.cls-53{letter-spacing:-0.01em;}</style></defs><title>info</title><g id="Capa_2" data-name="Capa 2"><g id="Capa_1-2" data-name="Capa 1"><text class="cls-1" transform="translate(62.06 114.98)">SOMOS VERBENA</text><line class="cls-2" x1="58.04" y1="125.96" x2="357.81" y2="125.96"/><text class="cls-3" transform="translate(35.62 175.44)">ama<tspan class="cls-4" x="51.05" y="0">n</tspan><tspan class="cls-5" x="64.8" y="0">t</tspan><tspan x="72.64" y="0">es</tspan><tspan class="cls-6" x="98.41" y="0"> </tspan><tspan x="107.13" y="0">de</tspan><tspan class="cls-6" x="135.71" y="0"> </tspan><tspan x="144.42" y="0">la</tspan><tspan class="cls-7" x="164.27" y="0"> </tspan><tspan class="cls-8" x="172.99" y="0">f</tspan><tspan class="cls-9" x="180.35" y="0">o</tspan><tspan class="cls-5" x="194.12" y="0">t</tspan><tspan x="201.96" y="0">og</tspan><tspan class="cls-10" x="230.71" y="0">r</tspan><tspan x="238.95" y="0">afía</tspan><tspan class="cls-11" x="281.17" y="0"> </tspan><tspan x="289.89" y="0">y</tspan><tspan class="cls-7" x="302.22" y="0"> </tspan><tspan x="310.93" y="0">del </tspan><tspan x="0" y="29.77">buen come</tspan><tspan class="cls-12" x="124.76" y="29.77">r</tspan><tspan x="132.2" y="29.77">.</tspan><tspan class="cls-13"><tspan x="0" y="69.25">NO</tspan><tspan class="cls-14" x="37.29" y="69.25"> </tspan><tspan x="50.2" y="69.25">SOMOS</tspan><tspan class="cls-14" x="139.58" y="69.25"> </tspan><tspan class="cls-15" x="152.49" y="69.25">E</tspan><tspan class="cls-16" x="166.71" y="69.25">XPE</tspan><tspan class="cls-17" x="213.17" y="69.25">R</tspan><tspan class="cls-18" x="229.69" y="69.25">T</tspan><tspan x="243.44" y="69.25">OS</tspan><tspan class="cls-19" x="277.7" y="69.25">,</tspan><tspan class="cls-20" x="283.15" y="69.25"> </tspan><tspan class="cls-19" x="293.81" y="69.25">pe</tspan><tspan class="cls-21" x="322.37" y="69.25">r</tspan><tspan class="cls-19" x="330.61" y="69.25">o </tspan></tspan><tspan x="0" y="99.02">cuando</tspan><tspan class="cls-22" x="85.09" y="99.02"> </tspan><tspan x="89.57" y="99.02">de</tspan><tspan class="cls-22" x="118.15" y="99.02"> </tspan><tspan x="122.63" y="99.02">comida</tspan><tspan class="cls-23" x="206.26" y="99.02"> </tspan><tspan x="210.73" y="99.02">se</tspan><tspan class="cls-24" x="236.51" y="99.02"> </tspan><tspan x="240.99" y="99.02">t</tspan><tspan class="cls-10" x="249.08" y="99.02">r</tspan><tspan x="257.31" y="99.02">a</tspan><tspan class="cls-5" x="272.07" y="99.02">t</tspan><tspan x="279.91" y="99.02">a,</tspan><tspan class="cls-23" x="300.13" y="99.02"> </tspan><tspan x="304.61" y="99.02">nos </tspan><tspan x="0" y="128.79">lo</tspan><tspan class="cls-25" x="19.08" y="128.79"> </tspan><tspan class="cls-5" x="40.53" y="128.79">t</tspan><tspan x="48.37" y="128.79">omamos</tspan><tspan class="cls-25" x="146.14" y="128.79"> </tspan><tspan class="cls-26" x="167.6" y="128.79">m</tspan><tspan class="cls-27" x="189.01" y="128.79">uy</tspan><tspan class="cls-25" x="215.38" y="128.79"> </tspan><tspan x="236.84" y="128.79">en</tspan><tspan class="cls-25" x="264.69" y="128.79"> </tspan><tspan x="286.15" y="128.79">serio. </tspan><tspan class="cls-13"><tspan x="0" y="162.87">I</tspan><tspan class="cls-28" x="6.35" y="162.87">L</tspan><tspan x="19.1" y="162.87">U</tspan><tspan class="cls-29" x="37.06" y="162.87">S</tspan><tspan x="52" y="162.87">T</tspan><tspan class="cls-30" x="66.83" y="162.87">R</tspan><tspan x="83.7" y="162.87">AREMOS</tspan><tspan class="cls-31" x="188.32" y="162.87"> </tspan><tspan class="cls-32" x="194.29" y="162.87">n</tspan><tspan class="cls-19" x="208.21" y="162.87">uest</tspan><tspan class="cls-21" x="256.11" y="162.87">r</tspan><tspan class="cls-19" x="264.35" y="162.87">os</tspan><tspan class="cls-33" x="290.3" y="162.87"> </tspan><tspan class="cls-19" x="295.23" y="162.87">des</tspan><tspan class="cls-19" x="335.76" y="162.87">-</tspan></tspan><tspan x="0" y="192.64">cubrimie</tspan><tspan class="cls-4" x="96.35" y="192.64">n</tspan><tspan class="cls-5" x="110.1" y="192.64">t</tspan><tspan x="117.94" y="192.64">os</tspan><tspan class="cls-34" x="143.89" y="192.64"> </tspan><tspan class="cls-16" x="159.78" y="192.64">con</tspan><tspan class="cls-34" x="201.31" y="192.64"> </tspan><tspan class="cls-35" x="217.21" y="192.64">F</tspan><tspan class="cls-36" x="230.63" y="192.64">OT</tspan><tspan class="cls-13" x="262.24" y="192.64">OG</tspan><tspan class="cls-37" x="299.15" y="192.64">R</tspan><tspan class="cls-13" x="316.02" y="192.64">A</tspan><tspan class="cls-13" x="334.05" y="192.64">-</tspan><tspan class="cls-13"><tspan x="0" y="222.41">FÍ</tspan><tspan class="cls-30" x="20.17" y="222.41">A</tspan><tspan x="38.05" y="222.41">S</tspan><tspan class="cls-38" x="53.36" y="222.41"> </tspan><tspan class="cls-19" x="62.47" y="222.41">y</tspan><tspan class="cls-39" x="74.8" y="222.41"> </tspan><tspan class="cls-19" x="82.32" y="222.41">escribi</tspan><tspan class="cls-21" x="155.06" y="222.41">r</tspan><tspan class="cls-40" x="163.3" y="222.41">emos</tspan><tspan class="cls-41" x="224.6" y="222.41"> </tspan><tspan x="232.12" y="222.41">R</tspan><tspan class="cls-5" x="249.14" y="222.41">E</tspan><tspan x="263.33" y="222.41">SEÑ</tspan><tspan class="cls-42" x="311.4" y="222.41">A</tspan><tspan x="329.29" y="222.41">S </tspan></tspan><tspan x="0" y="252.18">de</tspan><tspan class="cls-43" x="28.58" y="252.18"> </tspan><tspan x="39.44" y="252.18">esos</tspan><tspan class="cls-43" x="91.16" y="252.18"> </tspan><tspan x="102.02" y="252.18">luga</tspan><tspan class="cls-10" x="150.67" y="252.18">r</tspan><tspan class="cls-16" x="158.9" y="252.18">es</tspan><tspan class="cls-44" x="184.68" y="252.18"> </tspan><tspan x="195.54" y="252.18">mágicos</tspan><tspan class="cls-45" x="291.12" y="252.18"> </tspan><tspan x="301.98" y="252.18">que </tspan><tspan x="0" y="281.95">enco</tspan><tspan class="cls-4" x="55.35" y="281.95">n</tspan><tspan x="69.09" y="281.95">t</tspan><tspan class="cls-10" x="77.18" y="281.95">r</tspan><tspan x="85.41" y="281.95">a</tspan><tspan class="cls-10" x="100.18" y="281.95">r</tspan><tspan x="108.41" y="281.95">emos,</tspan><tspan class="cls-46" x="175.17" y="281.95"> </tspan><tspan x="212.33" y="281.95">pa</tspan><tspan class="cls-10" x="241.83" y="281.95">r</tspan><tspan x="250.06" y="281.95">a</tspan><tspan class="cls-47" x="264.82" y="281.95"> </tspan><tspan x="301.98" y="281.95" xml:space="preserve">que  </tspan><tspan x="0" y="311.72">puedas</tspan><tspan class="cls-48" x="84.07" y="311.72"> </tspan><tspan x="99.16" y="311.72">sabo</tspan><tspan class="cls-10" x="154.61" y="311.72">r</tspan><tspan x="162.85" y="311.72">ear</tspan><tspan class="cls-49" x="199.98" y="311.72"> </tspan><tspan x="215.07" y="311.72">y</tspan><tspan class="cls-50" x="227.4" y="311.72"> </tspan><tspan x="242.49" y="311.72">acompa</tspan><tspan x="335.77" y="311.72">-</tspan><tspan x="0" y="341.49">ñarnos</tspan><tspan class="cls-51" x="77.35" y="341.49"> </tspan><tspan x="87.24" y="341.49">en</tspan><tspan class="cls-52" x="115.1" y="341.49"> </tspan><tspan x="124.99" y="341.49">cada</tspan><tspan class="cls-52" x="182.77" y="341.49"> </tspan><tspan x="192.66" y="341.49">a</tspan><tspan class="cls-42" x="207.42" y="341.49">v</tspan><tspan x="219.4" y="341.49">e</tspan><tspan class="cls-53" x="233.22" y="341.49">n</tspan><tspan x="246.96" y="341.49">tu</tspan><tspan class="cls-10" x="269.09" y="341.49">r</tspan><tspan x="277.33" y="341.49">a</tspan><tspan class="cls-52" x="292.09" y="341.49"> </tspan><tspan x="301.98" y="341.49">que </tspan><tspan class="cls-10" x="0" y="371.26">r</tspan><tspan x="8.24" y="371.26">ealicemos.</tspan></text><path class="cls-54" d="M19.29,116l28.43-1.88c.8-.06.81-1.31,0-1.25l-28.43,1.88c-.8.06-.81,1.31,0,1.25Z"/><path class="cls-54" d="M8.67,89.91,46.08,97.6c.79.16,1.13-1,.34-1.2L9,88.7c-.79-.16-1.12,1-.34,1.21Z"/><path class="cls-54" d="M57.34,103.08v-1.5a.63.63,0,0,0-1.25,0v1.5a.63.63,0,0,0,1.25,0Z"/><path class="cls-54" d="M1.11,70.77,52,85.88a.62.62,0,0,0,.34-1.2L1.44,69.57a.62.62,0,0,0-.33,1.2Z"/><path class="cls-54" d="M.58,35.37Q31,54.93,60.58,75.7c1.32.92,2.57-1.24,1.26-2.16q-29.6-20.76-60-40.33C.48,32.34-.77,34.5.58,35.37Z"/><path class="cls-54" d="M51.12,24.32,72.18,64.73c.74,1.42,2.9.16,2.16-1.27L53.28,23.06c-.74-1.43-2.9-.16-2.16,1.26Z"/><path class="cls-54" d="M42.41,36.14l2.82,4.6c.84,1.37,3,.12,2.16-1.26l-2.82-4.6c-.84-1.37-3-.12-2.16,1.26Z"/><path class="cls-54" d="M70.2,72.24a.63.63,0,0,0,0-1.25.63.63,0,0,0,0,1.25Z"/><path class="cls-54" d="M91.44,64A454.92,454.92,0,0,1,81.17,8.61c-.2-1.58-2.7-1.6-2.5,0A460.41,460.41,0,0,0,89,64.7,1.25,1.25,0,0,0,91.44,64Z"/><path class="cls-54" d="M106.65,71.82,117,15.14c.28-1.57-2.12-2.25-2.41-.67L104.24,71.15c-.29,1.58,2.12,2.25,2.41.67Z"/><path class="cls-54" d="M100.16,47.4a1.25,1.25,0,0,0,0-2.5,1.25,1.25,0,0,0,0,2.5Z"/><path class="cls-54" d="M127.27,74.59l15.07-44.41c.52-1.53-1.9-2.18-2.41-.66l-15.07,44.4c-.52,1.53,1.9,2.18,2.41.67Z"/><path class="cls-54" d="M132.87,23.68V1.21a1.25,1.25,0,0,0-2.5,0V23.68a1.25,1.25,0,0,0,2.5,0Z"/><path class="cls-54" d="M149.52,7.62l16.37,65.95a1.25,1.25,0,0,0,2.41-.67L151.93,7c-.38-1.56-2.79-.9-2.41.66Z"/><path class="cls-54" d="M171.59,25.71q6.27,23.39,14.27,46.23c.53,1.51,2.95.86,2.42-.66q-8-22.85-14.28-46.23a1.25,1.25,0,0,0-2.41.66Z"/><path class="cls-54" d="M183.82,3.18,190,25.59a1.25,1.25,0,0,0,2.41-.66L186.23,2.52a1.25,1.25,0,0,0-2.41.66Z"/><path class="cls-54" d="M199.66,68.62v-1.5a.63.63,0,0,0-1.25,0v1.5a.63.63,0,0,0,1.25,0Z"/><path class="cls-54" d="M208.1,74.49a520.53,520.53,0,0,0,23-72.73c.37-1.57-2-2.23-2.41-.67a520.24,520.24,0,0,1-23,72.74c-.6,1.49,1.82,2.14,2.41.66Z"/><path class="cls-54" d="M232.24,31.17v1.5a1.25,1.25,0,0,0,2.5,0v-1.5a1.25,1.25,0,0,0-2.5,0Z"/><path class="cls-54" d="M250.91,2.77l-5.59,62.82c-.14,1.6,2.36,1.59,2.5,0l5.59-62.82c.14-1.61-2.36-1.6-2.5,0Z"/><path class="cls-54" d="M263.33,24.14l14.19,44.72c.49,1.53,2.9.87,2.41-.66L265.74,23.48c-.49-1.53-2.9-.88-2.41.66Z"/><path class="cls-54" d="M259.48,58.45l4.77,11.88c.3.73,1.51.41,1.21-.34l-4.78-11.87c-.29-.74-1.5-.41-1.2.33Z"/><path class="cls-54" d="M270.46,6.72a79.89,79.89,0,0,0,11.88,19.09c1,1.23,2.8-.55,1.77-1.77a77.78,77.78,0,0,1-11.5-18.58c-.64-1.47-2.8-.2-2.15,1.26Z"/><path class="cls-54" d="M294.54,32.55l5.85,43.66c.21,1.57,2.72,1.6,2.5,0L297,32.55c-.21-1.57-2.72-1.59-2.5,0Z"/><path class="cls-54" d="M288.92,47.9h-1.5a1.25,1.25,0,0,0,0,2.5h1.5a1.25,1.25,0,0,0,0-2.5Z"/><path class="cls-54" d="M362.33,106.7h27a.63.63,0,0,0,0-1.25h-27a.63.63,0,0,0,0,1.25Z"/><path class="cls-54" d="M359.57,87.39A155,155,0,0,0,400.33,63.2c.62-.51-.27-1.39-.88-.88a153.08,153.08,0,0,1-40.21,23.86c-.74.3-.42,1.51.33,1.21Z"/><path class="cls-54" d="M375.81,94.71a.63.63,0,0,0,0-1.25.63.63,0,0,0,0,1.25Z"/><path class="cls-54" d="M386.21,91.47A13.39,13.39,0,0,0,399,88.79c.61-.52-.27-1.4-.88-.89a12.11,12.11,0,0,1-11.53,2.37c-.77-.24-1.1,1-.33,1.2Z"/><path class="cls-54" d="M345.37,75.67a200.22,200.22,0,0,0,43-47.19c.88-1.35-1.28-2.6-2.16-1.26A198.1,198.1,0,0,1,343.6,73.9c-1.26,1,.52,2.76,1.77,1.77Z"/><path class="cls-54" d="M334,67.2l18.07-30.52a1.25,1.25,0,0,0-2.16-1.26L331.85,65.94A1.25,1.25,0,0,0,334,67.2Z"/><path class="cls-54" d="M358.94,26.68a20.17,20.17,0,0,1,4.44-12.46c1-1.25-.76-3-1.77-1.77a23,23,0,0,0-5.17,14.23,1.25,1.25,0,0,0,2.5,0Z"/><path class="cls-54" d="M318.24,68.6,321,14.66c.08-1.61-2.42-1.61-2.5,0L315.74,68.6c-.08,1.61,2.42,1.6,2.5,0Z"/><path class="cls-54" d="M332.58,51.12,340,25.63a1.25,1.25,0,0,0-2.41-.67l-7.39,25.5a1.25,1.25,0,0,0,2.41.66Z"/><path class="cls-54" d="M299.31,6.19l8,20.75c.58,1.49,3,.84,2.42-.66l-8-20.76c-.58-1.48-3-.84-2.41.67Z"/><path class="cls-54" d="M308.4,51.89a1.25,1.25,0,0,0,0-2.5,1.25,1.25,0,0,0,0,2.5Z"/><path class="cls-54" d="M209.52,21.93a1.25,1.25,0,0,0,0-2.5,1.25,1.25,0,0,0,0,2.5Z"/><path class="cls-54" d="M194.79,43.15v1.5a1.25,1.25,0,0,0,2.5,0v-1.5a1.25,1.25,0,0,0-2.5,0Z"/><path class="cls-54" d="M125.63,39.91a1.25,1.25,0,0,0,0-2.5,1.25,1.25,0,0,0,0,2.5Z"/><path class="cls-54" d="M374.31,67.75a.63.63,0,0,0,0-1.25.63.63,0,0,0,0,1.25Z"/><path class="cls-54" d="M390.3,55.42l1.59-6a1.25,1.25,0,0,0-2.41-.66l-1.59,6a1.25,1.25,0,0,0,2.41.67Z"/><path class="cls-54" d="M288.72,593.09c25.4-39.27,73-53.27,117.56-52.5a1.25,1.25,0,0,0,0-2.5c-45.53-.78-93.83,13.71-119.72,53.74-.88,1.35,1.29,2.61,2.16,1.26Z"/><path class="cls-54" d="M338.31,584.47a66,66,0,0,0-28.49-17.64c-12.83-3.86-26.9-3.76-40.16-3.27a235.57,235.57,0,0,0-81,17.64c-1.47.6-.82,3,.66,2.41A234.29,234.29,0,0,1,266,566.22c12.91-.68,26.57-.94,39.23,2a63.25,63.25,0,0,1,31.34,18c1.11,1.16,2.88-.61,1.77-1.77Z"/><path class="cls-54" d="M343.83,585.27c21.26,15.7,43.27,30.83,62,49.6a1.25,1.25,0,0,0,1.77-1.77c-18.87-18.92-41.07-34.17-62.5-50-1.29-1-2.54,1.21-1.26,2.16Z"/><path class="cls-54" d="M269.67,601.2,238.34,626c-1.26,1,.52,2.76,1.77,1.77L271.44,603c1.26-1-.52-2.75-1.77-1.77Z"/><path class="cls-54" d="M284.68,606.2q-8.7,28.34-16.35,57a1.25,1.25,0,0,0,2.41.67q7.65-28.65,16.35-57c.47-1.54-1.94-2.2-2.41-.66Z"/><path class="cls-54" d="M295.09,608.57a277.43,277.43,0,0,1,.75,40.36c-.08,1.6,2.42,1.6,2.5,0a277.43,277.43,0,0,0-.75-40.36c-.14-1.59-2.65-1.6-2.5,0Z"/><path class="cls-54" d="M296.44,659.72l-.56,9.39c-.09,1.6,2.41,1.6,2.5,0l.56-9.39c.09-1.6-2.41-1.6-2.5,0Z"/><path class="cls-54" d="M307,604a333.88,333.88,0,0,1,11.51,70.48c.09,1.6,2.59,1.61,2.5,0a337.31,337.31,0,0,0-11.6-71.14A1.25,1.25,0,0,0,307,604Z"/><path class="cls-54" d="M329.81,605l.23-.46a1.32,1.32,0,0,0-.19-1.52,2.06,2.06,0,0,0-2-.91,1.24,1.24,0,0,0-1.08.62c-1.72,2.88-.17,7.27.19,10.43l1.88,16.49,3.65,32c.18,1.58,2.69,1.59,2.5,0l-3.32-29.12-1.55-13.58-.89-7.76-.44-3.89a4.71,4.71,0,0,0-1.17-3.59c-.72,1.44,1.44,2.7,2.15,1.26Z"/><path class="cls-54" d="M339.77,606.58a459.42,459.42,0,0,1,20.62,58.7,1.25,1.25,0,0,0,2.41-.66,463,463,0,0,0-20.87-59.31c-.64-1.47-2.79-.2-2.16,1.27Z"/><path class="cls-54" d="M357.39,608.47l7.93,24.7c.49,1.53,2.9.87,2.41-.66l-7.93-24.7c-.49-1.53-2.9-.87-2.41.66Z"/><path class="cls-54" d="M367.62,645.94l1.26,1.42a1.26,1.26,0,0,0,1.77,0,1.28,1.28,0,0,0,0-1.77l-1.26-1.42a1.25,1.25,0,0,0-1.77,1.77Z"/><path class="cls-54" d="M378.3,641.55a146.46,146.46,0,0,0,22.28,18.78c1.32.91,2.58-1.25,1.26-2.16a143.72,143.72,0,0,1-21.77-18.38c-1.12-1.16-2.89.61-1.77,1.76Z"/><path class="cls-54" d="M236.88,642.59l1.34.08a1.26,1.26,0,0,0,1.25-1.25,1.27,1.27,0,0,0-1.25-1.25l-1.34-.08a1.25,1.25,0,0,0,0,2.5Z"/><path class="cls-54" d="M267.33,674.15l-.08,1.34a1.25,1.25,0,0,0,2.5,0l.08-1.34a1.26,1.26,0,0,0-1.25-1.25,1.28,1.28,0,0,0-1.25,1.25Z"/><path class="cls-54" d="M268.18,619.48a34.69,34.69,0,0,0-7.82,13.57c-.47,1.54,1.94,2.2,2.41.66a31.86,31.86,0,0,1,7.17-12.46c1.1-1.18-.67-3-1.76-1.77Z"/><path class="cls-54" d="M420.32,632.06,419,632a1.25,1.25,0,0,0,0,2.5l1.34.08a1.26,1.26,0,0,0,1.25-1.25,1.28,1.28,0,0,0-1.25-1.25Z"/><path class="cls-54" d="M188.69,581.05c-3.65-2.31-8.3-3.24-12.21-.94a8.4,8.4,0,0,0-4.06,9.6c2.81,9.29,14.4,7.53,18.64.59A1.25,1.25,0,0,0,188.9,589c-3.12,5.11-11.82,7.13-14.07,0-1-3.24,1.2-6.35,4.24-7.4s5.88,0,8.36,1.56c1.36.86,2.62-1.3,1.26-2.16Z"/><path class="cls-54" d="M407.27,530.25c-6.1-2.06-13.59.44-14.83,7.38-1.32,7.41,5.43,10.3,11.47,11.3,1.57.26,2.25-2.14.66-2.41-4.38-.73-10.06-2.06-9.77-7.67.31-6.07,6.95-7.83,11.8-6.19,1.53.51,2.19-1.9.67-2.41Z"/></g></g></svg>