<svg xmlns="http://www.w3.org/2000/svg" viewBox="0 0 1386.16 1383.84"><defs><style>.cls-1{fill:#fff;}.cls-2,.cls-7{fill:none;}.cls-2,.cls-3,.cls-7,.cls-8{stroke:#000;stroke-miterlimit:10;}.cls-2{stroke-width:8.1px;}.cls-3,.cls-5{fill:#fed000;}.cls-3{stroke-width:9.31px;}.cls-4,.cls-8{fill:#ff665a;}.cls-6{fill:#02d8b2;}.cls-7{stroke-width:9px;}.cls-8{stroke-width:8.8px;}</style></defs><title>inicio_fondo</title><g id="Capa_2" data-name="Capa 2"><g id="aside"><rect class="cls-1" x="2.58" width="1381.4" height="1381.4"/><path class="cls-2" d="M8.7,37.42c40.51,0,40.51,38.46,81,38.46s40.51-38.46,81-38.46,40.51,38.46,81,38.46,40.51-38.46,81-38.46,40.52,38.46,81,38.46,40.51-38.46,81-38.46,40.51,38.46,81,38.46,40.51-38.46,81-38.46,40.51,38.46,81,38.46,40.51-38.46,81-38.46,40.51,38.46,81,38.46,40.51-38.46,81-38.46,40.51,38.46,81,38.46,40.52-38.46,81-38.46,40.52,38.46,81,38.46,40.52-38.46,81-38.46,40.51,38.46,81,38.46"/><path class="cls-2" d="M8.7,113c40.51,0,40.51,38.46,81,38.46s40.51-38.46,81-38.46,40.51,38.46,81,38.46S292.29,113,332.8,113s40.52,38.46,81,38.46,40.51-38.46,81-38.46,40.51,38.46,81,38.46S616.38,113,656.9,113s40.51,38.46,81,38.46S778.44,113,819,113s40.51,38.46,81,38.46S940.49,113,981,113s40.51,38.46,81,38.46,40.52-38.46,81-38.46,40.52,38.46,81,38.46,40.52-38.46,81-38.46,40.51,38.46,81,38.46"/><path class="cls-2" d="M8.7,188.48c40.51,0,40.51,38.46,81,38.46s40.51-38.46,81-38.46,40.51,38.46,81,38.46,40.51-38.46,81-38.46,40.52,38.46,81,38.46,40.51-38.46,81-38.46,40.51,38.46,81,38.46,40.51-38.46,81-38.46,40.51,38.46,81,38.46,40.51-38.46,81-38.46,40.51,38.46,81,38.46,40.51-38.46,81-38.46,40.51,38.46,81,38.46,40.52-38.46,81-38.46,40.52,38.46,81,38.46,40.52-38.46,81-38.46,40.51,38.46,81,38.46"/><path class="cls-2" d="M8.7,264c40.51,0,40.51,38.46,81,38.46s40.51-38.46,81-38.46,40.51,38.46,81,38.46S292.29,264,332.8,264s40.52,38.46,81,38.46,40.51-38.46,81-38.46,40.51,38.46,81,38.46S616.38,264,656.9,264s40.51,38.46,81,38.46S778.44,264,819,264s40.51,38.46,81,38.46S940.49,264,981,264s40.51,38.46,81,38.46,40.52-38.46,81-38.46,40.52,38.46,81,38.46,40.52-38.46,81-38.46,40.51,38.46,81,38.46"/><path class="cls-2" d="M8.7,339.53c40.51,0,40.51,38.46,81,38.46s40.51-38.46,81-38.46,40.51,38.46,81,38.46,40.51-38.46,81-38.46,40.52,38.46,81,38.46,40.51-38.46,81-38.46,40.51,38.46,81,38.46,40.51-38.46,81-38.46,40.51,38.46,81,38.46,40.51-38.46,81-38.46S859.46,378,900,378s40.51-38.46,81-38.46S1021.52,378,1062,378s40.52-38.46,81-38.46,40.52,38.46,81,38.46,40.52-38.46,81-38.46,40.51,38.46,81,38.46"/><path class="cls-2" d="M8.7,415.06c40.51,0,40.51,38.46,81,38.46s40.51-38.46,81-38.46,40.51,38.46,81,38.46,40.51-38.46,81-38.46,40.52,38.46,81,38.46,40.51-38.46,81-38.46,40.51,38.46,81,38.46,40.51-38.46,81-38.46,40.51,38.46,81,38.46,40.51-38.46,81-38.46,40.51,38.46,81,38.46,40.51-38.46,81-38.46,40.51,38.46,81,38.46,40.52-38.46,81-38.46,40.52,38.46,81,38.46,40.52-38.46,81-38.46,40.51,38.46,81,38.46"/><path class="cls-2" d="M8.7,490.59c40.51,0,40.51,38.46,81,38.46s40.51-38.46,81-38.46,40.51,38.46,81,38.46,40.51-38.46,81-38.46,40.52,38.46,81,38.46,40.51-38.46,81-38.46,40.51,38.46,81,38.46,40.51-38.46,81-38.46,40.51,38.46,81,38.46,40.51-38.46,81-38.46,40.51,38.46,81,38.46,40.51-38.46,81-38.46,40.51,38.46,81,38.46,40.52-38.46,81-38.46,40.52,38.46,81,38.46,40.52-38.46,81-38.46,40.51,38.46,81,38.46"/><path class="cls-2" d="M8.7,566.12c40.51,0,40.51,38.45,81,38.45s40.51-38.45,81-38.45,40.51,38.45,81,38.45,40.51-38.45,81-38.45,40.52,38.45,81,38.45,40.51-38.45,81-38.45,40.51,38.45,81,38.45,40.51-38.45,81-38.45,40.51,38.45,81,38.45,40.51-38.45,81-38.45,40.51,38.45,81,38.45,40.51-38.45,81-38.45,40.51,38.45,81,38.45,40.52-38.45,81-38.45,40.52,38.45,81,38.45,40.52-38.45,81-38.45,40.51,38.45,81,38.45"/><path class="cls-2" d="M8.7,641.64c40.51,0,40.51,38.46,81,38.46s40.51-38.46,81-38.46,40.51,38.46,81,38.46,40.51-38.46,81-38.46,40.52,38.46,81,38.46,40.51-38.46,81-38.46,40.51,38.46,81,38.46,40.51-38.46,81-38.46,40.51,38.46,81,38.46,40.51-38.46,81-38.46,40.51,38.46,81,38.46,40.51-38.46,81-38.46,40.51,38.46,81,38.46,40.52-38.46,81-38.46,40.52,38.46,81,38.46,40.52-38.46,81-38.46,40.51,38.46,81,38.46"/><path class="cls-2" d="M8.7,717.17c40.51,0,40.51,38.46,81,38.46s40.51-38.46,81-38.46,40.51,38.46,81,38.46,40.51-38.46,81-38.46,40.52,38.46,81,38.46,40.51-38.46,81-38.46,40.51,38.46,81,38.46,40.51-38.46,81-38.46,40.51,38.46,81,38.46,40.51-38.46,81-38.46,40.51,38.46,81,38.46,40.51-38.46,81-38.46,40.51,38.46,81,38.46,40.52-38.46,81-38.46,40.52,38.46,81,38.46,40.52-38.46,81-38.46,40.51,38.46,81,38.46"/><path class="cls-2" d="M8.7,792.7c40.51,0,40.51,38.46,81,38.46s40.51-38.46,81-38.46,40.51,38.46,81,38.46,40.51-38.46,81-38.46,40.52,38.46,81,38.46,40.51-38.46,81-38.46,40.51,38.46,81,38.46,40.51-38.46,81-38.46,40.51,38.46,81,38.46,40.51-38.46,81-38.46,40.51,38.46,81,38.46,40.51-38.46,81-38.46,40.51,38.46,81,38.46,40.52-38.46,81-38.46,40.52,38.46,81,38.46,40.52-38.46,81-38.46,40.51,38.46,81,38.46"/><path class="cls-2" d="M8.7,868.23c40.51,0,40.51,38.45,81,38.45s40.51-38.45,81-38.45,40.51,38.45,81,38.45,40.51-38.45,81-38.45,40.52,38.45,81,38.45,40.51-38.45,81-38.45,40.51,38.45,81,38.45,40.51-38.45,81-38.45,40.51,38.45,81,38.45,40.51-38.45,81-38.45,40.51,38.45,81,38.45,40.51-38.45,81-38.45,40.51,38.45,81,38.45,40.52-38.45,81-38.45,40.52,38.45,81,38.45,40.52-38.45,81-38.45,40.51,38.45,81,38.45"/><path class="cls-2" d="M8.7,943.75c40.51,0,40.51,38.46,81,38.46s40.51-38.46,81-38.46,40.51,38.46,81,38.46,40.51-38.46,81-38.46,40.52,38.46,81,38.46,40.51-38.46,81-38.46,40.51,38.46,81,38.46,40.51-38.46,81-38.46,40.51,38.46,81,38.46,40.51-38.46,81-38.46,40.51,38.46,81,38.46,40.51-38.46,81-38.46,40.51,38.46,81,38.46,40.52-38.46,81-38.46,40.52,38.46,81,38.46,40.52-38.46,81-38.46,40.51,38.46,81,38.46"/><path class="cls-2" d="M8.7,1019.28c40.51,0,40.51,38.46,81,38.46s40.51-38.46,81-38.46,40.51,38.46,81,38.46,40.51-38.46,81-38.46,40.52,38.46,81,38.46,40.51-38.46,81-38.46,40.51,38.46,81,38.46,40.51-38.46,81-38.46,40.51,38.46,81,38.46,40.51-38.46,81-38.46,40.51,38.46,81,38.46,40.51-38.46,81-38.46,40.51,38.46,81,38.46,40.52-38.46,81-38.46,40.52,38.46,81,38.46,40.52-38.46,81-38.46,40.51,38.46,81,38.46"/><path class="cls-2" d="M8.7,1094.81c40.51,0,40.51,38.46,81,38.46s40.51-38.46,81-38.46,40.51,38.46,81,38.46,40.51-38.46,81-38.46,40.52,38.46,81,38.46,40.51-38.46,81-38.46,40.51,38.46,81,38.46,40.51-38.46,81-38.46,40.51,38.46,81,38.46,40.51-38.46,81-38.46,40.51,38.46,81,38.46,40.51-38.46,81-38.46,40.51,38.46,81,38.46,40.52-38.46,81-38.46,40.52,38.46,81,38.46,40.52-38.46,81-38.46,40.51,38.46,81,38.46"/><path class="cls-2" d="M8.7,1170.34c40.51,0,40.51,38.45,81,38.45s40.51-38.45,81-38.45,40.51,38.45,81,38.45,40.51-38.45,81-38.45,40.52,38.45,81,38.45,40.51-38.45,81-38.45,40.51,38.45,81,38.45,40.51-38.45,81-38.45,40.51,38.45,81,38.45,40.51-38.45,81-38.45,40.51,38.45,81,38.45,40.51-38.45,81-38.45,40.51,38.45,81,38.45,40.52-38.45,81-38.45,40.52,38.45,81,38.45,40.52-38.45,81-38.45,40.51,38.45,81,38.45"/><path class="cls-2" d="M8.7,1245.86c40.51,0,40.51,38.46,81,38.46s40.51-38.46,81-38.46,40.51,38.46,81,38.46,40.51-38.46,81-38.46,40.52,38.46,81,38.46,40.51-38.46,81-38.46,40.51,38.46,81,38.46,40.51-38.46,81-38.46,40.51,38.46,81,38.46,40.51-38.46,81-38.46,40.51,38.46,81,38.46,40.51-38.46,81-38.46,40.51,38.46,81,38.46,40.52-38.46,81-38.46,40.52,38.46,81,38.46,40.52-38.46,81-38.46,40.51,38.46,81,38.46"/><path class="cls-2" d="M8.7,1321.39c40.51,0,40.51,38.46,81,38.46s40.51-38.46,81-38.46,40.51,38.46,81,38.46,40.51-38.46,81-38.46,40.52,38.46,81,38.46,40.51-38.46,81-38.46,40.51,38.46,81,38.46,40.51-38.46,81-38.46,40.51,38.46,81,38.46,40.51-38.46,81-38.46,40.51,38.46,81,38.46,40.51-38.46,81-38.46,40.51,38.46,81,38.46,40.52-38.46,81-38.46,40.52,38.46,81,38.46,40.52-38.46,81-38.46,40.51,38.46,81,38.46"/><circle class="cls-3" cx="802.58" cy="593.02" r="486.05"/><rect class="cls-4" x="491.71" y="665.38" width="215.52" height="220.93"/><polygon class="cls-5" points="487.06 889.8 702.17 889.8 212.64 1379.34 4.5 1379.34 487.06 889.8"/><polygon class="cls-6" points="487.06 889.8 487.06 674.69 4.5 1157.24 4.5 1379.34 487.06 889.8"/><polygon class="cls-7" points="4.5 1157.24 487.06 674.69 487.06 889.8 702.17 889.8 212.64 1379.34 4.5 1379.34 4.5 1157.24"/><path class="cls-7" d="M487.06,889.8,4.5,1379.34Z"/><path class="cls-7" d="M485.92,787.08,3.36,1276.62Z"/><path class="cls-7" d="M592.1,889.1,109.55,1378.64Z"/><polyline class="cls-8" points="491.71 669.98 707.23 669.98 707.23 886.31"/></g></g></svg>