<svg xmlns="http://www.w3.org/2000/svg" xmlns:xlink="http://www.w3.org/1999/xlink" viewBox="0 0 224.75 224.75"><defs><style>.cls-1{fill:url(#radial-gradient);}.cls-2{fill:#fff;}</style><radialGradient id="radial-gradient" cx="110.61" cy="121.19" fx="-22.71917704354243" r="317.66" gradientTransform="translate(-36.16 140.62) rotate(-49.2) scale(1 0.81)" gradientUnits="userSpaceOnUse"><stop offset="0" stop-color="#f9ed32"/><stop offset="0.05" stop-color="#f8d939"/><stop offset="0.17" stop-color="#f5a54d"/><stop offset="0.33" stop-color="#f0536c"/><stop offset="0.4" stop-color="#ee2a7b"/><stop offset="0.56" stop-color="#9e2aa7"/><stop offset="0.72" stop-color="#5b2acd"/><stop offset="0.85" stop-color="#2a2ae8"/><stop offset="0.95" stop-color="#0b2af9"/><stop offset="1" stop-color="#002aff"/></radialGradient></defs><title>insta_color</title><g id="Capa_2" data-name="Capa 2"><g id="OBJECTS"><path class="cls-1" d="M224.75,112.38A112.38,112.38,0,1,1,112.37,0,112.37,112.37,0,0,1,224.75,112.38Z"/><path class="cls-2" d="M142.82,188.22H81.93a49.07,49.07,0,0,1-49-49V85.55a49.07,49.07,0,0,1,49-49h60.89a49.07,49.07,0,0,1,49,49V139.2A49.07,49.07,0,0,1,142.82,188.22ZM81.93,47.43A38.16,38.16,0,0,0,43.81,85.55V139.2a38.16,38.16,0,0,0,38.12,38.12h60.89a38.16,38.16,0,0,0,38.12-38.12V85.55a38.16,38.16,0,0,0-38.12-38.12Z"/><path class="cls-2" d="M112.37,156A43.63,43.63,0,1,1,156,112.38,43.67,43.67,0,0,1,112.37,156Zm0-76.36a32.74,32.74,0,1,0,32.74,32.74A32.77,32.77,0,0,0,112.37,79.64Z"/><path class="cls-2" d="M164.39,70.09A9.06,9.06,0,1,1,155.33,61,9.06,9.06,0,0,1,164.39,70.09Z"/></g></g></svg>