<svg xmlns="http://www.w3.org/2000/svg" viewBox="0 0 1171.17 1171.29"><defs><style>.cls-1{fill:#bffaff;}.cls-2{fill:#0ee1f1;}.cls-3{fill:#ffc861;stroke:#f3a401;stroke-width:3.48px;}.cls-18,.cls-20,.cls-21,.cls-22,.cls-23,.cls-24,.cls-25,.cls-26,.cls-3{stroke-miterlimit:10;}.cls-4{fill:#f2d7ac;}.cls-5{fill:#b3bb7d;}.cls-6{fill:#40a07f;}.cls-7{fill:#42826c;}.cls-8{fill:#a5c77f;}.cls-9{fill:#60dd8e;}.cls-10,.cls-21{fill:#91aa9d;}.cls-11,.cls-20{fill:#d1dbbd;}.cls-12{fill:#e2ce93;}.cls-13{fill:#868686;}.cls-14{fill:#f2a6a5;}.cls-15{fill:#d9bd9c;}.cls-16{fill:#fff0a5;}.cls-17{fill:#cea97b;}.cls-18,.cls-22,.cls-23,.cls-24,.cls-25{fill:none;}.cls-18,.cls-20,.cls-21,.cls-22,.cls-23,.cls-24,.cls-25,.cls-26{stroke:#000;}.cls-18{stroke-width:2.16px;}.cls-19{fill:#fee778;opacity:0.49;}.cls-20,.cls-21,.cls-22{stroke-width:3.72px;}.cls-23{stroke-width:1.86px;}.cls-24{stroke-width:0.37px;}.cls-25{stroke-width:0.33px;}.cls-26,.cls-27{font-size:48.51px;font-family:Pacifico-Regular, Pacifico;}.cls-26{stroke-width:2px;}.cls-27{fill:#fff;}</style></defs><title>nave</title><g id="Capa_2" data-name="Capa 2"><g id="Capa_2-2" data-name="Capa 2"><rect class="cls-1" x="0.66" width="1170" height="1170"/><path class="cls-2" d="M1058.85,521.74c2.69-4.66,4.86-5.91,6.53-5.65,2.77.44,4.14,5.06,4.14,5.06,5.41-11.84,18.13,5.7,18.13,5.7h-67.87a.91.91,0,0,1-.72-1.47c3.23-4,12.46-14.48,15.1-5.25,0,0,6.13-15.05,14.17-7.16,0,0,8.77-16.08,20.46,4.09"/><path d="M1058.85,521.74a23.46,23.46,0,0,1,2.11-3.4,6.57,6.57,0,0,1,3.22-2.53,3.16,3.16,0,0,1,2.2.17,5.06,5.06,0,0,1,1.72,1.34,11.64,11.64,0,0,1,2.05,3.65l-1.22-.09a10.51,10.51,0,0,1,1.63-2.73,5.8,5.8,0,0,1,2.87-1.83,6.18,6.18,0,0,1,3.37.18,13.36,13.36,0,0,1,2.88,1.36,27,27,0,0,1,4.72,3.89,44.68,44.68,0,0,1,4,4.59l1,1.39h-69.56a2.29,2.29,0,0,1-.61-.09,1.74,1.74,0,0,1-1.23-1.53,1.76,1.76,0,0,1,.39-1.29l.45-.55c.6-.74,1.23-1.47,1.87-2.18a35.31,35.31,0,0,1,4.19-4,17.23,17.23,0,0,1,2.48-1.65,6.72,6.72,0,0,1,3.09-.88,4,4,0,0,1,3.14,1.48,8.2,8.2,0,0,1,1.39,2.85l-1.66-.09a27.72,27.72,0,0,1,2.4-4.42,16.76,16.76,0,0,1,3.38-3.83,7.09,7.09,0,0,1,5.11-1.71,8.31,8.31,0,0,1,4.72,2.5l-1.39.21a18.14,18.14,0,0,1,2.14-2.92,11.06,11.06,0,0,1,2.85-2.27,8.93,8.93,0,0,1,3.54-1.1,7.66,7.66,0,0,1,3.62.62,14.29,14.29,0,0,1,5.4,4.4,35.51,35.51,0,0,1,3.68,5.78,37.45,37.45,0,0,0-4.13-5.38,13.38,13.38,0,0,0-5.34-3.76,6.58,6.58,0,0,0-5.92.84,15.36,15.36,0,0,0-4.3,4.63l-.57,1-.81-.79a6.63,6.63,0,0,0-3.68-2,5.38,5.38,0,0,0-3.83,1.35,15,15,0,0,0-3,3.42,26,26,0,0,0-2.23,4.11l-1,2.24-.69-2.33a6.33,6.33,0,0,0-1-2.2,2.14,2.14,0,0,0-1.78-.86,5.06,5.06,0,0,0-2.29.69,14.62,14.62,0,0,0-2.21,1.47,33.82,33.82,0,0,0-4,3.8c-.62.68-1.23,1.39-1.81,2.11l-.44.54,0,0,0,0h67.89l-.71,1.4a42.5,42.5,0,0,0-3.78-4.39,26,26,0,0,0-4.4-3.63,7.11,7.11,0,0,0-4.94-1.31,4.09,4.09,0,0,0-2.14,1.16,8.75,8.75,0,0,0-1.56,2.22l-.8,1.42-.42-1.5a10.73,10.73,0,0,0-1.58-3.39,3,3,0,0,0-3-1.46,6.39,6.39,0,0,0-3.11,2.09A22.59,22.59,0,0,0,1058.85,521.74Z"/><path class="cls-2" d="M1128.71,540.88c8.77-4.82,11.26,1.61,11.26,1.61,15.42-7.23,17.33,5.71,17.53,10.47a1.59,1.59,0,0,1-1.6,1.66h-71.8a1.08,1.08,0,0,1-1.09-1.17c.33-3.68,2.84-14.69,21.15-12.86,0,0,14.76-26.89,31.28-2.05"/><path d="M1128.71,540.88l1.42-.78c.49-.24,1-.44,1.5-.66a9.55,9.55,0,0,1,3.24-.61,6.1,6.1,0,0,1,5.58,3.47l-.7-.28a20.87,20.87,0,0,1,8-2.49,8.69,8.69,0,0,1,4.35.77,9,9,0,0,1,3.42,2.88,16.88,16.88,0,0,1,2.74,8c0,.35.07.7.09,1l0,.53v.32a2.71,2.71,0,0,1,0,.4,2.47,2.47,0,0,1-2.19,2l-4.15,0H1084.1a2.32,2.32,0,0,1-.45-.06,1.94,1.94,0,0,1-1.36-1.13,2.05,2.05,0,0,1-.15-.91l.06-.55c0-.36.11-.71.17-1.06a18.2,18.2,0,0,1,.56-2.08,13.84,13.84,0,0,1,5.07-6.86,18.46,18.46,0,0,1,7.91-3,35.29,35.29,0,0,1,8.34-.12l-.86.45a35.6,35.6,0,0,1,6.46-8.13,23.44,23.44,0,0,1,4.25-3.11,12.48,12.48,0,0,1,5.1-1.59,13.33,13.33,0,0,1,9.77,3.36,30,30,0,0,1,6.47,7.84,31.54,31.54,0,0,0-7-7.19,12.14,12.14,0,0,0-9.07-2.47,17.13,17.13,0,0,0-8.36,4.46,33.77,33.77,0,0,0-6.11,7.67l-.29.49-.57,0a33.55,33.55,0,0,0-7.89.11,16.7,16.7,0,0,0-7.15,2.7,12.09,12.09,0,0,0-4.44,6,14.71,14.71,0,0,0-.5,1.84c0,.32-.12.63-.15,1l0,.46a.25.25,0,0,0,0,.09.24.24,0,0,0,.14.12H1156a.75.75,0,0,0,.64-.57.41.41,0,0,0,0-.11v-.18l0-.49-.09-1a15.13,15.13,0,0,0-2.41-7.2,8.26,8.26,0,0,0-1.23-1.34,6.68,6.68,0,0,0-1.52-1,9.22,9.22,0,0,0-3.56-.75,19.63,19.63,0,0,0-7.59,1.79l-.51.21-.2-.49a5.33,5.33,0,0,0-1.8-2.29,5.56,5.56,0,0,0-2.84-1,9.49,9.49,0,0,0-3.12.33c-.51.17-1,.32-1.53.51Z"/><path class="cls-2" d="M1100.65,547.6c.73-.58.59-10.08,12-8"/><path d="M1100.65,547.6c.16-.66.11-1.37.22-2.07a9.89,9.89,0,0,1,.53-2.11,7.19,7.19,0,0,1,2.77-3.53,7.89,7.89,0,0,1,4.29-1.23,14,14,0,0,1,2.16.22,17.15,17.15,0,0,1,2,.69c-.72.1-1.4.13-2.08.17l-1,.14a6.13,6.13,0,0,0-1,.15c-.31.08-.63.15-.94.2a9.37,9.37,0,0,0-.89.31,3.81,3.81,0,0,0-.44.15l-.4.2a3.56,3.56,0,0,0-.78.46,8.05,8.05,0,0,0-2.51,2.67,16.07,16.07,0,0,0-.94,1.75l-.45.93A2.56,2.56,0,0,1,1100.65,547.6Z"/><circle class="cls-3" cx="136.33" cy="540.45" r="58.83"/><rect class="cls-4" x="0.66" y="597.98" width="1170" height="573.31"/><rect class="cls-5" x="0.66" y="595.98" width="1170" height="157.49"/><polygon class="cls-6" points="1105.13 619.48 1088.93 671.25 1121.34 671.25 1105.13 619.48"/><polygon class="cls-6" points="1129.14 632.97 1112.94 684.75 1145.34 684.75 1129.14 632.97"/><polygon class="cls-6" points="1067.64 626.97 1051.44 678.75 1083.85 678.75 1067.64 626.97"/><polygon class="cls-6" points="1088.64 646.47 1072.44 698.25 1104.85 698.25 1088.64 646.47"/><polygon class="cls-7" points="1085.15 614.85 1068.95 666.63 1101.36 666.63 1085.15 614.85"/><polygon class="cls-8" points="1067.68 650.83 1051.48 702.61 1083.88 702.61 1067.68 650.83"/><polygon class="cls-9" points="1106.66 646.35 1090.45 698.13 1122.86 698.13 1106.66 646.35"/><polygon class="cls-6" points="1138.01 563.23 1121.81 615 1154.22 615 1138.01 563.23"/><polygon class="cls-6" points="1100.53 570.72 1084.32 622.49 1116.73 622.49 1100.53 570.72"/><polygon class="cls-6" points="1121.53 590.22 1105.32 641.99 1137.73 641.99 1121.53 590.22"/><polygon class="cls-7" points="1118.03 558.6 1101.83 610.37 1134.24 610.37 1118.03 558.6"/><polygon class="cls-8" points="1100.56 594.58 1084.36 646.35 1116.76 646.35 1100.56 594.58"/><polygon class="cls-9" points="1139.54 590.1 1123.34 641.87 1155.74 641.87 1139.54 590.1"/><polygon class="cls-6" points="1072.78 559.01 1056.58 610.79 1088.98 610.79 1072.78 559.01"/><polygon class="cls-6" points="1096.79 572.51 1080.59 624.28 1112.99 624.28 1096.79 572.51"/><polygon class="cls-6" points="1056.29 586.01 1040.09 637.78 1072.49 637.78 1056.29 586.01"/><polygon class="cls-9" points="1074.31 585.89 1058.1 637.66 1090.51 637.66 1074.31 585.89"/><polygon class="cls-6" points="1151.36 613.68 1135.16 665.46 1167.56 665.46 1151.36 613.68"/><polygon class="cls-6" points="1113.87 621.18 1097.67 672.95 1130.08 672.95 1113.87 621.18"/><polygon class="cls-6" points="1134.87 640.68 1118.67 692.45 1151.08 692.45 1134.87 640.68"/><polygon class="cls-7" points="1131.38 609.06 1115.18 660.83 1147.58 660.83 1131.38 609.06"/><polygon class="cls-8" points="1113.91 645.04 1097.7 696.81 1130.11 696.81 1113.91 645.04"/><polygon class="cls-9" points="1152.89 640.56 1136.68 692.33 1169.09 692.33 1152.89 640.56"/><polygon class="cls-6" points="1018.25 678.7 1002.04 730.47 1034.45 730.47 1018.25 678.7"/><polygon class="cls-6" points="1110.75 547.7 1094.55 599.47 1126.95 599.47 1110.75 547.7"/><polygon class="cls-6" points="1131.75 567.2 1115.55 618.97 1147.95 618.97 1131.75 567.2"/><polygon class="cls-8" points="1110.78 571.56 1094.58 623.34 1126.99 623.34 1110.78 571.56"/><polygon class="cls-9" points="1149.76 567.08 1133.56 618.85 1165.96 618.85 1149.76 567.08"/><polygon class="cls-6" points="55.31 554.45 39.11 606.22 71.52 606.22 55.31 554.45"/><polygon class="cls-6" points="79.32 567.94 63.12 619.72 95.52 619.72 79.32 567.94"/><polygon class="cls-6" points="17.82 561.94 1.62 613.72 34.03 613.72 17.82 561.94"/><polygon class="cls-6" points="38.82 581.44 22.62 633.21 55.03 633.21 38.82 581.44"/><polygon class="cls-7" points="35.33 549.82 19.13 601.6 51.53 601.6 35.33 549.82"/><polygon class="cls-8" points="17.86 585.8 1.66 637.58 34.06 637.58 17.86 585.8"/><polygon class="cls-9" points="56.84 581.32 40.63 633.09 73.04 633.09 56.84 581.32"/><polygon class="cls-6" points="77.71 579.02 61.5 630.79 93.91 630.79 77.71 579.02"/><polygon class="cls-6" points="64.05 556.15 47.85 607.92 80.26 607.92 64.05 556.15"/><polygon class="cls-6" points="85.05 575.64 68.85 627.42 101.25 627.42 85.05 575.64"/><polygon class="cls-8" points="64.09 580.01 47.88 631.78 80.29 631.78 64.09 580.01"/><polygon class="cls-9" points="103.07 575.52 86.86 627.3 119.27 627.3 103.07 575.52"/><polygon class="cls-10" points="440.01 626.22 463.07 611.8 472.2 616.13 477.48 613.96 484.93 595.71 492.62 595.71 526.49 552.7 519.28 580.81 525.05 588.74 523.61 595.23 531.53 606.76 516.64 627.42 440.01 626.22"/><polygon class="cls-11" points="516.4 628.14 531.53 606.76 523.61 595.23 525.05 588.74 519.04 580.09 526.97 554.39 554.36 584.41 587.03 585.86 638.44 624.29 516.4 628.14"/><polygon class="cls-6" points="86.35 688.72 74.67 726.04 98.03 726.04 86.35 688.72"/><polygon class="cls-6" points="103.66 698.45 91.98 735.76 115.33 735.76 103.66 698.45"/><polygon class="cls-6" points="59.34 694.12 47.66 731.44 71.01 731.44 59.34 694.12"/><polygon class="cls-6" points="74.47 708.17 62.79 745.49 86.15 745.49 74.47 708.17"/><polygon class="cls-7" points="71.95 685.39 60.28 722.7 83.63 722.7 71.95 685.39"/><polygon class="cls-8" points="59.36 711.32 47.68 748.63 71.04 748.63 59.36 711.32"/><polygon class="cls-9" points="87.45 708.09 75.77 745.4 99.13 745.4 87.45 708.09"/><polygon class="cls-6" points="88.51 649.08 76.84 686.4 100.19 686.4 88.51 649.08"/><polygon class="cls-6" points="105.82 658.81 94.14 696.12 117.49 696.12 105.82 658.81"/><polygon class="cls-6" points="61.5 654.48 49.82 691.8 73.17 691.8 61.5 654.48"/><polygon class="cls-6" points="76.63 668.54 64.95 705.85 88.31 705.85 76.63 668.54"/><polygon class="cls-7" points="74.11 645.75 62.44 683.06 85.79 683.06 74.11 645.75"/><polygon class="cls-8" points="61.52 671.68 49.84 708.99 73.2 708.99 61.52 671.68"/><polygon class="cls-9" points="89.61 668.45 77.94 705.76 101.29 705.76 89.61 668.45"/><polygon class="cls-6" points="125.89 620.5 114.21 657.82 137.57 657.82 125.89 620.5"/><polygon class="cls-6" points="143.19 630.23 131.52 667.54 154.87 667.54 143.19 630.23"/><polygon class="cls-6" points="98.87 625.9 87.19 663.22 110.55 663.22 98.87 625.9"/><polygon class="cls-6" points="114.01 639.96 102.33 677.27 125.68 677.27 114.01 639.96"/><polygon class="cls-7" points="111.49 617.17 99.81 654.48 123.17 654.48 111.49 617.17"/><polygon class="cls-8" points="98.9 643.1 87.22 680.41 110.57 680.41 98.9 643.1"/><polygon class="cls-9" points="126.99 639.87 115.31 677.18 138.66 677.18 126.99 639.87"/><polygon class="cls-6" points="136.55 684.82 124.87 722.13 148.23 722.13 136.55 684.82"/><polygon class="cls-6" points="153.85 694.54 142.18 731.85 165.53 731.85 153.85 694.54"/><polygon class="cls-6" points="109.53 690.22 97.86 727.53 121.21 727.53 109.53 690.22"/><polygon class="cls-6" points="124.67 704.27 112.99 741.58 136.34 741.58 124.67 704.27"/><polygon class="cls-7" points="122.15 681.48 110.47 718.8 133.83 718.8 122.15 681.48"/><polygon class="cls-8" points="109.56 707.41 97.88 744.73 121.23 744.73 109.56 707.41"/><polygon class="cls-9" points="137.65 704.18 125.97 741.5 149.33 741.5 137.65 704.18"/><polygon class="cls-6" points="170.21 624.83 158.53 662.14 181.89 662.14 170.21 624.83"/><polygon class="cls-6" points="187.51 634.55 175.84 671.86 199.19 671.86 187.51 634.55"/><polygon class="cls-6" points="143.19 630.23 131.52 667.54 154.87 667.54 143.19 630.23"/><polygon class="cls-6" points="158.33 644.28 146.65 681.59 170 681.59 158.33 644.28"/><polygon class="cls-7" points="155.81 621.49 144.13 658.81 167.49 658.81 155.81 621.49"/><polygon class="cls-8" points="143.22 647.42 131.54 684.74 154.89 684.74 143.22 647.42"/><polygon class="cls-9" points="171.31 644.19 159.63 681.51 182.99 681.51 171.31 644.19"/><polygon class="cls-6" points="143.97 666.26 132.3 703.58 155.65 703.58 143.97 666.26"/><polygon class="cls-6" points="161.28 675.99 149.6 713.3 172.95 713.3 161.28 675.99"/><polygon class="cls-6" points="116.95 671.66 105.28 708.98 128.63 708.98 116.95 671.66"/><polygon class="cls-6" points="132.09 685.72 120.41 723.03 143.77 723.03 132.09 685.72"/><polygon class="cls-7" points="129.57 662.93 117.9 700.25 141.25 700.25 129.57 662.93"/><polygon class="cls-8" points="116.98 688.86 105.3 726.18 128.66 726.18 116.98 688.86"/><polygon class="cls-9" points="145.07 685.63 133.39 722.95 156.75 722.95 145.07 685.63"/><polygon class="cls-6" points="185.09 683.68 173.41 720.99 196.76 720.99 185.09 683.68"/><polygon class="cls-6" points="202.39 693.4 190.71 730.72 214.07 730.72 202.39 693.4"/><polygon class="cls-6" points="158.07 689.08 146.39 726.39 169.75 726.39 158.07 689.08"/><polygon class="cls-6" points="173.2 703.13 161.53 740.44 184.88 740.44 173.2 703.13"/><polygon class="cls-7" points="170.69 680.34 159.01 717.66 182.36 717.66 170.69 680.34"/><polygon class="cls-8" points="158.09 706.27 146.42 743.59 169.77 743.59 158.09 706.27"/><polygon class="cls-9" points="186.19 703.04 174.51 740.36 197.86 740.36 186.19 703.04"/><polygon class="cls-6" points="196.94 649.29 185.27 686.61 208.62 686.61 196.94 649.29"/><polygon class="cls-6" points="214.25 659.01 202.57 696.33 225.93 696.33 214.25 659.01"/><polygon class="cls-6" points="169.93 654.69 158.25 692 181.6 692 169.93 654.69"/><polygon class="cls-6" points="185.06 668.74 173.38 706.06 196.74 706.06 185.06 668.74"/><polygon class="cls-7" points="182.54 645.96 170.87 683.27 194.22 683.27 182.54 645.96"/><polygon class="cls-8" points="169.95 671.89 158.28 709.2 181.63 709.2 169.95 671.89"/><polygon class="cls-9" points="198.04 668.66 186.37 705.97 209.72 705.97 198.04 668.66"/><polygon class="cls-6" points="245.79 640.59 234.11 677.9 257.47 677.9 245.79 640.59"/><polygon class="cls-6" points="263.09 650.31 251.42 687.62 274.77 687.62 263.09 650.31"/><polygon class="cls-6" points="218.77 645.98 207.1 683.3 230.45 683.3 218.77 645.98"/><polygon class="cls-6" points="233.91 660.04 222.23 697.35 245.58 697.35 233.91 660.04"/><polygon class="cls-7" points="231.39 637.25 219.71 674.57 243.07 674.57 231.39 637.25"/><polygon class="cls-8" points="218.8 663.18 207.12 700.5 230.47 700.5 218.8 663.18"/><polygon class="cls-9" points="246.89 659.95 235.21 697.27 258.56 697.27 246.89 659.95"/><polygon class="cls-6" points="231.97 680.93 220.29 718.24 243.65 718.24 231.97 680.93"/><polygon class="cls-6" points="249.28 690.65 237.6 727.96 260.95 727.96 249.28 690.65"/><polygon class="cls-6" points="204.95 686.33 193.28 723.64 216.63 723.64 204.95 686.33"/><polygon class="cls-6" points="220.09 700.38 208.41 737.69 231.76 737.69 220.09 700.38"/><polygon class="cls-7" points="217.57 677.59 205.9 714.91 229.25 714.91 217.57 677.59"/><polygon class="cls-8" points="204.98 703.52 193.3 740.84 216.66 740.84 204.98 703.52"/><polygon class="cls-9" points="233.07 700.29 221.39 737.61 244.75 737.61 233.07 700.29"/><polygon class="cls-6" points="280.22 688 268.54 725.32 291.89 725.32 280.22 688"/><polygon class="cls-6" points="297.52 697.73 285.85 735.04 309.2 735.04 297.52 697.73"/><polygon class="cls-6" points="253.2 693.4 241.53 730.72 264.88 730.72 253.2 693.4"/><polygon class="cls-6" points="268.33 707.45 256.66 744.77 280.01 744.77 268.33 707.45"/><polygon class="cls-7" points="265.82 684.67 254.14 721.98 277.5 721.98 265.82 684.67"/><polygon class="cls-8" points="253.23 710.6 241.55 747.91 264.9 747.91 253.23 710.6"/><polygon class="cls-9" points="281.32 707.37 269.64 744.68 292.99 744.68 281.32 707.37"/><polygon class="cls-6" points="296.69 646.09 285.02 683.4 308.37 683.4 296.69 646.09"/><polygon class="cls-6" points="314 655.81 302.32 693.12 325.68 693.12 314 655.81"/><polygon class="cls-6" points="269.68 651.49 258 688.8 281.35 688.8 269.68 651.49"/><polygon class="cls-6" points="284.81 665.54 273.13 702.85 296.49 702.85 284.81 665.54"/><polygon class="cls-7" points="282.3 642.75 270.62 680.07 293.97 680.07 282.3 642.75"/><polygon class="cls-8" points="269.7 668.68 258.02 706 281.38 706 269.7 668.68"/><polygon class="cls-9" points="297.79 665.45 286.12 702.77 309.47 702.77 297.79 665.45"/><polygon class="cls-6" points="336.9 689.21 325.22 726.53 348.58 726.53 336.9 689.21"/><polygon class="cls-6" points="354.2 698.94 342.53 736.25 365.88 736.25 354.2 698.94"/><polygon class="cls-6" points="309.88 694.61 298.21 731.93 321.56 731.93 309.88 694.61"/><polygon class="cls-6" points="325.02 708.67 313.34 745.98 336.69 745.98 325.02 708.67"/><polygon class="cls-7" points="322.5 685.88 310.82 723.19 334.18 723.19 322.5 685.88"/><polygon class="cls-8" points="309.91 711.81 298.23 749.12 321.58 749.12 309.91 711.81"/><polygon class="cls-9" points="338 708.58 326.32 745.89 349.68 745.89 338 708.58"/><polygon class="cls-6" points="333.56 660.99 321.88 698.31 345.23 698.31 333.56 660.99"/><polygon class="cls-6" points="350.86 670.72 339.18 708.03 362.54 708.03 350.86 670.72"/><polygon class="cls-6" points="306.54 666.39 294.86 703.71 318.21 703.71 306.54 666.39"/><polygon class="cls-6" points="321.67 680.44 310 717.76 333.35 717.76 321.67 680.44"/><polygon class="cls-7" points="319.15 657.66 307.48 694.97 330.83 694.97 319.15 657.66"/><polygon class="cls-8" points="306.56 683.59 294.88 720.9 318.24 720.9 306.56 683.59"/><polygon class="cls-9" points="334.65 680.36 322.98 717.67 346.33 717.67 334.65 680.36"/><polygon class="cls-6" points="420.5 690.65 408.82 727.97 432.18 727.97 420.5 690.65"/><polygon class="cls-6" points="437.8 700.38 426.13 737.69 449.48 737.69 437.8 700.38"/><polygon class="cls-6" points="393.48 696.05 381.81 733.37 405.16 733.37 393.48 696.05"/><polygon class="cls-6" points="408.62 710.11 396.94 747.42 420.29 747.42 408.62 710.11"/><polygon class="cls-7" points="406.1 687.32 394.42 724.63 417.78 724.63 406.1 687.32"/><polygon class="cls-8" points="393.51 713.25 381.83 750.57 405.18 750.57 393.51 713.25"/><polygon class="cls-9" points="421.6 710.02 409.92 747.34 433.28 747.34 421.6 710.02"/><polygon class="cls-6" points="473 696.01 461.32 733.33 484.68 733.33 473 696.01"/><polygon class="cls-6" points="490.3 705.74 478.62 743.05 501.98 743.05 490.3 705.74"/><polygon class="cls-6" points="445.98 701.41 434.3 738.73 457.66 738.73 445.98 701.41"/><polygon class="cls-6" points="461.12 715.47 449.44 752.78 472.79 752.78 461.12 715.47"/><polygon class="cls-7" points="458.6 692.68 446.92 730 470.27 730 458.6 692.68"/><polygon class="cls-8" points="446 718.61 434.33 755.92 457.68 755.92 446 718.61"/><polygon class="cls-9" points="474.1 715.38 462.42 752.7 485.77 752.7 474.1 715.38"/><polygon class="cls-6" points="549.39 696.01 537.71 733.33 561.07 733.33 549.39 696.01"/><polygon class="cls-6" points="566.7 705.74 555.02 743.05 578.37 743.05 566.7 705.74"/><polygon class="cls-6" points="522.37 701.41 510.7 738.73 534.05 738.73 522.37 701.41"/><polygon class="cls-6" points="537.51 715.47 525.83 752.78 549.18 752.78 537.51 715.47"/><polygon class="cls-7" points="534.99 692.68 523.32 730 546.67 730 534.99 692.68"/><polygon class="cls-8" points="522.4 718.61 510.72 755.92 534.08 755.92 522.4 718.61"/><polygon class="cls-9" points="550.49 715.38 538.81 752.7 562.17 752.7 550.49 715.38"/><polygon class="cls-6" points="599.52 696.78 587.85 734.1 611.2 734.1 599.52 696.78"/><polygon class="cls-6" points="616.83 706.5 605.15 743.82 628.5 743.82 616.83 706.5"/><polygon class="cls-6" points="572.51 702.18 560.83 739.5 584.18 739.5 572.51 702.18"/><polygon class="cls-6" points="587.64 716.23 575.96 753.55 599.32 753.55 587.64 716.23"/><polygon class="cls-7" points="585.13 693.45 573.45 730.76 596.8 730.76 585.13 693.45"/><polygon class="cls-8" points="572.53 719.38 560.86 756.69 584.21 756.69 572.53 719.38"/><polygon class="cls-9" points="600.62 716.15 588.95 753.46 612.3 753.46 600.62 716.15"/><polygon class="cls-6" points="651.99 695.54 640.31 732.86 663.66 732.86 651.99 695.54"/><polygon class="cls-6" points="669.29 705.26 657.61 742.58 680.97 742.58 669.29 705.26"/><polygon class="cls-6" points="624.97 700.94 613.29 738.25 636.64 738.25 624.97 700.94"/><polygon class="cls-6" points="640.1 714.99 628.42 752.31 651.78 752.31 640.1 714.99"/><polygon class="cls-7" points="637.59 692.21 625.91 729.52 649.26 729.52 637.59 692.21"/><polygon class="cls-8" points="624.99 718.14 613.32 755.45 636.67 755.45 624.99 718.14"/><polygon class="cls-9" points="653.08 714.91 641.41 752.22 664.76 752.22 653.08 714.91"/><polygon class="cls-6" points="709.07 698.22 697.39 735.54 720.75 735.54 709.07 698.22"/><polygon class="cls-6" points="726.37 707.95 714.7 745.26 738.05 745.26 726.37 707.95"/><polygon class="cls-6" points="682.05 703.62 670.38 740.94 693.73 740.94 682.05 703.62"/><polygon class="cls-6" points="697.19 717.67 685.51 754.99 708.86 754.99 697.19 717.67"/><polygon class="cls-7" points="694.67 694.89 682.99 732.2 706.35 732.2 694.67 694.89"/><polygon class="cls-8" points="682.08 720.82 670.4 758.13 693.75 758.13 682.08 720.82"/><polygon class="cls-9" points="710.17 717.59 698.49 754.9 721.85 754.9 710.17 717.59"/><polygon class="cls-6" points="755.2 700.02 743.52 737.34 766.87 737.34 755.2 700.02"/><polygon class="cls-6" points="772.5 709.75 760.82 747.06 784.17 747.06 772.5 709.75"/><polygon class="cls-6" points="728.18 705.42 716.5 742.74 739.85 742.74 728.18 705.42"/><polygon class="cls-6" points="743.31 719.48 731.63 756.79 754.99 756.79 743.31 719.48"/><polygon class="cls-7" points="740.79 696.69 729.12 734 752.47 734 740.79 696.69"/><polygon class="cls-8" points="728.2 722.62 716.52 759.93 739.88 759.93 728.2 722.62"/><polygon class="cls-9" points="756.29 719.39 744.62 756.71 767.97 756.71 756.29 719.39"/><polygon class="cls-6" points="812.81 698.81 801.13 736.13 824.49 736.13 812.81 698.81"/><polygon class="cls-6" points="830.11 708.53 818.44 745.85 841.79 745.85 830.11 708.53"/><polygon class="cls-6" points="785.79 704.21 774.12 741.53 797.47 741.53 785.79 704.21"/><polygon class="cls-6" points="800.93 718.26 789.25 755.58 812.6 755.58 800.93 718.26"/><polygon class="cls-7" points="798.41 695.48 786.73 732.79 810.09 732.79 798.41 695.48"/><polygon class="cls-8" points="785.82 721.41 774.14 758.72 797.49 758.72 785.82 721.41"/><polygon class="cls-9" points="813.91 718.18 802.23 755.49 825.59 755.49 813.91 718.18"/><polygon class="cls-6" points="790.47 670.71 778.79 708.02 802.14 708.02 790.47 670.71"/><polygon class="cls-6" points="807.77 680.43 796.1 717.74 819.45 717.74 807.77 680.43"/><polygon class="cls-6" points="763.45 676.1 751.77 713.42 775.13 713.42 763.45 676.1"/><polygon class="cls-6" points="778.59 690.16 766.91 727.47 790.26 727.47 778.59 690.16"/><polygon class="cls-7" points="776.07 667.37 764.39 704.68 787.75 704.68 776.07 667.37"/><polygon class="cls-8" points="763.48 693.3 751.8 730.62 775.15 730.62 763.48 693.3"/><polygon class="cls-9" points="791.57 690.07 779.89 727.38 803.24 727.38 791.57 690.07"/><polygon class="cls-6" points="861.04 704.21 849.36 741.53 872.71 741.53 861.04 704.21"/><polygon class="cls-6" points="878.34 713.93 866.66 751.25 890.02 751.25 878.34 713.93"/><polygon class="cls-6" points="834.02 709.61 822.34 746.92 845.7 746.92 834.02 709.61"/><polygon class="cls-6" points="849.15 723.66 837.48 760.98 860.83 760.98 849.15 723.66"/><polygon class="cls-7" points="846.64 700.88 834.96 738.19 858.31 738.19 846.64 700.88"/><polygon class="cls-8" points="834.04 726.81 822.37 764.12 845.72 764.12 834.04 726.81"/><polygon class="cls-9" points="862.13 723.58 850.46 760.89 873.81 760.89 862.13 723.58"/><polygon class="cls-6" points="849.88 664.84 838.2 702.16 861.56 702.16 849.88 664.84"/><polygon class="cls-6" points="867.18 674.57 855.51 711.88 878.86 711.88 867.18 674.57"/><polygon class="cls-6" points="822.86 670.24 811.19 707.56 834.54 707.56 822.86 670.24"/><polygon class="cls-6" points="838 684.29 826.32 721.61 849.67 721.61 838 684.29"/><polygon class="cls-7" points="835.48 661.51 823.8 698.82 847.16 698.82 835.48 661.51"/><polygon class="cls-8" points="822.89 687.44 811.21 724.75 834.57 724.75 822.89 687.44"/><polygon class="cls-9" points="850.98 684.21 839.3 721.52 862.66 721.52 850.98 684.21"/><polygon class="cls-6" points="900.16 699.01 888.48 736.33 911.84 736.33 900.16 699.01"/><polygon class="cls-6" points="917.46 708.74 905.79 746.05 929.14 746.05 917.46 708.74"/><polygon class="cls-6" points="873.14 704.41 861.47 741.73 884.82 741.73 873.14 704.41"/><polygon class="cls-6" points="888.28 718.46 876.6 755.78 899.95 755.78 888.28 718.46"/><polygon class="cls-7" points="885.76 695.68 874.08 732.99 897.44 732.99 885.76 695.68"/><polygon class="cls-8" points="873.17 721.61 861.49 758.92 884.84 758.92 873.17 721.61"/><polygon class="cls-9" points="901.26 718.38 889.58 755.69 912.93 755.69 901.26 718.38"/><polygon class="cls-6" points="895.24 659.38 883.56 696.7 906.91 696.7 895.24 659.38"/><polygon class="cls-6" points="912.54 669.11 900.87 706.42 924.22 706.42 912.54 669.11"/><polygon class="cls-6" points="868.22 664.78 856.54 702.1 879.9 702.1 868.22 664.78"/><polygon class="cls-6" points="883.36 678.84 871.68 716.15 895.03 716.15 883.36 678.84"/><polygon class="cls-7" points="880.84 656.05 869.16 693.36 892.52 693.36 880.84 656.05"/><polygon class="cls-8" points="868.25 681.98 856.57 719.29 879.92 719.29 868.25 681.98"/><polygon class="cls-9" points="896.34 678.75 884.66 716.06 908.01 716.06 896.34 678.75"/><polygon class="cls-6" points="927.87 647.41 916.19 684.73 939.54 684.73 927.87 647.41"/><polygon class="cls-6" points="945.17 657.14 933.49 694.45 956.85 694.45 945.17 657.14"/><polygon class="cls-6" points="900.85 652.81 889.17 690.13 912.53 690.13 900.85 652.81"/><polygon class="cls-6" points="915.98 666.87 904.31 704.18 927.66 704.18 915.98 666.87"/><polygon class="cls-7" points="913.47 644.08 901.79 681.39 925.14 681.39 913.47 644.08"/><polygon class="cls-8" points="900.88 670.01 889.2 707.32 912.55 707.32 900.88 670.01"/><polygon class="cls-9" points="928.97 666.78 917.29 704.09 940.64 704.09 928.97 666.78"/><polygon class="cls-6" points="949.02 695.21 937.34 732.52 960.7 732.52 949.02 695.21"/><polygon class="cls-6" points="966.32 704.93 954.65 742.25 978 742.25 966.32 704.93"/><polygon class="cls-6" points="922 700.61 910.33 737.92 933.68 737.92 922 700.61"/><polygon class="cls-6" points="937.14 714.66 925.46 751.98 948.81 751.98 937.14 714.66"/><polygon class="cls-7" points="934.62 691.87 922.94 729.19 946.3 729.19 934.62 691.87"/><polygon class="cls-8" points="922.03 717.8 910.35 755.12 933.71 755.12 922.03 717.8"/><polygon class="cls-9" points="950.12 714.57 938.44 751.89 961.8 751.89 950.12 714.57"/><polygon class="cls-6" points="1002.49 703.42 990.81 740.74 1014.16 740.74 1002.49 703.42"/><polygon class="cls-6" points="1019.79 713.14 1008.12 750.46 1031.47 750.46 1019.79 713.14"/><polygon class="cls-6" points="975.47 708.82 963.79 746.14 987.15 746.14 975.47 708.82"/><polygon class="cls-6" points="990.61 722.87 978.93 760.19 1002.28 760.19 990.61 722.87"/><polygon class="cls-7" points="988.09 700.09 976.41 737.4 999.77 737.4 988.09 700.09"/><polygon class="cls-8" points="975.5 726.02 963.82 763.33 987.17 763.33 975.5 726.02"/><polygon class="cls-9" points="1003.59 722.79 991.91 760.1 1015.26 760.1 1003.59 722.79"/><polygon class="cls-6" points="1057.12 700.97 1045.45 738.29 1068.8 738.29 1057.12 700.97"/><polygon class="cls-6" points="1074.43 710.7 1062.75 748.01 1086.1 748.01 1074.43 710.7"/><polygon class="cls-6" points="1030.11 706.37 1018.43 743.69 1041.78 743.69 1030.11 706.37"/><polygon class="cls-6" points="1045.24 720.43 1033.56 757.74 1056.92 757.74 1045.24 720.43"/><polygon class="cls-7" points="1042.72 697.64 1031.05 734.95 1054.4 734.95 1042.72 697.64"/><polygon class="cls-8" points="1030.13 723.57 1018.46 760.88 1041.81 760.88 1030.13 723.57"/><polygon class="cls-9" points="1058.22 720.34 1046.55 757.65 1069.9 757.65 1058.22 720.34"/><polygon class="cls-6" points="1111.43 702.75 1099.75 740.06 1123.1 740.06 1111.43 702.75"/><polygon class="cls-6" points="1128.73 712.47 1117.05 749.78 1140.41 749.78 1128.73 712.47"/><polygon class="cls-6" points="1084.41 708.15 1072.73 745.46 1096.09 745.46 1084.41 708.15"/><polygon class="cls-6" points="1099.54 722.2 1087.87 759.51 1111.22 759.51 1099.54 722.2"/><polygon class="cls-7" points="1097.03 699.41 1085.35 736.73 1108.7 736.73 1097.03 699.41"/><polygon class="cls-8" points="1084.43 725.34 1072.76 762.66 1096.11 762.66 1084.43 725.34"/><polygon class="cls-9" points="1112.53 722.11 1100.85 759.43 1124.2 759.43 1112.53 722.11"/><polygon class="cls-6" points="1135.12 662.21 1123.45 699.52 1146.8 699.52 1135.12 662.21"/><polygon class="cls-6" points="1152.43 671.93 1140.75 709.24 1164.1 709.24 1152.43 671.93"/><polygon class="cls-6" points="1108.11 667.61 1096.43 704.92 1119.78 704.92 1108.11 667.61"/><polygon class="cls-6" points="1123.24 681.66 1111.56 718.97 1134.92 718.97 1123.24 681.66"/><polygon class="cls-7" points="1120.72 658.87 1109.05 696.19 1132.4 696.19 1120.72 658.87"/><polygon class="cls-8" points="1108.13 684.8 1096.45 722.12 1119.81 722.12 1108.13 684.8"/><polygon class="cls-9" points="1136.22 681.57 1124.55 718.89 1147.9 718.89 1136.22 681.57"/><polygon class="cls-6" points="962.63 657.65 950.95 694.97 974.3 694.97 962.63 657.65"/><polygon class="cls-6" points="979.93 667.38 968.25 704.69 991.61 704.69 979.93 667.38"/><polygon class="cls-6" points="935.61 663.05 923.93 700.37 947.28 700.37 935.61 663.05"/><polygon class="cls-6" points="950.74 677.11 939.07 714.42 962.42 714.42 950.74 677.11"/><polygon class="cls-7" points="948.23 654.32 936.55 691.63 959.9 691.63 948.23 654.32"/><polygon class="cls-8" points="935.63 680.25 923.96 717.56 947.31 717.56 935.63 680.25"/><polygon class="cls-9" points="963.72 677.02 952.05 714.33 975.4 714.33 963.72 677.02"/><polygon class="cls-6" points="1015.49 655 1003.81 692.31 1027.17 692.31 1015.49 655"/><polygon class="cls-6" points="1032.79 664.72 1021.12 702.04 1044.47 702.04 1032.79 664.72"/><polygon class="cls-6" points="988.47 660.4 976.79 697.71 1000.15 697.71 988.47 660.4"/><polygon class="cls-6" points="1003.61 674.45 991.93 711.77 1015.28 711.77 1003.61 674.45"/><polygon class="cls-7" points="1001.09 651.66 989.41 688.98 1012.77 688.98 1001.09 651.66"/><polygon class="cls-8" points="988.5 677.6 976.82 714.91 1000.17 714.91 988.5 677.6"/><polygon class="cls-9" points="1016.59 674.37 1004.91 711.68 1028.26 711.68 1016.59 674.37"/><polygon class="cls-6" points="1088.11 659.17 1076.43 696.49 1099.79 696.49 1088.11 659.17"/><polygon class="cls-6" points="1105.41 668.89 1093.74 706.21 1117.09 706.21 1105.41 668.89"/><polygon class="cls-6" points="1061.09 664.57 1049.42 701.89 1072.77 701.89 1061.09 664.57"/><polygon class="cls-6" points="1076.23 678.62 1064.55 715.94 1087.9 715.94 1076.23 678.62"/><polygon class="cls-7" points="1073.71 655.84 1062.04 693.15 1085.39 693.15 1073.71 655.84"/><polygon class="cls-8" points="1061.12 681.77 1049.44 719.08 1072.8 719.08 1061.12 681.77"/><polygon class="cls-9" points="1089.21 678.54 1077.53 715.85 1100.89 715.85 1089.21 678.54"/><polygon class="cls-6" points="1144.74 698.57 1133.07 735.89 1156.42 735.89 1144.74 698.57"/><polygon class="cls-6" points="1159.05 708.3 1147.37 745.61 1170.72 745.61 1159.05 708.3"/><polygon class="cls-6" points="1117.73 703.97 1106.05 741.29 1129.4 741.29 1117.73 703.97"/><polygon class="cls-6" points="1132.86 718.02 1121.18 755.34 1144.54 755.34 1132.86 718.02"/><polygon class="cls-7" points="1130.34 695.24 1118.67 732.55 1142.02 732.55 1130.34 695.24"/><polygon class="cls-8" points="1117.75 721.17 1106.07 758.48 1129.43 758.48 1117.75 721.17"/><polygon class="cls-9" points="1145.84 717.94 1134.16 755.25 1157.52 755.25 1145.84 717.94"/><polygon class="cls-6" points="1142.49 645.62 1130.82 682.93 1154.17 682.93 1142.49 645.62"/><polygon class="cls-6" points="1158.8 655.34 1147.12 692.65 1170.47 692.65 1158.8 655.34"/><polygon class="cls-6" points="1115.47 651.01 1103.8 688.33 1127.15 688.33 1115.47 651.01"/><polygon class="cls-6" points="1130.61 665.07 1118.93 702.38 1142.29 702.38 1130.61 665.07"/><polygon class="cls-7" points="1128.09 642.28 1116.42 679.6 1139.77 679.6 1128.09 642.28"/><polygon class="cls-8" points="1115.5 668.21 1103.82 705.53 1127.18 705.53 1115.5 668.21"/><polygon class="cls-9" points="1143.59 664.98 1131.91 702.3 1155.27 702.3 1143.59 664.98"/><polygon class="cls-6" points="1039.88 641.64 1028.21 678.95 1051.56 678.95 1039.88 641.64"/><polygon class="cls-6" points="1057.19 651.36 1045.51 688.67 1068.86 688.67 1057.19 651.36"/><polygon class="cls-6" points="1012.87 647.04 1001.19 684.35 1024.54 684.35 1012.87 647.04"/><polygon class="cls-6" points="1028 661.09 1016.32 698.4 1039.68 698.4 1028 661.09"/><polygon class="cls-7" points="1025.48 638.3 1013.81 675.62 1037.16 675.62 1025.48 638.3"/><polygon class="cls-8" points="1012.89 664.23 1001.21 701.55 1024.57 701.55 1012.89 664.23"/><polygon class="cls-9" points="1040.98 661 1029.31 698.32 1052.66 698.32 1040.98 661"/><polygon class="cls-6" points="934.77 637.7 923.1 675.02 946.45 675.02 934.77 637.7"/><polygon class="cls-6" points="952.08 647.43 940.4 684.74 963.75 684.74 952.08 647.43"/><polygon class="cls-6" points="907.75 643.1 896.08 680.42 919.43 680.42 907.75 643.1"/><polygon class="cls-6" points="922.89 657.15 911.21 694.47 934.57 694.47 922.89 657.15"/><polygon class="cls-7" points="920.37 634.37 908.7 671.68 932.05 671.68 920.37 634.37"/><polygon class="cls-8" points="907.78 660.3 896.1 697.61 919.46 697.61 907.78 660.3"/><polygon class="cls-9" points="935.87 657.07 924.19 694.38 947.55 694.38 935.87 657.07"/><polygon class="cls-6" points="41.09 696.13 29.42 733.44 52.77 733.44 41.09 696.13"/><polygon class="cls-6" points="58.4 705.85 46.72 743.17 70.08 743.17 58.4 705.85"/><polygon class="cls-6" points="29.21 715.58 17.54 752.9 40.89 752.9 29.21 715.58"/><polygon class="cls-7" points="26.7 692.79 15.02 730.11 38.37 730.11 26.7 692.79"/><polygon class="cls-9" points="42.19 715.5 30.52 752.81 53.87 752.81 42.19 715.5"/><polygon class="cls-10" points="61.64 601.71 95.88 557.39 105.61 559.19 108.49 573.61 121.82 576.13 129.03 589.1 144.88 599.19 61.64 601.71"/><path class="cls-12" d="M275.33,603.51,388.12,457.57s25.22-49.36,31.71-47.92l2.88-4.33L401.45,396l1.08-8.64-7.93-8.65,12.25-43.6-1.44-12.5,88.65,92.85,2.88,15.5-2.4,15.85,4.56,11.53-8.89,25-8.4,37.23,27.74-45.28,10-30.39L531.29,428l-2.64-17.65,4.09-18.62,32.67,24,35.31-38.91,23.06-38.56,13.34,5.4,27.38-27,11.17-9L711,248.93l37.11,38.92,5.17,3L764,283.53l31.83,26.3s7.32,6.25,8.41,9.85,57.41,51.41,57.41,51.41L891.88,370l107,124,22.94-.84,79.9,93.32,18.38,23.78L635.67,624.77,587,585.86l-32.43-2.17-28.11-31L491.9,595.23l-7.21,1.44-7.93,18L471,616.13l-7.93-4.33L436.4,625.49Z"/><polygon class="cls-10" points="494.06 415.41 531.53 392.71 528.65 408.93 530.81 427.3 518.56 445.32 509.55 475.23 483.25 517.75 491.54 484.6 499.1 458.29 495.5 446.04 496.94 430.91 494.06 415.41"/><polygon class="cls-10" points="642.52 461.9 666.66 454.69 670.63 458.29 664.86 477.03 667.38 491.81 649.37 522.08 639.28 542.62 648.29 509.82 646.12 500.45 650.09 475.59 642.52 461.9"/><path class="cls-10" d="M404.69,323.88,302.35,459.37v18.38l10.81,9.37,7.57,27.75L324.34,525l3.6,9.37,64.5-83.24s22-44.69,29.55-44.69-19.1-6.48-19.1-6.48c-2.88-2.16-3.24-11.53-3.24-11.53l-6.49-12.26,8.29-25.22Z"/><polygon class="cls-13" points="223.8 602.07 279.29 501.54 296.95 508.74 300.19 518.83 326.14 538.29 276.77 603.51 223.8 602.07"/><polygon class="cls-11" points="287.58 452.89 300.91 460.82 300.55 478.11 313.16 491.45 320.73 514.87 326.86 537.21 299.47 517.75 296.59 507.3 281.45 501.18 283.62 495.77 287.58 452.89"/><polygon class="cls-13" points="144.88 600.63 131.55 594.5 122.54 577.93 108.49 575.77 104.88 558.47 135.15 561.35 196.41 471.27 223.8 475.23 248.66 465.14 265.6 467.3 285.78 452.89 282.54 493.97 224.88 603.51 144.88 600.63"/><polygon class="cls-10" points="643.24 342.02 664.86 313.07 675.91 305.03 710.99 250.49 716.03 292.54 705.22 313.44 712.43 336.5 687.92 375.41 686.48 389.83 650.45 439.56 666.66 454.69 632.43 464.42 613.45 450.61 566.37 415.05 599.52 375.89 626.3 333.61 643.24 342.02"/><polygon class="cls-14" points="743.6 522.62 756.39 513.79 763.6 518.83 759.99 540.45 766.84 571.44 764.32 595.23 753.51 564.96 743.96 548.2 745.58 531.8 743.6 522.62"/><polygon class="cls-10" points="862.57 371.81 881.79 371.81 890.44 412.17 874.58 474.15 820.77 548.38 838.79 493.61 849.12 475.59 851.52 459.5 864.49 430.91 859.21 412.41 862.57 371.81"/><polygon class="cls-10" points="1000.22 494.33 1022.33 492.17 1012.96 514.51 1013.44 532.52 992.78 567.36 1000.22 494.33"/><polygon class="cls-15" points="881.79 371.81 890.44 412.17 874.58 474.15 817.47 553.07 829.9 560.99 858.37 588.38 878.37 617.57 986.44 614.74 998.9 493.97 891.88 371.27 881.79 371.81"/><polygon class="cls-16" points="1022.69 494.15 1012.96 514.51 1013.68 530.54 987.01 581.53 978.36 616.85 1120.12 610.23 1052.78 526.58 1037.28 514.15 1022.69 494.15"/><polygon class="cls-17" points="763.78 517.21 760.53 538.47 767.2 570.9 760.53 620.45 878.73 617.03 859.27 588.56 832.96 561.53 803.78 544.6 797.83 536.49 763.78 517.21"/><polyline class="cls-18" points="104.88 558.47 108.49 575.77 122.9 579.37 131.55 594.5 145.24 601.71"/><path class="cls-18" d="M61.83,600.42,97.2,556.31l37,4.32,60.06-91.17,29.91,4.69,24.14-9.73,16.94,1.8,20.9-15.85,16.21,9L404.69,321l89.37,94.41,37.83-23.78,100.54,72.79,34.23-9.73,76,67.39,13.69-8.29,42.16,24.5,4,6.13S828.82,561,829.9,561s28.47,27.39,28.47,27.39"/><polyline class="cls-18" points="567.93 413.25 601.8 371.45 626.3 333.61 641.44 341.54 664.86 313.07 674.95 305.87 710.99 248.93 748.1 287.85 753.51 290.01 763.96 283.53 796.39 310.19 807.56 323.52 861.61 371.09 891.88 370.01 918.55 403.52 998.9 493.97 1022.33 492.17 1037.82 514.15 1052.59 527.48 1094.76 580.45"/><polyline class="cls-18" points="286.14 450.37 283.62 495.77 248.3 560.63"/><polyline class="cls-18" points="302.35 459.38 302.35 477.75 312.44 489.28 320.37 515.95 325.42 528.2 327.58 538.29 300.19 518.83 296.59 507.3 279.29 501.54"/><polyline class="cls-18" points="404.69 321 405.41 332.17 400.37 353.79 392.44 378.3 401.09 387.67 401.81 398.48 421.99 406.4 444.33 440.28 452.26 438.11 463.79 449.65"/><path class="cls-18" d="M292.26,583.69l32.44-43.24,67.74-89.36S401.09,423,422,406.4"/><line class="cls-18" x1="406.13" y1="465.5" x2="392.44" y2="451.09"/><polyline class="cls-18" points="531.89 391.63 527.93 411.45 530.81 427.3 518.56 445.32 509.91 474.15 481.09 522.43 489.73 484.24 499.1 458.29 494.78 447.48 496.94 430.91 494.06 415.41"/><polyline class="cls-18" points="642.52 461.9 649.73 474.15 645.4 501.54 648.29 510.9 638.92 544.06"/><polyline class="cls-18" points="670.63 458.29 664.14 479.19 667.75 490.73 650.45 524.6"/><line class="cls-18" x1="692.25" y1="515.95" x2="667.74" y2="490.72"/><polyline class="cls-18" points="742.7 522.08 745.58 531.8 743.42 548.38 753.51 564.96 764.32 595.23"/><polyline class="cls-18" points="763.6 518.83 759.99 540.45 765.04 559.91 767.2 572.88"/><polyline class="cls-18" points="710.99 248.93 716.75 292.54 704.5 312.71 712.43 336.5 687.92 375.41 686.48 389.83 650.45 439.56"/><polyline class="cls-18" points="628.11 425.14 652.61 386.23 641.44 341.54"/><polyline class="cls-18" points="768.64 288.21 772.97 319.2 765.04 338.66 769.36 343.7 753.51 384.06"/><polyline class="cls-18" points="881.79 371.81 890.44 412.17 874.58 474.15"/><polyline class="cls-18" points="861.61 371.09 858.01 412.17 864.49 430.91 850.8 459.01 847.92 477.03 837.11 495.05"/><polyline class="cls-18" points="1022.33 492.17 1012.96 514.51 1013.68 531.08 992.06 569.28 998.9 493.97"/><polyline class="cls-18" points="339.83 595.95 372.98 563.51 384.51 570 404.69 568.56 426.31 544.78 437.84 557.75 445.77 558.47 485.41 585.86"/><polyline class="cls-18" points="438.56 626.22 463.07 611.8 471 616.13 476.76 614.68 484.69 596.67 491.9 595.23 526.49 552.7 554.6 583.69 587.03 585.86 636.03 622.61"/><polyline class="cls-18" points="515.68 628.38 531.53 606.76 523.61 595.23 525.05 588.74 519.28 580.81 526.49 552.7"/><polygon class="cls-6" points="150.69 576.24 139.01 613.55 162.37 613.55 150.69 576.24"/><polygon class="cls-6" points="167.99 585.96 156.32 623.28 179.67 623.28 167.99 585.96"/><polygon class="cls-6" points="69.62 617.31 57.95 654.63 81.3 654.63 69.62 617.31"/><polygon class="cls-6" points="79.35 583.8 67.67 621.12 91.03 621.12 79.35 583.8"/><polygon class="cls-6" points="97.73 598.93 86.05 636.25 109.41 636.25 97.73 598.93"/><polygon class="cls-6" points="123.67 581.64 112 618.95 135.35 618.95 123.67 581.64"/><polygon class="cls-6" points="138.81 595.69 127.13 633.01 150.48 633.01 138.81 595.69"/><polygon class="cls-7" points="91.97 577.23 80.29 614.54 103.65 614.54 91.97 577.23"/><polygon class="cls-7" points="109.27 573.99 97.59 611.3 120.94 611.3 109.27 573.99"/><polygon class="cls-7" points="136.29 572.9 124.61 610.22 147.97 610.22 136.29 572.9"/><polygon class="cls-8" points="82.6 602.09 70.93 639.4 94.28 639.4 82.6 602.09"/><polygon class="cls-8" points="107.47 593.44 95.79 630.76 119.14 630.76 107.47 593.44"/><polygon class="cls-8" points="123.7 598.83 112.02 636.15 135.37 636.15 123.7 598.83"/><polygon class="cls-9" points="94.5 604.25 82.82 641.57 106.17 641.57 94.5 604.25"/><polygon class="cls-9" points="151.79 595.61 140.11 632.92 163.47 632.92 151.79 595.61"/><polygon class="cls-9" points="82.61 625.87 70.93 663.19 94.28 663.19 82.61 625.87"/><polygon class="cls-6" points="116.12 591.28 104.44 628.6 127.8 628.6 116.12 591.28"/><polygon class="cls-6" points="242.22 558.58 230.54 595.89 253.9 595.89 242.22 558.58"/><polygon class="cls-6" points="259.52 568.3 247.85 605.61 271.2 605.61 259.52 568.3"/><polygon class="cls-6" points="161.16 599.65 149.48 636.96 172.83 636.96 161.16 599.65"/><polygon class="cls-6" points="170.88 566.14 159.21 603.45 182.56 603.45 170.88 566.14"/><polygon class="cls-6" points="189.26 581.27 177.59 618.59 200.94 618.59 189.26 581.27"/><polygon class="cls-6" points="215.21 563.98 203.53 601.29 226.88 601.29 215.21 563.98"/><polygon class="cls-6" points="230.34 578.03 218.66 615.34 242.02 615.34 230.34 578.03"/><polygon class="cls-7" points="183.5 559.57 171.83 596.88 195.18 596.88 183.5 559.57"/><polygon class="cls-7" points="200.8 556.32 189.12 593.64 212.47 593.64 200.8 556.32"/><polygon class="cls-7" points="227.82 555.24 216.15 592.56 239.5 592.56 227.82 555.24"/><polygon class="cls-8" points="174.14 584.43 162.46 621.74 185.81 621.74 174.14 584.43"/><polygon class="cls-8" points="199 575.78 187.32 613.1 210.68 613.1 199 575.78"/><polygon class="cls-8" points="215.23 581.17 203.55 618.49 226.91 618.49 215.23 581.17"/><polygon class="cls-9" points="186.03 586.59 174.35 623.9 197.71 623.9 186.03 586.59"/><polygon class="cls-9" points="243.32 577.94 231.64 615.26 255 615.26 243.32 577.94"/><polygon class="cls-9" points="174.14 608.21 162.46 645.52 185.81 645.52 174.14 608.21"/><polygon class="cls-6" points="207.65 573.62 195.97 610.93 219.33 610.93 207.65 573.62"/><polygon class="cls-7" points="157.56 567.16 145.88 604.48 169.24 604.48 157.56 567.16"/><polygon class="cls-6" points="271.41 591 259.73 628.32 283.08 628.32 271.41 591"/><polygon class="cls-6" points="288.71 600.73 277.04 638.04 300.39 638.04 288.71 600.73"/><polygon class="cls-6" points="190.34 632.08 178.67 669.39 202.02 669.39 190.34 632.08"/><polygon class="cls-6" points="200.07 598.57 188.4 635.88 211.75 635.88 200.07 598.57"/><polygon class="cls-6" points="218.45 613.7 206.77 651.01 230.13 651.01 218.45 613.7"/><polygon class="cls-6" points="244.39 596.4 232.72 633.72 256.07 633.72 244.39 596.4"/><polygon class="cls-6" points="259.52 610.46 247.85 647.77 271.2 647.77 259.52 610.46"/><polygon class="cls-7" points="212.69 592 201.01 629.31 224.37 629.31 212.69 592"/><polygon class="cls-7" points="229.99 588.75 218.31 626.07 241.66 626.07 229.99 588.75"/><polygon class="cls-7" points="257.01 587.67 245.33 624.99 268.69 624.99 257.01 587.67"/><polygon class="cls-8" points="203.32 616.86 191.65 654.17 215 654.17 203.32 616.86"/><polygon class="cls-8" points="228.19 608.21 216.51 645.52 239.86 645.52 228.19 608.21"/><polygon class="cls-8" points="244.42 613.6 232.74 650.92 256.09 650.92 244.42 613.6"/><polygon class="cls-9" points="215.22 619.02 203.54 656.33 226.89 656.33 215.22 619.02"/><polygon class="cls-9" points="272.51 610.37 260.83 647.69 284.18 647.69 272.51 610.37"/><polygon class="cls-9" points="203.32 640.64 191.65 677.95 215 677.95 203.32 640.64"/><polygon class="cls-6" points="236.84 606.05 225.16 643.36 248.51 643.36 236.84 606.05"/><polygon class="cls-7" points="186.75 586.59 175.07 623.9 198.42 623.9 186.75 586.59"/><polygon class="cls-6" points="346 585.6 334.32 622.91 357.67 622.91 346 585.6"/><polygon class="cls-6" points="363.3 595.32 351.62 632.64 374.98 632.64 363.3 595.32"/><polygon class="cls-6" points="264.93 626.67 253.25 663.99 276.61 663.99 264.93 626.67"/><polygon class="cls-6" points="274.66 593.16 262.98 630.48 286.34 630.48 274.66 593.16"/><polygon class="cls-6" points="293.04 608.3 281.36 645.61 304.71 645.61 293.04 608.3"/><polygon class="cls-6" points="318.98 591 307.3 628.32 330.66 628.32 318.98 591"/><polygon class="cls-6" points="334.11 605.05 322.44 642.37 345.79 642.37 334.11 605.05"/><polygon class="cls-7" points="287.28 586.59 275.6 623.9 298.95 623.9 287.28 586.59"/><polygon class="cls-7" points="304.57 583.35 292.9 620.66 316.25 620.66 304.57 583.35"/><polygon class="cls-7" points="331.6 582.27 319.92 619.58 343.27 619.58 331.6 582.27"/><polygon class="cls-8" points="277.91 611.45 266.23 648.77 289.59 648.77 277.91 611.45"/><polygon class="cls-8" points="302.77 602.8 291.1 640.12 314.45 640.12 302.77 602.8"/><polygon class="cls-8" points="319 608.2 307.33 645.51 330.68 645.51 319 608.2"/><polygon class="cls-9" points="289.8 613.61 278.13 650.93 301.48 650.93 289.8 613.61"/><polygon class="cls-9" points="347.1 604.97 335.42 642.28 358.77 642.28 347.1 604.97"/><polygon class="cls-9" points="277.91 635.23 266.24 672.55 289.59 672.55 277.91 635.23"/><polygon class="cls-6" points="311.43 600.64 299.75 637.96 323.1 637.96 311.43 600.64"/><polygon class="cls-7" points="261.33 581.18 249.66 618.5 273.01 618.5 261.33 581.18"/><polygon class="cls-6" points="389.98 611.16 378.31 648.48 401.66 648.48 389.98 611.16"/><polygon class="cls-6" points="407.29 620.89 395.61 658.2 418.96 658.2 407.29 620.89"/><polygon class="cls-6" points="308.92 652.24 297.24 689.55 320.59 689.55 308.92 652.24"/><polygon class="cls-6" points="318.65 618.73 306.97 656.04 330.32 656.04 318.65 618.73"/><polygon class="cls-6" points="337.02 633.86 325.35 671.17 348.7 671.17 337.02 633.86"/><polygon class="cls-6" points="362.97 616.56 351.29 653.88 374.64 653.88 362.97 616.56"/><polygon class="cls-6" points="378.1 630.62 366.42 667.93 389.78 667.93 378.1 630.62"/><polygon class="cls-7" points="331.26 612.15 319.59 649.47 342.94 649.47 331.26 612.15"/><polygon class="cls-7" points="348.56 608.91 336.88 646.23 360.24 646.23 348.56 608.91"/><polygon class="cls-7" points="375.58 607.83 363.91 645.14 387.26 645.14 375.58 607.83"/><polygon class="cls-8" points="321.9 637.02 310.22 674.33 333.57 674.33 321.9 637.02"/><polygon class="cls-8" points="346.76 628.37 335.08 665.68 358.44 665.68 346.76 628.37"/><polygon class="cls-8" points="362.99 633.76 351.31 671.08 374.67 671.08 362.99 633.76"/><polygon class="cls-9" points="333.79 639.18 322.11 676.49 345.47 676.49 333.79 639.18"/><polygon class="cls-9" points="391.08 630.53 379.41 667.85 402.76 667.85 391.08 630.53"/><polygon class="cls-9" points="321.9 660.8 310.22 698.11 333.58 698.11 321.9 660.8"/><polygon class="cls-6" points="355.41 626.21 343.74 663.52 367.09 663.52 355.41 626.21"/><polygon class="cls-7" points="305.32 606.75 293.64 644.06 317 644.06 305.32 606.75"/><polygon class="cls-6" points="512.47 612.63 500.79 649.94 524.14 649.94 512.47 612.63"/><polygon class="cls-6" points="529.77 622.35 518.1 659.66 541.45 659.66 529.77 622.35"/><polygon class="cls-6" points="431.4 653.7 419.73 691.01 443.08 691.01 431.4 653.7"/><polygon class="cls-6" points="441.13 620.19 429.45 657.5 452.81 657.5 441.13 620.19"/><polygon class="cls-6" points="459.51 635.32 447.83 672.63 471.18 672.63 459.51 635.32"/><polygon class="cls-6" points="485.45 618.02 473.77 655.34 497.13 655.34 485.45 618.02"/><polygon class="cls-6" points="500.58 632.08 488.91 669.39 512.26 669.39 500.58 632.08"/><polygon class="cls-7" points="453.75 613.61 442.07 650.93 465.43 650.93 453.75 613.61"/><polygon class="cls-7" points="471.04 610.37 459.37 647.69 482.72 647.69 471.04 610.37"/><polygon class="cls-7" points="498.07 609.29 486.39 646.61 509.75 646.61 498.07 609.29"/><polygon class="cls-8" points="444.38 638.48 432.7 675.79 456.06 675.79 444.38 638.48"/><polygon class="cls-8" points="469.25 629.83 457.57 667.14 480.92 667.14 469.25 629.83"/><polygon class="cls-8" points="485.48 635.22 473.8 672.54 497.15 672.54 485.48 635.22"/><polygon class="cls-9" points="456.27 640.64 444.6 677.95 467.95 677.95 456.27 640.64"/><polygon class="cls-9" points="513.57 631.99 501.89 669.31 525.24 669.31 513.57 631.99"/><polygon class="cls-9" points="444.38 662.26 432.71 699.57 456.06 699.57 444.38 662.26"/><polygon class="cls-6" points="477.9 627.67 466.22 664.98 489.57 664.98 477.9 627.67"/><polygon class="cls-7" points="427.81 608.21 416.13 645.52 439.48 645.52 427.81 608.21"/><polygon class="cls-6" points="413.34 611.16 401.66 648.48 425.01 648.48 413.34 611.16"/><polygon class="cls-6" points="430.64 620.89 418.96 658.2 442.32 658.2 430.64 620.89"/><polygon class="cls-6" points="332.27 652.24 320.59 689.55 343.95 689.55 332.27 652.24"/><polygon class="cls-6" points="342 618.73 330.32 656.04 353.68 656.04 342 618.73"/><polygon class="cls-6" points="360.38 633.86 348.7 671.17 372.05 671.17 360.38 633.86"/><polygon class="cls-6" points="386.32 616.56 374.64 653.88 398 653.88 386.32 616.56"/><polygon class="cls-6" points="401.45 630.62 389.78 667.93 413.13 667.93 401.45 630.62"/><polygon class="cls-7" points="354.62 612.15 342.94 649.47 366.29 649.47 354.62 612.15"/><polygon class="cls-7" points="371.91 608.91 360.24 646.23 383.59 646.23 371.91 608.91"/><polygon class="cls-7" points="398.94 607.83 387.26 645.14 410.62 645.14 398.94 607.83"/><polygon class="cls-8" points="345.25 637.02 333.57 674.33 356.93 674.33 345.25 637.02"/><polygon class="cls-8" points="370.11 628.37 358.44 665.68 381.79 665.68 370.11 628.37"/><polygon class="cls-8" points="386.35 633.76 374.67 671.08 398.02 671.08 386.35 633.76"/><polygon class="cls-9" points="357.14 639.18 345.47 676.49 368.82 676.49 357.14 639.18"/><polygon class="cls-9" points="414.44 630.53 402.76 667.85 426.11 667.85 414.44 630.53"/><polygon class="cls-9" points="345.25 660.8 333.58 698.11 356.93 698.11 345.25 660.8"/><polygon class="cls-6" points="378.77 626.21 367.09 663.52 390.44 663.52 378.77 626.21"/><polygon class="cls-7" points="328.67 606.75 317 644.06 340.35 644.06 328.67 606.75"/><polygon class="cls-6" points="441.23 654.66 429.55 691.97 452.9 691.97 441.23 654.66"/><polygon class="cls-6" points="458.53 664.38 446.86 701.7 470.21 701.7 458.53 664.38"/><polygon class="cls-6" points="360.16 695.73 348.49 733.04 371.84 733.04 360.16 695.73"/><polygon class="cls-6" points="369.89 662.22 358.21 699.53 381.57 699.53 369.89 662.22"/><polygon class="cls-6" points="388.27 677.35 376.59 714.67 399.94 714.67 388.27 677.35"/><polygon class="cls-6" points="414.21 660.06 402.53 697.37 425.89 697.37 414.21 660.06"/><polygon class="cls-6" points="429.35 674.11 417.67 711.42 441.02 711.42 429.35 674.11"/><polygon class="cls-7" points="382.51 655.65 370.83 692.96 394.19 692.96 382.51 655.65"/><polygon class="cls-7" points="399.8 652.4 388.13 689.72 411.48 689.72 399.8 652.4"/><polygon class="cls-7" points="426.83 651.32 415.15 688.64 438.5 688.64 426.83 651.32"/><polygon class="cls-8" points="373.14 680.51 361.46 717.82 384.82 717.82 373.14 680.51"/><polygon class="cls-8" points="398 671.86 386.33 709.18 409.68 709.18 398 671.86"/><polygon class="cls-8" points="414.24 677.25 402.56 714.57 425.91 714.57 414.24 677.25"/><polygon class="cls-9" points="385.04 682.67 373.36 719.99 396.71 719.99 385.04 682.67"/><polygon class="cls-9" points="442.33 674.02 430.65 711.34 454 711.34 442.33 674.02"/><polygon class="cls-9" points="373.14 704.29 361.47 741.61 384.82 741.61 373.14 704.29"/><polygon class="cls-6" points="406.66 669.7 394.98 707.01 418.33 707.01 406.66 669.7"/><polygon class="cls-7" points="356.56 650.24 344.89 687.56 368.24 687.56 356.56 650.24"/><polygon class="cls-6" points="553.55 626.68 541.88 663.99 565.23 663.99 553.55 626.68"/><polygon class="cls-6" points="570.86 636.4 559.18 673.72 582.53 673.72 570.86 636.4"/><polygon class="cls-6" points="472.49 667.75 460.81 705.07 484.17 705.07 472.49 667.75"/><polygon class="cls-6" points="482.22 634.24 470.54 671.55 493.89 671.55 482.22 634.24"/><polygon class="cls-6" points="500.59 649.37 488.92 686.69 512.27 686.69 500.59 649.37"/><polygon class="cls-6" points="526.54 632.08 514.86 669.39 538.21 669.39 526.54 632.08"/><polygon class="cls-6" points="541.67 646.13 530 683.45 553.35 683.45 541.67 646.13"/><polygon class="cls-7" points="494.83 627.67 483.16 664.98 506.51 664.98 494.83 627.67"/><polygon class="cls-7" points="512.13 624.42 500.45 661.74 523.81 661.74 512.13 624.42"/><polygon class="cls-7" points="539.15 623.34 527.48 660.66 550.83 660.66 539.15 623.34"/><polygon class="cls-8" points="485.47 652.53 473.79 689.85 497.14 689.85 485.47 652.53"/><polygon class="cls-8" points="510.33 643.88 498.65 681.2 522.01 681.2 510.33 643.88"/><polygon class="cls-8" points="526.56 649.27 514.88 686.59 538.24 686.59 526.56 649.27"/><polygon class="cls-9" points="497.36 654.69 485.68 692.01 509.04 692.01 497.36 654.69"/><polygon class="cls-9" points="554.65 646.04 542.98 683.36 566.33 683.36 554.65 646.04"/><polygon class="cls-9" points="485.47 676.31 473.79 713.63 497.15 713.63 485.47 676.31"/><polygon class="cls-6" points="518.98 641.72 507.31 679.03 530.66 679.03 518.98 641.72"/><polygon class="cls-7" points="468.89 622.26 457.21 659.58 480.57 659.58 468.89 622.26"/><polygon class="cls-6" points="631.38 609.38 619.71 646.7 643.06 646.7 631.38 609.38"/><polygon class="cls-6" points="648.69 619.11 637.01 656.42 660.37 656.42 648.69 619.11"/><polygon class="cls-6" points="550.32 650.45 538.64 687.77 562 687.77 550.32 650.45"/><polygon class="cls-6" points="560.05 616.94 548.37 654.26 571.73 654.26 560.05 616.94"/><polygon class="cls-6" points="578.42 632.08 566.75 669.39 590.1 669.39 578.42 632.08"/><polygon class="cls-6" points="604.37 614.78 592.69 652.1 616.04 652.1 604.37 614.78"/><polygon class="cls-6" points="619.5 628.84 607.83 666.15 631.18 666.15 619.5 628.84"/><polygon class="cls-7" points="572.67 610.37 560.99 647.69 584.34 647.69 572.67 610.37"/><polygon class="cls-7" points="589.96 607.13 578.28 644.44 601.64 644.44 589.96 607.13"/><polygon class="cls-7" points="616.99 606.05 605.31 643.36 628.66 643.36 616.99 606.05"/><polygon class="cls-8" points="563.3 635.23 551.62 672.55 574.98 672.55 563.3 635.23"/><polygon class="cls-8" points="588.16 626.59 576.49 663.9 599.84 663.9 588.16 626.59"/><polygon class="cls-8" points="604.39 631.98 592.72 669.29 616.07 669.29 604.39 631.98"/><polygon class="cls-9" points="575.19 637.4 563.51 674.71 586.87 674.71 575.19 637.4"/><polygon class="cls-9" points="632.48 628.75 620.81 666.06 644.16 666.06 632.48 628.75"/><polygon class="cls-9" points="563.3 659.02 551.62 696.33 574.98 696.33 563.3 659.02"/><polygon class="cls-6" points="596.81 624.42 585.14 661.74 608.49 661.74 596.81 624.42"/><polygon class="cls-7" points="546.72 604.97 535.04 642.28 558.4 642.28 546.72 604.97"/><polygon class="cls-6" points="579.5 659.11 567.82 696.42 591.17 696.42 579.5 659.11"/><polygon class="cls-6" points="596.8 668.83 585.13 706.15 608.48 706.15 596.8 668.83"/><polygon class="cls-6" points="498.43 700.18 486.75 737.49 510.11 737.49 498.43 700.18"/><polygon class="cls-6" points="508.16 666.67 496.48 703.98 519.84 703.98 508.16 666.67"/><polygon class="cls-6" points="526.54 681.8 514.86 719.12 538.21 719.12 526.54 681.8"/><polygon class="cls-6" points="552.48 664.51 540.8 701.82 564.16 701.82 552.48 664.51"/><polygon class="cls-6" points="567.62 678.56 555.94 715.87 579.29 715.87 567.62 678.56"/><polygon class="cls-7" points="520.78 660.1 509.1 697.41 532.46 697.41 520.78 660.1"/><polygon class="cls-7" points="538.07 656.85 526.4 694.17 549.75 694.17 538.07 656.85"/><polygon class="cls-7" points="565.1 655.77 553.42 693.09 576.78 693.09 565.1 655.77"/><polygon class="cls-8" points="511.41 684.96 499.74 722.27 523.09 722.27 511.41 684.96"/><polygon class="cls-8" points="536.27 676.31 524.6 713.63 547.95 713.63 536.27 676.31"/><polygon class="cls-8" points="552.5 681.7 540.83 719.02 564.18 719.02 552.5 681.7"/><polygon class="cls-9" points="523.3 687.12 511.63 724.44 534.98 724.44 523.3 687.12"/><polygon class="cls-9" points="580.6 678.47 568.92 715.79 592.27 715.79 580.6 678.47"/><polygon class="cls-9" points="511.41 708.74 499.74 746.06 523.09 746.06 511.41 708.74"/><polygon class="cls-6" points="544.93 674.15 533.25 711.46 556.6 711.46 544.93 674.15"/><polygon class="cls-7" points="494.83 654.69 483.16 692.01 506.51 692.01 494.83 654.69"/><polygon class="cls-6" points="670.3 659.11 658.62 696.42 681.98 696.42 670.3 659.11"/><polygon class="cls-6" points="687.6 668.83 675.93 706.15 699.28 706.15 687.6 668.83"/><polygon class="cls-6" points="589.24 700.18 577.56 737.49 600.91 737.49 589.24 700.18"/><polygon class="cls-6" points="598.96 666.67 587.29 703.98 610.64 703.98 598.96 666.67"/><polygon class="cls-6" points="617.34 681.8 605.66 719.12 629.02 719.12 617.34 681.8"/><polygon class="cls-6" points="643.28 664.51 631.61 701.82 654.96 701.82 643.28 664.51"/><polygon class="cls-6" points="658.42 678.56 646.74 715.87 670.09 715.87 658.42 678.56"/><polygon class="cls-7" points="611.58 660.1 599.9 697.41 623.26 697.41 611.58 660.1"/><polygon class="cls-7" points="628.88 656.85 617.2 694.17 640.55 694.17 628.88 656.85"/><polygon class="cls-7" points="655.9 655.77 644.23 693.09 667.58 693.09 655.9 655.77"/><polygon class="cls-8" points="602.22 684.96 590.54 722.27 613.89 722.27 602.22 684.96"/><polygon class="cls-8" points="627.08 676.31 615.4 713.63 638.75 713.63 627.08 676.31"/><polygon class="cls-8" points="643.31 681.7 631.63 719.02 654.99 719.02 643.31 681.7"/><polygon class="cls-9" points="614.11 687.12 602.43 724.44 625.78 724.44 614.11 687.12"/><polygon class="cls-9" points="671.4 678.47 659.72 715.79 683.08 715.79 671.4 678.47"/><polygon class="cls-9" points="602.22 708.74 590.54 746.06 613.89 746.06 602.22 708.74"/><polygon class="cls-6" points="635.73 674.15 624.05 711.46 647.41 711.46 635.73 674.15"/><polygon class="cls-7" points="585.64 654.69 573.96 692.01 597.31 692.01 585.64 654.69"/><polygon class="cls-6" points="721.11 607.22 709.43 644.53 732.78 644.53 721.11 607.22"/><polygon class="cls-6" points="738.41 616.94 726.73 654.26 750.09 654.26 738.41 616.94"/><polygon class="cls-6" points="640.04 648.29 628.36 685.61 651.72 685.61 640.04 648.29"/><polygon class="cls-6" points="649.77 614.78 638.09 652.1 661.45 652.1 649.77 614.78"/><polygon class="cls-6" points="668.15 629.91 656.47 667.23 679.82 667.23 668.15 629.91"/><polygon class="cls-6" points="694.09 612.62 682.41 649.93 705.77 649.93 694.09 612.62"/><polygon class="cls-6" points="709.22 626.67 697.55 663.99 720.9 663.99 709.22 626.67"/><polygon class="cls-7" points="662.39 608.21 650.71 645.52 674.06 645.52 662.39 608.21"/><polygon class="cls-7" points="679.68 604.97 668.01 642.28 691.36 642.28 679.68 604.97"/><polygon class="cls-7" points="706.71 603.89 695.03 641.2 718.38 641.2 706.71 603.89"/><polygon class="cls-8" points="653.02 633.07 641.34 670.39 664.7 670.39 653.02 633.07"/><polygon class="cls-8" points="677.88 624.42 666.21 661.74 689.56 661.74 677.88 624.42"/><polygon class="cls-8" points="694.11 629.82 682.44 667.13 705.79 667.13 694.11 629.82"/><polygon class="cls-9" points="664.91 635.23 653.24 672.55 676.59 672.55 664.91 635.23"/><polygon class="cls-9" points="722.21 626.59 710.53 663.9 733.88 663.9 722.21 626.59"/><polygon class="cls-9" points="653.02 656.85 641.35 694.17 664.7 694.17 653.02 656.85"/><polygon class="cls-6" points="686.54 622.26 674.86 659.58 698.21 659.58 686.54 622.26"/><polygon class="cls-7" points="636.44 602.8 624.77 640.12 648.12 640.12 636.44 602.8"/><polygon class="cls-6" points="752.99 650.7 741.31 688.01 764.66 688.01 752.99 650.7"/><polygon class="cls-6" points="770.29 660.42 758.61 697.74 781.97 697.74 770.29 660.42"/><polygon class="cls-6" points="671.92 691.77 660.24 729.09 683.6 729.09 671.92 691.77"/><polygon class="cls-6" points="681.65 658.26 669.97 695.57 693.33 695.57 681.65 658.26"/><polygon class="cls-6" points="700.02 673.39 688.35 710.71 711.7 710.71 700.02 673.39"/><polygon class="cls-6" points="725.97 656.1 714.29 693.41 737.65 693.41 725.97 656.1"/><polygon class="cls-6" points="741.1 670.15 729.43 707.47 752.78 707.47 741.1 670.15"/><polygon class="cls-7" points="694.27 651.69 682.59 689 705.94 689 694.27 651.69"/><polygon class="cls-7" points="711.56 648.45 699.88 685.76 723.24 685.76 711.56 648.45"/><polygon class="cls-7" points="738.59 647.36 726.91 684.68 750.26 684.68 738.59 647.36"/><polygon class="cls-8" points="684.9 676.55 673.22 713.87 696.58 713.87 684.9 676.55"/><polygon class="cls-8" points="709.76 667.9 698.09 705.22 721.44 705.22 709.76 667.9"/><polygon class="cls-8" points="725.99 673.29 714.32 710.61 737.67 710.61 725.99 673.29"/><polygon class="cls-9" points="696.79 678.71 685.12 716.03 708.47 716.03 696.79 678.71"/><polygon class="cls-9" points="754.09 670.06 742.41 707.38 765.76 707.38 754.09 670.06"/><polygon class="cls-9" points="684.9 700.33 673.23 737.65 696.58 737.65 684.9 700.33"/><polygon class="cls-6" points="718.41 665.74 706.74 703.05 730.09 703.05 718.41 665.74"/><polygon class="cls-7" points="668.32 646.28 656.65 683.6 680 683.6 668.32 646.28"/><polygon class="cls-6" points="804.46 612.4 792.79 649.71 816.14 649.71 804.46 612.4"/><polygon class="cls-6" points="821.77 622.12 810.09 659.44 833.44 659.44 821.77 622.12"/><polygon class="cls-6" points="723.4 653.47 711.72 690.79 735.07 690.79 723.4 653.47"/><polygon class="cls-6" points="733.13 619.96 721.45 657.27 744.8 657.27 733.13 619.96"/><polygon class="cls-6" points="751.5 635.09 739.83 672.41 763.18 672.41 751.5 635.09"/><polygon class="cls-6" points="777.45 617.8 765.77 655.11 789.12 655.11 777.45 617.8"/><polygon class="cls-6" points="792.58 631.85 780.9 669.17 804.26 669.17 792.58 631.85"/><polygon class="cls-7" points="745.74 613.39 734.07 650.7 757.42 650.7 745.74 613.39"/><polygon class="cls-7" points="763.04 610.15 751.36 647.46 774.72 647.46 763.04 610.15"/><polygon class="cls-7" points="790.06 609.07 778.39 646.38 801.74 646.38 790.06 609.07"/><polygon class="cls-8" points="736.38 638.25 724.7 675.57 748.05 675.57 736.38 638.25"/><polygon class="cls-8" points="761.24 629.6 749.56 666.92 772.92 666.92 761.24 629.6"/><polygon class="cls-8" points="777.47 635 765.79 672.31 789.15 672.31 777.47 635"/><polygon class="cls-9" points="748.27 640.41 736.59 677.73 759.95 677.73 748.27 640.41"/><polygon class="cls-9" points="805.56 631.76 793.88 669.08 817.24 669.08 805.56 631.76"/><polygon class="cls-9" points="736.38 662.03 724.7 699.35 748.06 699.35 736.38 662.03"/><polygon class="cls-6" points="769.89 627.44 758.22 664.76 781.57 664.76 769.89 627.44"/><polygon class="cls-7" points="719.8 607.98 708.12 645.3 731.48 645.3 719.8 607.98"/><polygon class="cls-6" points="877.85 611.54 866.17 648.86 889.53 648.86 877.85 611.54"/><polygon class="cls-6" points="895.15 621.27 883.48 658.58 906.83 658.58 895.15 621.27"/><polygon class="cls-6" points="796.78 652.62 785.11 689.93 808.46 689.93 796.78 652.62"/><polygon class="cls-6" points="806.51 619.11 794.84 656.42 818.19 656.42 806.51 619.11"/><polygon class="cls-6" points="824.89 634.24 813.21 671.55 836.57 671.55 824.89 634.24"/><polygon class="cls-6" points="850.83 616.94 839.16 654.26 862.51 654.26 850.83 616.94"/><polygon class="cls-6" points="865.97 631 854.29 668.31 877.64 668.31 865.97 631"/><polygon class="cls-7" points="819.13 612.53 807.45 649.85 830.81 649.85 819.13 612.53"/><polygon class="cls-7" points="836.43 609.29 824.75 646.61 848.1 646.61 836.43 609.29"/><polygon class="cls-7" points="863.45 608.21 851.77 645.52 875.13 645.52 863.45 608.21"/><polygon class="cls-8" points="809.76 637.4 798.09 674.71 821.44 674.71 809.76 637.4"/><polygon class="cls-8" points="834.63 628.75 822.95 666.06 846.3 666.06 834.63 628.75"/><polygon class="cls-8" points="850.86 634.14 839.18 671.46 862.53 671.46 850.86 634.14"/><polygon class="cls-9" points="821.66 639.56 809.98 676.87 833.33 676.87 821.66 639.56"/><polygon class="cls-9" points="878.95 630.91 867.27 668.23 890.63 668.23 878.95 630.91"/><polygon class="cls-9" points="809.76 661.18 798.09 698.49 821.44 698.49 809.76 661.18"/><polygon class="cls-6" points="843.28 626.59 831.6 663.9 854.96 663.9 843.28 626.59"/><polygon class="cls-7" points="793.19 607.13 781.51 644.44 804.86 644.44 793.19 607.13"/><polygon class="cls-6" points="967.59 598.57 955.91 635.89 979.26 635.89 967.59 598.57"/><polygon class="cls-6" points="984.89 608.3 973.21 645.61 996.57 645.61 984.89 608.3"/><polygon class="cls-6" points="886.52 639.64 874.84 676.96 898.2 676.96 886.52 639.64"/><polygon class="cls-6" points="896.25 606.13 884.57 643.45 907.93 643.45 896.25 606.13"/><polygon class="cls-6" points="914.63 621.27 902.95 658.58 926.3 658.58 914.63 621.27"/><polygon class="cls-6" points="940.57 603.97 928.89 641.29 952.25 641.29 940.57 603.97"/><polygon class="cls-6" points="955.7 618.02 944.03 655.34 967.38 655.34 955.7 618.02"/><polygon class="cls-7" points="908.87 599.56 897.19 636.88 920.54 636.88 908.87 599.56"/><polygon class="cls-7" points="926.16 596.32 914.49 633.63 937.84 633.63 926.16 596.32"/><polygon class="cls-7" points="953.19 595.24 941.51 632.55 964.86 632.55 953.19 595.24"/><polygon class="cls-8" points="899.5 624.42 887.82 661.74 911.18 661.74 899.5 624.42"/><polygon class="cls-8" points="924.36 615.78 912.69 653.09 936.04 653.09 924.36 615.78"/><polygon class="cls-8" points="940.59 621.17 928.92 658.48 952.27 658.48 940.59 621.17"/><polygon class="cls-9" points="911.39 626.59 899.72 663.9 923.07 663.9 911.39 626.59"/><polygon class="cls-9" points="968.69 617.94 957.01 655.25 980.36 655.25 968.69 617.94"/><polygon class="cls-9" points="899.5 648.21 887.83 685.52 911.18 685.52 899.5 648.21"/><polygon class="cls-6" points="933.01 613.61 921.34 650.93 944.69 650.93 933.01 613.61"/><polygon class="cls-7" points="882.92 594.16 871.25 631.47 894.6 631.47 882.92 594.16"/><polygon class="cls-6" points="1052.98 598.57 1041.31 635.89 1064.66 635.89 1052.98 598.57"/><polygon class="cls-6" points="1070.29 608.3 1058.61 645.61 1081.96 645.61 1070.29 608.3"/><polygon class="cls-6" points="971.92 639.64 960.24 676.96 983.6 676.96 971.92 639.64"/><polygon class="cls-6" points="981.65 606.13 969.97 643.45 993.32 643.45 981.65 606.13"/><polygon class="cls-6" points="1000.02 621.27 988.35 658.58 1011.7 658.58 1000.02 621.27"/><polygon class="cls-6" points="1025.97 603.97 1014.29 641.29 1037.64 641.29 1025.97 603.97"/><polygon class="cls-6" points="1041.1 618.02 1029.42 655.34 1052.78 655.34 1041.1 618.02"/><polygon class="cls-7" points="994.26 599.56 982.59 636.88 1005.94 636.88 994.26 599.56"/><polygon class="cls-7" points="1011.56 596.32 999.88 633.63 1023.24 633.63 1011.56 596.32"/><polygon class="cls-7" points="1038.59 595.24 1026.91 632.55 1050.26 632.55 1038.59 595.24"/><polygon class="cls-8" points="984.9 624.42 973.22 661.74 996.58 661.74 984.9 624.42"/><polygon class="cls-8" points="1009.76 615.78 998.08 653.09 1021.44 653.09 1009.76 615.78"/><polygon class="cls-8" points="1025.99 621.17 1014.32 658.48 1037.67 658.48 1025.99 621.17"/><polygon class="cls-9" points="996.79 626.59 985.12 663.9 1008.47 663.9 996.79 626.59"/><polygon class="cls-9" points="1054.08 617.94 1042.41 655.25 1065.76 655.25 1054.08 617.94"/><polygon class="cls-9" points="984.9 648.21 973.22 685.52 996.58 685.52 984.9 648.21"/><polygon class="cls-6" points="1018.41 613.61 1006.74 650.93 1030.09 650.93 1018.41 613.61"/><polygon class="cls-7" points="968.32 594.16 956.64 631.47 980 631.47 968.32 594.16"/><polygon class="cls-6" points="1130.82 608.3 1119.14 645.62 1142.49 645.62 1130.82 608.3"/><polygon class="cls-6" points="1148.12 618.02 1136.44 655.34 1159.8 655.34 1148.12 618.02"/><polygon class="cls-6" points="1049.75 649.37 1038.07 686.69 1061.43 686.69 1049.75 649.37"/><polygon class="cls-6" points="1059.48 615.86 1047.8 653.18 1071.15 653.18 1059.48 615.86"/><polygon class="cls-6" points="1077.86 631 1066.18 668.31 1089.53 668.31 1077.86 631"/><polygon class="cls-6" points="1103.8 613.7 1092.12 651.01 1115.47 651.01 1103.8 613.7"/><polygon class="cls-6" points="1118.93 627.75 1107.26 665.07 1130.61 665.07 1118.93 627.75"/><polygon class="cls-7" points="1072.1 609.29 1060.42 646.61 1083.77 646.61 1072.1 609.29"/><polygon class="cls-7" points="1089.39 606.05 1077.71 643.36 1101.07 643.36 1089.39 606.05"/><polygon class="cls-7" points="1116.42 604.97 1104.74 642.28 1128.09 642.28 1116.42 604.97"/><polygon class="cls-8" points="1062.73 634.15 1051.05 671.47 1074.41 671.47 1062.73 634.15"/><polygon class="cls-8" points="1087.59 625.5 1075.91 662.82 1099.27 662.82 1087.59 625.5"/><polygon class="cls-8" points="1103.82 630.9 1092.15 668.21 1115.5 668.21 1103.82 630.9"/><polygon class="cls-9" points="1074.62 636.32 1062.94 673.63 1086.3 673.63 1074.62 636.32"/><polygon class="cls-9" points="1131.91 627.67 1120.24 664.98 1143.59 664.98 1131.91 627.67"/><polygon class="cls-9" points="1062.73 657.93 1051.06 695.25 1074.41 695.25 1062.73 657.93"/><polygon class="cls-6" points="1096.24 623.34 1084.57 660.66 1107.92 660.66 1096.24 623.34"/><polygon class="cls-7" points="1046.15 603.89 1034.47 641.2 1057.83 641.2 1046.15 603.89"/><polygon class="cls-6" points="875.69 603.98 864.01 641.29 887.37 641.29 875.69 603.98"/><polygon class="cls-6" points="892.99 613.7 881.32 651.01 904.67 651.01 892.99 613.7"/><polygon class="cls-6" points="794.62 645.05 782.95 682.36 806.3 682.36 794.62 645.05"/><polygon class="cls-6" points="804.35 611.54 792.67 648.85 816.03 648.85 804.35 611.54"/><polygon class="cls-6" points="822.73 626.67 811.05 663.99 834.4 663.99 822.73 626.67"/><polygon class="cls-6" points="848.67 609.38 837 646.69 860.35 646.69 848.67 609.38"/><polygon class="cls-6" points="863.81 623.43 852.13 660.74 875.48 660.74 863.81 623.43"/><polygon class="cls-7" points="816.97 604.97 805.29 642.28 828.65 642.28 816.97 604.97"/><polygon class="cls-7" points="834.26 601.72 822.59 639.04 845.94 639.04 834.26 601.72"/><polygon class="cls-7" points="861.29 600.64 849.61 637.96 872.97 637.96 861.29 600.64"/><polygon class="cls-8" points="807.6 629.83 795.93 667.14 819.28 667.14 807.6 629.83"/><polygon class="cls-8" points="832.47 621.18 820.79 658.5 844.14 658.5 832.47 621.18"/><polygon class="cls-8" points="848.7 626.57 837.02 663.89 860.37 663.89 848.7 626.57"/><polygon class="cls-9" points="819.5 631.99 807.82 669.31 831.17 669.31 819.5 631.99"/><polygon class="cls-9" points="876.79 623.34 865.11 660.66 888.47 660.66 876.79 623.34"/><polygon class="cls-9" points="807.61 653.61 795.93 690.93 819.28 690.93 807.61 653.61"/><polygon class="cls-6" points="841.12 619.02 829.44 656.33 852.79 656.33 841.12 619.02"/><polygon class="cls-7" points="791.03 599.56 779.35 636.88 802.7 636.88 791.03 599.56"/><polygon class="cls-6" points="456.45 589.78 444.77 627.09 468.13 627.09 456.45 589.78"/><polygon class="cls-6" points="473.75 599.5 462.08 636.81 485.43 636.81 473.75 599.5"/><polygon class="cls-6" points="375.38 630.85 363.71 668.16 387.06 668.16 375.38 630.85"/><polygon class="cls-6" points="385.11 597.34 373.44 634.65 396.79 634.65 385.11 597.34"/><polygon class="cls-6" points="403.49 612.47 391.81 649.79 415.17 649.79 403.49 612.47"/><polygon class="cls-6" points="429.43 595.17 417.76 632.49 441.11 632.49 429.43 595.17"/><polygon class="cls-6" points="444.57 609.23 432.89 646.54 456.24 646.54 444.57 609.23"/><polygon class="cls-7" points="397.73 590.76 386.05 628.08 409.41 628.08 397.73 590.76"/><polygon class="cls-7" points="415.03 587.52 403.35 624.84 426.7 624.84 415.03 587.52"/><polygon class="cls-7" points="442.05 586.44 430.37 623.76 453.73 623.76 442.05 586.44"/><polygon class="cls-8" points="388.36 615.63 376.69 652.94 400.04 652.94 388.36 615.63"/><polygon class="cls-8" points="413.23 606.98 401.55 644.29 424.9 644.29 413.23 606.98"/><polygon class="cls-8" points="429.46 612.37 417.78 649.69 441.13 649.69 429.46 612.37"/><polygon class="cls-9" points="400.26 617.79 388.58 655.1 411.93 655.1 400.26 617.79"/><polygon class="cls-9" points="457.55 609.14 445.87 646.46 469.23 646.46 457.55 609.14"/><polygon class="cls-9" points="388.37 639.41 376.69 676.72 400.04 676.72 388.37 639.41"/><polygon class="cls-6" points="421.88 604.82 410.2 642.13 433.56 642.13 421.88 604.82"/><polygon class="cls-7" points="371.79 585.36 360.11 622.67 383.46 622.67 371.79 585.36"/><polygon class="cls-6" points="562.73 608.18 551.06 645.5 574.41 645.5 562.73 608.18"/><polygon class="cls-6" points="580.04 617.9 568.36 655.22 591.71 655.22 580.04 617.9"/><polygon class="cls-6" points="481.67 649.25 469.99 686.57 493.34 686.57 481.67 649.25"/><polygon class="cls-6" points="491.4 615.74 479.72 653.06 503.07 653.06 491.4 615.74"/><polygon class="cls-6" points="509.77 630.88 498.1 668.19 521.45 668.19 509.77 630.88"/><polygon class="cls-6" points="535.72 613.58 524.04 650.89 547.39 650.89 535.72 613.58"/><polygon class="cls-6" points="550.85 627.63 539.17 664.95 562.53 664.95 550.85 627.63"/><polygon class="cls-7" points="504.01 609.17 492.34 646.48 515.69 646.48 504.01 609.17"/><polygon class="cls-7" points="521.31 605.93 509.63 643.24 532.99 643.24 521.31 605.93"/><polygon class="cls-7" points="548.33 604.85 536.66 642.16 560.01 642.16 548.33 604.85"/><polygon class="cls-8" points="494.65 634.03 482.97 671.35 506.32 671.35 494.65 634.03"/><polygon class="cls-8" points="519.51 625.38 507.83 662.7 531.19 662.7 519.51 625.38"/><polygon class="cls-8" points="535.74 630.78 524.06 668.09 547.42 668.09 535.74 630.78"/><polygon class="cls-9" points="506.54 636.19 494.86 673.51 518.22 673.51 506.54 636.19"/><polygon class="cls-9" points="563.83 627.55 552.15 664.86 575.51 664.86 563.83 627.55"/><polygon class="cls-9" points="494.65 657.81 482.97 695.13 506.33 695.13 494.65 657.81"/><polygon class="cls-6" points="528.16 623.22 516.49 660.54 539.84 660.54 528.16 623.22"/><polygon class="cls-7" points="478.07 603.76 466.39 641.08 489.75 641.08 478.07 603.76"/><polygon class="cls-6" points="645.44 635.33 633.76 672.64 657.12 672.64 645.44 635.33"/><polygon class="cls-6" points="662.74 645.05 651.07 682.36 674.42 682.36 662.74 645.05"/><polygon class="cls-6" points="564.37 676.4 552.7 713.71 576.05 713.71 564.37 676.4"/><polygon class="cls-6" points="574.1 642.89 562.42 680.2 585.78 680.2 574.1 642.89"/><polygon class="cls-6" points="592.48 658.02 580.8 695.34 604.16 695.34 592.48 658.02"/><polygon class="cls-6" points="618.42 640.73 606.75 678.04 630.1 678.04 618.42 640.73"/><polygon class="cls-6" points="633.56 654.78 621.88 692.09 645.23 692.09 633.56 654.78"/><polygon class="cls-7" points="586.72 636.32 575.04 673.63 598.4 673.63 586.72 636.32"/><polygon class="cls-7" points="604.02 633.07 592.34 670.39 615.69 670.39 604.02 633.07"/><polygon class="cls-7" points="631.04 631.99 619.36 669.31 642.72 669.31 631.04 631.99"/><polygon class="cls-8" points="577.35 661.18 565.68 698.49 589.03 698.49 577.35 661.18"/><polygon class="cls-8" points="602.22 652.53 590.54 689.85 613.89 689.85 602.22 652.53"/><polygon class="cls-8" points="618.45 657.92 606.77 695.24 630.12 695.24 618.45 657.92"/><polygon class="cls-9" points="589.25 663.34 577.57 700.65 600.92 700.65 589.25 663.34"/><polygon class="cls-9" points="646.54 654.69 634.86 692.01 658.22 692.01 646.54 654.69"/><polygon class="cls-9" points="577.36 684.96 565.68 722.27 589.03 722.27 577.36 684.96"/><polygon class="cls-6" points="610.87 650.37 599.19 687.68 622.54 687.68 610.87 650.37"/><polygon class="cls-7" points="560.78 630.91 549.1 668.23 572.45 668.23 560.78 630.91"/><polygon class="cls-6" points="698.46 606.52 686.79 643.83 710.14 643.83 698.46 606.52"/><polygon class="cls-6" points="715.77 616.24 704.09 653.56 727.44 653.56 715.77 616.24"/><polygon class="cls-6" points="617.4 647.59 605.72 684.9 629.07 684.9 617.4 647.59"/><polygon class="cls-6" points="627.13 614.08 615.45 651.39 638.8 651.39 627.13 614.08"/><polygon class="cls-6" points="645.5 629.21 633.83 666.53 657.18 666.53 645.5 629.21"/><polygon class="cls-6" points="671.45 611.92 659.77 649.23 683.12 649.23 671.45 611.92"/><polygon class="cls-6" points="686.58 625.97 674.9 663.28 698.26 663.28 686.58 625.97"/><polygon class="cls-7" points="639.74 607.51 628.07 644.82 651.42 644.82 639.74 607.51"/><polygon class="cls-7" points="657.04 604.26 645.36 641.58 668.72 641.58 657.04 604.26"/><polygon class="cls-7" points="684.07 603.18 672.39 640.5 695.74 640.5 684.07 603.18"/><polygon class="cls-8" points="630.38 632.37 618.7 669.68 642.05 669.68 630.38 632.37"/><polygon class="cls-8" points="655.24 623.72 643.56 661.04 666.92 661.04 655.24 623.72"/><polygon class="cls-8" points="671.47 629.11 659.79 666.43 683.15 666.43 671.47 629.11"/><polygon class="cls-9" points="642.27 634.53 630.59 671.85 653.95 671.85 642.27 634.53"/><polygon class="cls-9" points="699.56 625.88 687.89 663.2 711.24 663.2 699.56 625.88"/><polygon class="cls-9" points="630.38 656.15 618.7 693.47 642.06 693.47 630.38 656.15"/><polygon class="cls-6" points="663.89 621.56 652.22 658.87 675.57 658.87 663.89 621.56"/><polygon class="cls-7" points="613.8 602.1 602.12 639.42 625.48 639.42 613.8 602.1"/><polygon class="cls-6" points="767.59 602.9 755.91 640.21 779.27 640.21 767.59 602.9"/><polygon class="cls-6" points="784.89 612.62 773.22 649.93 796.57 649.93 784.89 612.62"/><polygon class="cls-6" points="686.52 643.97 674.85 681.28 698.2 681.28 686.52 643.97"/><polygon class="cls-6" points="696.25 610.46 684.58 647.77 707.93 647.77 696.25 610.46"/><polygon class="cls-6" points="714.63 625.59 702.95 662.91 726.31 662.91 714.63 625.59"/><polygon class="cls-6" points="740.57 608.3 728.9 645.61 752.25 645.61 740.57 608.3"/><polygon class="cls-6" points="755.71 622.35 744.03 659.66 767.38 659.66 755.71 622.35"/><polygon class="cls-7" points="708.87 603.89 697.19 641.2 720.55 641.2 708.87 603.89"/><polygon class="cls-7" points="726.17 600.64 714.49 637.96 737.84 637.96 726.17 600.64"/><polygon class="cls-7" points="753.19 599.56 741.51 636.88 764.87 636.88 753.19 599.56"/><polygon class="cls-8" points="699.5 628.75 687.83 666.06 711.18 666.06 699.5 628.75"/><polygon class="cls-8" points="724.37 620.1 712.69 657.41 736.04 657.41 724.37 620.1"/><polygon class="cls-8" points="740.6 625.49 728.92 662.81 752.27 662.81 740.6 625.49"/><polygon class="cls-9" points="711.4 630.91 699.72 668.23 723.07 668.23 711.4 630.91"/><polygon class="cls-9" points="768.69 622.26 757.01 659.58 780.37 659.58 768.69 622.26"/><polygon class="cls-9" points="699.51 652.53 687.83 689.85 711.18 689.85 699.51 652.53"/><polygon class="cls-6" points="733.02 617.94 721.34 655.25 744.7 655.25 733.02 617.94"/><polygon class="cls-7" points="682.93 598.48 671.25 635.79 694.6 635.79 682.93 598.48"/><polygon class="cls-6" points="826.49 604.22 814.82 641.53 838.17 641.53 826.49 604.22"/><polygon class="cls-6" points="843.8 613.94 832.12 651.25 855.47 651.25 843.8 613.94"/><polygon class="cls-6" points="745.43 645.29 733.75 682.6 757.11 682.6 745.43 645.29"/><polygon class="cls-6" points="755.16 611.78 743.48 649.09 766.83 649.09 755.16 611.78"/><polygon class="cls-6" points="773.53 626.91 761.86 664.23 785.21 664.23 773.53 626.91"/><polygon class="cls-6" points="799.48 609.62 787.8 646.93 811.15 646.93 799.48 609.62"/><polygon class="cls-6" points="814.61 623.67 802.93 660.98 826.29 660.98 814.61 623.67"/><polygon class="cls-7" points="767.77 605.21 756.1 642.52 779.45 642.52 767.77 605.21"/><polygon class="cls-7" points="785.07 601.96 773.39 639.28 796.75 639.28 785.07 601.96"/><polygon class="cls-7" points="812.1 600.88 800.42 638.2 823.77 638.2 812.1 600.88"/><polygon class="cls-8" points="758.41 630.07 746.73 667.38 770.09 667.38 758.41 630.07"/><polygon class="cls-8" points="783.27 621.42 771.59 658.74 794.95 658.74 783.27 621.42"/><polygon class="cls-8" points="799.5 626.81 787.83 664.13 811.18 664.13 799.5 626.81"/><polygon class="cls-9" points="770.3 632.23 758.62 669.54 781.98 669.54 770.3 632.23"/><polygon class="cls-9" points="827.59 623.58 815.92 660.9 839.27 660.9 827.59 623.58"/><polygon class="cls-9" points="758.41 653.85 746.73 691.16 770.09 691.16 758.41 653.85"/><polygon class="cls-6" points="791.92 619.26 780.25 656.57 803.6 656.57 791.92 619.26"/><polygon class="cls-7" points="741.83 599.8 730.15 637.12 753.51 637.12 741.83 599.8"/><polygon class="cls-6" points="937.3 591 925.63 628.32 948.98 628.32 937.3 591"/><polygon class="cls-6" points="954.61 600.73 942.93 638.04 966.28 638.04 954.61 600.73"/><polygon class="cls-6" points="856.24 632.08 844.56 669.39 867.92 669.39 856.24 632.08"/><polygon class="cls-6" points="865.97 598.57 854.29 635.88 877.64 635.88 865.97 598.57"/><polygon class="cls-6" points="884.35 613.7 872.67 651.01 896.02 651.01 884.35 613.7"/><polygon class="cls-6" points="910.29 596.4 898.61 633.72 921.97 633.72 910.29 596.4"/><polygon class="cls-6" points="925.42 610.46 913.75 647.77 937.1 647.77 925.42 610.46"/><polygon class="cls-7" points="878.59 592 866.91 629.31 890.26 629.31 878.59 592"/><polygon class="cls-7" points="895.88 588.75 884.2 626.07 907.56 626.07 895.88 588.75"/><polygon class="cls-7" points="922.91 587.67 911.23 624.99 934.58 624.99 922.91 587.67"/><polygon class="cls-8" points="869.22 616.86 857.54 654.17 880.9 654.17 869.22 616.86"/><polygon class="cls-8" points="894.08 608.21 882.4 645.52 905.76 645.52 894.08 608.21"/><polygon class="cls-8" points="910.31 613.6 898.64 650.92 921.99 650.92 910.31 613.6"/><polygon class="cls-9" points="881.11 619.02 869.43 656.33 892.79 656.33 881.11 619.02"/><polygon class="cls-9" points="938.4 610.37 926.73 647.69 950.08 647.69 938.4 610.37"/><polygon class="cls-9" points="869.22 640.64 857.54 677.95 880.9 677.95 869.22 640.64"/><polygon class="cls-6" points="902.73 606.05 891.06 643.36 914.41 643.36 902.73 606.05"/><polygon class="cls-7" points="852.64 586.59 840.97 623.9 864.32 623.9 852.64 586.59"/><polygon class="cls-6" points="1033.51 585.6 1021.84 622.91 1045.19 622.91 1033.51 585.6"/><polygon class="cls-6" points="1050.82 595.32 1039.14 632.64 1062.49 632.64 1050.82 595.32"/><polygon class="cls-6" points="952.45 626.67 940.77 663.99 964.12 663.99 952.45 626.67"/><polygon class="cls-6" points="962.17 593.16 950.5 630.48 973.85 630.48 962.17 593.16"/><polygon class="cls-6" points="980.55 608.3 968.88 645.61 992.23 645.61 980.55 608.3"/><polygon class="cls-6" points="1006.5 591 994.82 628.32 1018.17 628.32 1006.5 591"/><polygon class="cls-6" points="1021.63 605.05 1009.95 642.37 1033.31 642.37 1021.63 605.05"/><polygon class="cls-7" points="974.79 586.59 963.12 623.9 986.47 623.9 974.79 586.59"/><polygon class="cls-7" points="992.09 583.35 980.41 620.66 1003.77 620.66 992.09 583.35"/><polygon class="cls-7" points="1019.11 582.27 1007.44 619.58 1030.79 619.58 1019.11 582.27"/><polygon class="cls-8" points="965.43 611.45 953.75 648.77 977.1 648.77 965.43 611.45"/><polygon class="cls-8" points="990.29 602.8 978.61 640.12 1001.97 640.12 990.29 602.8"/><polygon class="cls-8" points="1006.52 608.2 994.84 645.51 1018.2 645.51 1006.52 608.2"/><polygon class="cls-9" points="977.32 613.61 965.64 650.93 989 650.93 977.32 613.61"/><polygon class="cls-9" points="1034.61 604.97 1022.93 642.28 1046.29 642.28 1034.61 604.97"/><polygon class="cls-9" points="965.43 635.23 953.75 672.55 977.11 672.55 965.43 635.23"/><polygon class="cls-6" points="998.94 600.64 987.26 637.96 1010.62 637.96 998.94 600.64"/><polygon class="cls-7" points="948.85 581.18 937.17 618.5 960.53 618.5 948.85 581.18"/><polygon class="cls-6" points="1128.65 592.09 1116.97 629.4 1140.32 629.4 1128.65 592.09"/><polygon class="cls-6" points="1145.95 601.81 1134.27 639.13 1157.63 639.13 1145.95 601.81"/><polygon class="cls-6" points="1047.58 633.16 1035.9 670.47 1059.26 670.47 1047.58 633.16"/><polygon class="cls-6" points="1057.31 599.65 1045.63 636.96 1068.99 636.96 1057.31 599.65"/><polygon class="cls-6" points="1075.69 614.78 1064.01 652.1 1087.36 652.1 1075.69 614.78"/><polygon class="cls-6" points="1101.63 597.49 1089.95 634.8 1113.31 634.8 1101.63 597.49"/><polygon class="cls-6" points="1116.76 611.54 1105.09 648.85 1128.44 648.85 1116.76 611.54"/><polygon class="cls-7" points="1069.93 593.08 1058.25 630.39 1081.6 630.39 1069.93 593.08"/><polygon class="cls-7" points="1087.22 589.83 1075.55 627.15 1098.9 627.15 1087.22 589.83"/><polygon class="cls-7" points="1114.25 588.75 1102.57 626.07 1125.92 626.07 1114.25 588.75"/><polygon class="cls-8" points="1060.56 617.94 1048.88 655.25 1072.24 655.25 1060.56 617.94"/><polygon class="cls-8" points="1085.42 609.29 1073.75 646.61 1097.1 646.61 1085.42 609.29"/><polygon class="cls-8" points="1101.65 614.68 1089.98 652 1113.33 652 1101.65 614.68"/><polygon class="cls-9" points="1072.45 620.1 1060.78 657.41 1084.13 657.41 1072.45 620.1"/><polygon class="cls-9" points="1129.75 611.45 1118.07 648.77 1141.42 648.77 1129.75 611.45"/><polygon class="cls-9" points="1060.56 641.72 1048.89 679.03 1072.24 679.03 1060.56 641.72"/><polygon class="cls-6" points="1094.08 607.13 1082.4 644.44 1105.75 644.44 1094.08 607.13"/><polygon class="cls-7" points="1043.98 587.67 1032.31 624.99 1055.66 624.99 1043.98 587.67"/><polygon class="cls-6" points="52.64 601.67 40.97 638.98 64.32 638.98 52.64 601.67"/><polygon class="cls-6" points="69.95 611.39 58.27 648.71 81.62 648.71 69.95 611.39"/><polygon class="cls-6" points="25.63 607.07 13.95 644.38 37.3 644.38 25.63 607.07"/><polygon class="cls-6" points="40.76 621.12 29.08 658.43 52.44 658.43 40.76 621.12"/><polygon class="cls-7" points="38.24 598.33 26.57 635.65 49.92 635.65 38.24 598.33"/><polygon class="cls-8" points="25.65 624.26 13.97 661.58 37.33 661.58 25.65 624.26"/><polygon class="cls-9" points="53.74 621.03 42.07 658.35 65.42 658.35 53.74 621.03"/><polygon class="cls-6" points="82.23 596.83 70.55 634.14 93.91 634.14 82.23 596.83"/><polygon class="cls-6" points="99.53 606.55 87.86 643.87 111.21 643.87 99.53 606.55"/><polygon class="cls-6" points="55.21 602.23 43.53 639.54 66.89 639.54 55.21 602.23"/><polygon class="cls-6" points="70.34 616.28 58.67 653.6 82.02 653.6 70.34 616.28"/><polygon class="cls-7" points="67.83 593.49 56.15 630.81 79.51 630.81 67.83 593.49"/><polygon class="cls-8" points="55.24 619.42 43.56 656.74 66.91 656.74 55.24 619.42"/><polygon class="cls-9" points="83.33 616.19 71.65 653.51 95 653.51 83.33 616.19"/><polygon class="cls-6" points="51.63 648.51 39.95 685.83 63.31 685.83 51.63 648.51"/><polygon class="cls-6" points="68.94 658.24 57.26 695.55 80.61 695.55 68.94 658.24"/><polygon class="cls-6" points="24.61 653.91 12.94 691.23 36.29 691.23 24.61 653.91"/><polygon class="cls-6" points="39.75 667.97 28.07 705.28 51.43 705.28 39.75 667.97"/><polygon class="cls-7" points="37.23 645.18 25.56 682.49 48.91 682.49 37.23 645.18"/><polygon class="cls-8" points="24.64 671.11 12.96 708.42 36.32 708.42 24.64 671.11"/><polygon class="cls-9" points="52.73 667.88 41.05 705.19 64.41 705.19 52.73 667.88"/><polygon class="cls-6" points="93.35 562.53 77.15 614.31 109.55 614.31 93.35 562.53"/><polygon class="cls-6" points="117.36 576.02 101.16 627.8 133.56 627.8 117.36 576.02"/><polygon class="cls-6" points="76.86 589.52 60.66 641.3 93.06 641.3 76.86 589.52"/><polygon class="cls-8" points="55.9 593.88 39.69 645.66 72.1 645.66 55.9 593.88"/><polygon class="cls-9" points="94.87 589.4 78.67 641.18 111.08 641.18 94.87 589.4"/><polygon class="cls-9" points="29.64 585.2 13.44 636.97 45.84 636.97 29.64 585.2"/><polygon class="cls-6" points="106.7 612.99 90.49 664.77 122.9 664.77 106.7 612.99"/><polygon class="cls-7" points="86.72 608.37 70.51 660.14 102.92 660.14 86.72 608.37"/><polygon class="cls-6" points="135.53 599.79 119.33 651.56 151.73 651.56 135.53 599.79"/><polygon class="cls-9" points="105.1 566.38 88.89 618.16 121.3 618.16 105.1 566.38"/><polygon class="cls-19" points="604.99 610.41 783.63 610.41 947 773.78 439.32 776.66 604.99 610.41"/><path class="cls-20" d="M633.59,573.79s47.44-96.27,113.95,0"/><path class="cls-21" d="M571.26,593.83c21.92-9.46,136.62-54,232.72,4.19a2.21,2.21,0,0,1,0,3.74c-18.1,11.57-118.76,69-233.08-4.06A2.2,2.2,0,0,1,571.26,593.83Z"/><path class="cls-22" d="M569.41,596.74s137.67,22.94,235.65,3.72"/><path d="M652.93,571.11c-10.25,8.48-16.51,18.23-18.52,31.49-.22,1.46,2,2.09,2.24.61,2-12.85,8-22.24,17.92-30.46,1.15-1-.5-2.59-1.64-1.64Z"/><circle cx="606.54" cy="592.4" r="2.79"/><circle cx="625.14" cy="594.49" r="2.79"/><circle cx="648.94" cy="596.58" r="2.79"/><circle cx="667.78" cy="597.98" r="2.79"/><circle cx="686.92" cy="598.75" r="2.79"/><circle cx="705.91" cy="599.14" r="2.79"/><circle cx="723.2" cy="598.83" r="2.79"/><circle cx="742.97" cy="598.67" r="2.79"/><circle cx="762.73" cy="598.13" r="2.79"/><circle cx="782.73" cy="596.43" r="2.79"/><path d="M681.76,532c-10.74,10.22-16.63,21.73-18.56,36.45-.19,1.48,2.13,1.46,2.33,0,1.84-14,7.64-25.07,17.87-34.8,1.09-1-.55-2.68-1.64-1.65Z"/><path class="cls-23" d="M755.45,625.13c-72.84-8.78-127.44,0-127.44,0"/><line class="cls-22" x1="793.58" y1="623.09" x2="826.61" y2="650.07"/><line class="cls-22" x1="781.03" y1="629.6" x2="798.7" y2="645.88"/><line class="cls-22" x1="582.43" y1="624.02" x2="549.41" y2="651"/><line class="cls-22" x1="594.99" y1="630.53" x2="577.32" y2="646.81"/><line class="cls-24" x1="590.81" y1="610.53" x2="599.64" y2="601.7"/><path class="cls-24" d="M598.71,612.86c.93-1.86,9.54-9.54,9.54-9.54"/><line class="cls-24" x1="584.29" y1="606.81" x2="590.81" y2="600.3"/><line class="cls-24" x1="606.62" y1="615.65" x2="617.08" y2="605.19"/><line class="cls-24" x1="613.59" y1="619.84" x2="628.01" y2="605.42"/><line class="cls-24" x1="621.97" y1="622.63" x2="638.71" y2="605.88"/><line class="cls-24" x1="646.38" y1="607.51" x2="628.48" y2="625.42"/><line class="cls-24" x1="640.1" y1="623.56" x2="655.92" y2="607.74"/><line class="cls-24" x1="652.2" y1="622.16" x2="666.38" y2="607.98"/><line class="cls-24" x1="662.89" y1="622.63" x2="677.08" y2="608.44"/><path class="cls-24" d="M675,621.23c1.39,0,13.25-13.25,13.25-13.25"/><path class="cls-24" d="M685.92,621.46l12.67-12.67"/><line class="cls-24" x1="697.31" y1="621.23" x2="709.64" y2="608.91"/><line class="cls-24" x1="708.01" y1="621.7" x2="720.8" y2="608.91"/><line class="cls-25" x1="718.62" y1="622.48" x2="731.68" y2="608.1"/><line class="cls-24" x1="728.47" y1="623.09" x2="743.24" y2="608.32"/><line class="cls-24" x1="738.24" y1="623.56" x2="754.4" y2="607.39"/><line class="cls-24" x1="748.01" y1="624.95" x2="765.91" y2="607.05"/><line class="cls-24" x1="760.33" y1="622.63" x2="778.7" y2="604.26"/><line class="cls-24" x1="776.38" y1="616.81" x2="788.82" y2="604.37"/><line class="cls-24" x1="583.05" y1="599.22" x2="597.63" y2="584.64"/><line class="cls-24" x1="593.13" y1="599.84" x2="612.66" y2="580.3"/><path class="cls-24" d="M603.13,601.23l24.65-24.65"/><line class="cls-24" x1="613.83" y1="601.93" x2="642.08" y2="573.68"/><line class="cls-24" x1="623.83" y1="603.32" x2="641.62" y2="585.54"/><line class="cls-24" x1="631.73" y1="603.32" x2="636.85" y2="598.21"/><line class="cls-24" x1="576.62" y1="597.98" x2="586.15" y2="588.44"/><polygon class="cls-6" points="1171.17 681.83 1159.86 645.71 1143.66 697.49 1171.17 697.49 1171.17 681.83"/><polygon class="cls-6" points="1171.17 583.73 1168.73 575.96 1152.53 627.74 1171.17 627.74 1171.17 583.73"/><polygon class="cls-6" points="1152.25 602.96 1136.05 654.73 1168.45 654.73 1152.25 602.96"/><polygon class="cls-9" points="1171.17 605.73 1170.26 602.84 1154.06 654.61 1171.17 654.61 1171.17 605.73"/><polygon class="cls-6" points="1171.17 661.31 1165.88 678.2 1171.17 678.2 1171.17 661.31"/><polygon class="cls-6" points="1171.17 671.22 1165.59 653.41 1149.39 705.19 1171.17 705.19 1171.17 671.22"/><polygon class="cls-7" points="1171.17 650.76 1162.1 621.8 1145.9 673.57 1171.17 673.57 1171.17 650.76"/><polygon class="cls-9" points="1171.17 693.05 1167.4 705.07 1171.17 705.07 1171.17 693.05"/><polygon class="cls-6" points="1171.17 607.72 1162.47 579.94 1146.27 631.71 1171.17 631.71 1171.17 607.72"/><polygon class="cls-9" points="1171.17 609.59 1164.28 631.59 1171.17 631.59 1171.17 609.59"/><polygon class="cls-6" points="1159.45 725.21 1147.78 762.52 1171.13 762.52 1159.45 725.21"/><polygon class="cls-6" points="1171.17 691.95 1165.85 674.94 1154.17 712.26 1171.17 712.26 1171.17 691.95"/><polygon class="cls-9" points="1171.17 707.8 1166.94 694.31 1155.27 731.63 1171.17 731.63 1171.17 707.8"/><polygon class="cls-6" points="1171.17 725.04 1163.79 748.63 1171.17 748.63 1171.17 725.04"/><polygon class="cls-6" points="1171.17 755 1163.58 730.76 1151.9 768.08 1171.17 768.08 1171.17 755"/><polygon class="cls-7" points="1171.17 740.26 1161.07 707.98 1149.39 745.29 1171.17 745.29 1171.17 740.26"/><polygon class="cls-9" points="1171.17 747.92 1164.89 767.99 1171.17 767.99 1171.17 747.92"/><polygon class="cls-6" points="1171.17 664.9 1161.54 695.67 1171.17 695.67 1171.17 664.9"/><polygon class="cls-6" points="1171.17 709.24 1161.33 677.81 1149.65 715.12 1171.17 715.12 1171.17 709.24"/><polygon class="cls-7" points="1158.81 655.02 1147.14 692.34 1170.49 692.34 1158.81 655.02"/><polygon class="cls-9" points="1171.17 687.77 1162.64 715.04 1171.17 715.04 1171.17 687.77"/><polygon class="cls-6" points="1171.17 651.81 1161.54 621.04 1149.86 658.36 1171.17 658.36 1171.17 651.81"/><polygon class="cls-6" points="1171.17 655.28 1167.16 668.08 1171.17 668.08 1171.17 655.28"/><polygon class="cls-9" points="1171.17 667.67 1162.64 640.41 1150.96 677.72 1171.17 677.72 1171.17 667.67"/><polygon class="cls-6" points="1159.37 604.83 1147.69 642.14 1171.05 642.14 1159.37 604.83"/><polygon class="cls-6" points="1171.17 632.14 1164.99 651.86 1171.17 651.86 1171.17 632.14"/><polygon class="cls-9" points="1171.17 658.38 1160.47 624.19 1148.79 661.51 1171.17 661.51 1171.17 658.38"/><polygon class="cls-6" points="0 643.59 0 685.42 13.09 685.42 0 643.59"/><polygon class="cls-6" points="0 615.68 21.96 615.68 5.76 563.9 0 582.32 0 615.68"/><polygon class="cls-6" points="0 625.17 0 642.67 5.48 642.67 0 625.17"/><polygon class="cls-9" points="0 642.55 23.49 642.55 7.29 590.77 0 614.06 0 642.55"/><polygon class="cls-6" points="19.11 614.36 2.91 666.14 35.31 666.14 19.11 614.36"/><polygon class="cls-6" points="0 693.13 18.82 693.13 2.62 641.36 0 649.73 0 693.13"/><polygon class="cls-7" points="0 612.52 0 661.51 15.33 661.51 0 612.52"/><polygon class="cls-9" points="20.63 641.24 4.43 693.01 36.84 693.01 20.63 641.24"/><polygon class="cls-6" points="0 569.48 0 619.65 15.7 619.65 0 569.48"/><polygon class="cls-9" points="17.51 567.76 1.31 619.53 33.71 619.53 17.51 567.76"/><polygon class="cls-6" points="0 724.4 0 750.46 8.15 750.46 0 724.4"/><polygon class="cls-6" points="0 700.2 14.55 700.2 2.87 662.88 0 672.06 0 700.2"/><polygon class="cls-6" points="20.18 672.61 8.5 709.92 31.85 709.92 20.18 672.61"/><polygon class="cls-9" points="0 719.57 15.65 719.57 3.97 682.25 0 694.94 0 719.57"/><polygon class="cls-6" points="12.49 699.25 0.81 736.57 24.17 736.57 12.49 699.25"/><polygon class="cls-6" points="26.8 708.98 15.12 746.29 38.47 746.29 26.8 708.98"/><polygon class="cls-6" points="0 756.02 12.29 756.02 0.61 718.7 0 720.65 0 756.02"/><polygon class="cls-7" points="0 702.01 0 733.23 9.77 733.23 0 702.01"/><polygon class="cls-9" points="13.59 718.62 1.91 755.93 25.27 755.93 13.59 718.62"/><polygon class="cls-6" points="0 683.61 21.92 683.61 10.24 646.29 0 679.02 0 683.61"/><polygon class="cls-6" points="26.54 656.02 14.87 693.33 38.22 693.33 26.54 656.02"/><polygon class="cls-6" points="0 671 0 703.06 10.03 703.06 0 671"/><polygon class="cls-7" points="0 656.25 0 680.27 7.52 680.27 0 656.25"/><polygon class="cls-9" points="0 702.98 23.02 702.98 11.34 665.66 0 701.9 0 702.98"/><polygon class="cls-6" points="0 613.57 0 646.29 10.24 646.29 0 613.57"/><polygon class="cls-6" points="15.87 618.7 4.19 656.02 27.54 656.02 15.87 618.7"/><polygon class="cls-9" points="0 629.42 0 665.66 11.34 665.66 0 629.42"/><polygon class="cls-6" points="0 604.28 0 630.08 8.07 630.08 0 604.28"/><polygon class="cls-6" points="13.7 602.49 2.02 639.8 25.38 639.8 13.7 602.49"/><polygon class="cls-9" points="0 620.14 0 649.45 9.17 649.45 0 620.14"/><text class="cls-26" transform="translate(868.3 600.83) rotate(7.48)"></text><text class="cls-26" transform="translate(886.98 603.42) rotate(5.21)">P</text><text class="cls-26" transform="translate(921.58 606.51) rotate(3.63)">a</text><text class="cls-26" transform="translate(944.14 607.93) rotate(2.41)">s</text><text class="cls-26" transform="translate(964.68 608.8) rotate(1.29)">e</text><text class="cls-26" transform="translate(984.47 609.22) rotate(0.39)"> </text><text class="cls-26" transform="translate(997.17 609.35) rotate(-0.6)">u</text><text class="cls-26" transform="translate(1019.39 609.11) rotate(-1.84)">s</text><text class="cls-26" transform="translate(1039.93 608.44) rotate(-3.01)">t</text><text class="cls-26" transform="translate(1058.81 607.45) rotate(-4.18)">e</text><text class="cls-26" transform="translate(1078.13 606.07) rotate(-5.58)">d</text><text class="cls-26" transform="matrix(0.99, -0.12, 0.12, 0.99, 1103.47, 603.53)">!</text><text class="cls-27" transform="translate(868.92 600.93) rotate(7.48)"></text><text class="cls-27" transform="translate(887.59 603.51) rotate(5.21)">P</text><text class="cls-27" transform="translate(922.2 606.61) rotate(3.63)">a</text><text class="cls-27" transform="translate(944.76 608.03) rotate(2.41)">s</text><text class="cls-27" transform="translate(965.29 608.89) rotate(1.29)">e</text><text class="cls-27" transform="translate(985.08 609.31) rotate(0.39)"> </text><text class="cls-27" transform="translate(997.79 609.44) rotate(-0.6)">u</text><text class="cls-27" transform="translate(1020.01 609.2) rotate(-1.84)">s</text><text class="cls-27" transform="translate(1040.54 608.54) rotate(-3.01)">t</text><text class="cls-27" transform="translate(1059.42 607.55) rotate(-4.18)">e</text><text class="cls-27" transform="translate(1078.74 606.16) rotate(-5.58)">d</text><text class="cls-27" transform="matrix(0.99, -0.12, 0.12, 0.99, 1104.09, 603.62)">!</text></g></g></svg>