<svg xmlns="http://www.w3.org/2000/svg" viewBox="0 0 1389.4 1389.4"><defs><style>.cls-1{fill:#fff;}.cls-1,.cls-2,.cls-3,.cls-7,.cls-8{stroke:#000;stroke-miterlimit:10;}.cls-1,.cls-2{stroke-width:8px;}.cls-2,.cls-7{fill:none;}.cls-3,.cls-5{fill:#fed000;}.cls-3{stroke-width:9.31px;}.cls-4,.cls-8{fill:#ff665a;}.cls-6{fill:#02d8b2;}.cls-7{stroke-width:9px;}.cls-8{stroke-width:8.8px;}</style></defs><title>perfilfondo</title><g id="Capa_2" data-name="Capa 2"><g id="aside"><rect class="cls-1" x="4" y="4" width="1381.4" height="1381.4"/><path class="cls-2" d="M16.39,21.5c40,0,40,38,80,38s40-38,80-38,40,38,80,38,40-38,80-38,40,38,80,38,40-38,80-38,40,38,80,38,40-38,80-38,40,38,80,38,40-38,80-38,40,38,80,38,40-38,80-38,40,38,80,38,40-38,80-38,40,38,80,38,40-38,80-38,40,38,80,38"/><path class="cls-2" d="M16.39,96.09c40,0,40,38,80,38s40-38,80-38,40,38,80,38,40-38,80-38,40,38,80,38,40-38,80-38,40,38,80,38,40-38,80-38,40,38,80,38,40-38,80-38,40,38,80,38,40-38,80-38,40,38,80,38,40-38,80-38,40,38,80,38,40-38,80-38,40,38,80,38"/><path class="cls-2" d="M16.39,170.69c40,0,40,38,80,38s40-38,80-38,40,38,80,38,40-38,80-38,40,38,80,38,40-38,80-38,40,38,80,38,40-38,80-38,40,38,80,38,40-38,80-38,40,38,80,38,40-38,80-38,40,38,80,38,40-38,80-38,40,38,80,38,40-38,80-38,40,38,80,38"/><path class="cls-2" d="M16.39,245.29c40,0,40,38,80,38s40-38,80-38,40,38,80,38,40-38,80-38,40,38,80,38,40-38,80-38,40,38,80,38,40-38,80-38,40,38,80,38,40-38,80-38,40,38,80,38,40-38,80-38,40,38,80,38,40-38,80-38,40,38,80,38,40-38,80-38,40,38,80,38"/><path class="cls-2" d="M16.39,319.88c40,0,40,38,80,38s40-38,80-38,40,38,80,38,40-38,80-38,40,38,80,38,40-38,80-38,40,38,80,38,40-38,80-38,40,38,80,38,40-38,80-38,40,38,80,38,40-38,80-38,40,38,80,38,40-38,80-38,40,38,80,38,40-38,80-38,40,38,80,38"/><path class="cls-2" d="M16.39,394.48c40,0,40,38,80,38s40-38,80-38,40,38,80,38,40-38,80-38,40,38,80,38,40-38,80-38,40,38,80,38,40-38,80-38,40,38,80,38,40-38,80-38,40,38,80,38,40-38,80-38,40,38,80,38,40-38,80-38,40,38,80,38,40-38,80-38,40,38,80,38"/><path class="cls-2" d="M16.39,469.07c40,0,40,38,80,38s40-38,80-38,40,38,80,38,40-38,80-38,40,38,80,38,40-38,80-38,40,38,80,38,40-38,80-38,40,38,80,38,40-38,80-38,40,38,80,38,40-38,80-38,40,38,80,38,40-38,80-38,40,38,80,38,40-38,80-38,40,38,80,38"/><path class="cls-2" d="M16.39,543.67c40,0,40,38,80,38s40-38,80-38,40,38,80,38,40-38,80-38,40,38,80,38,40-38,80-38,40,38,80,38,40-38,80-38,40,38,80,38,40-38,80-38,40,38,80,38,40-38,80-38,40,38,80,38,40-38,80-38,40,38,80,38,40-38,80-38,40,38,80,38"/><path class="cls-2" d="M16.39,618.27c40,0,40,38,80,38s40-38,80-38,40,38,80,38,40-38,80-38,40,38,80,38,40-38,80-38,40,38,80,38,40-38,80-38,40,38,80,38,40-38,80-38,40,38,80,38,40-38,80-38,40,38,80,38,40-38,80-38,40,38,80,38,40-38,80-38,40,38,80,38"/><path class="cls-2" d="M16.39,692.86c40,0,40,38,80,38s40-38,80-38,40,38,80,38,40-38,80-38,40,38,80,38,40-38,80-38,40,38,80,38,40-38,80-38,40,38,80,38,40-38,80-38,40,38,80,38,40-38,80-38,40,38,80,38,40-38,80-38,40,38,80,38,40-38,80-38,40,38,80,38"/><path class="cls-2" d="M16.39,767.46c40,0,40,38,80,38s40-38,80-38,40,38,80,38,40-38,80-38,40,38,80,38,40-38,80-38,40,38,80,38,40-38,80-38,40,38,80,38,40-38,80-38,40,38,80,38,40-38,80-38,40,38,80,38,40-38,80-38,40,38,80,38,40-38,80-38,40,38,80,38"/><path class="cls-2" d="M16.39,842.05c40,0,40,38,80,38s40-38,80-38,40,38,80,38,40-38,80-38,40,38,80,38,40-38,80-38,40,38,80,38,40-38,80-38,40,38,80,38,40-38,80-38,40,38,80,38,40-38,80-38,40,38,80,38,40-38,80-38,40,38,80,38,40-38,80-38,40,38,80,38"/><path class="cls-2" d="M16.39,916.65c40,0,40,38,80,38s40-38,80-38,40,38,80,38,40-38,80-38,40,38,80,38,40-38,80-38,40,38,80,38,40-38,80-38,40,38,80,38,40-38,80-38,40,38,80,38,40-38,80-38,40,38,80,38,40-38,80-38,40,38,80,38,40-38,80-38,40,38,80,38"/><path class="cls-2" d="M16.39,991.24c40,0,40,38,80,38s40-38,80-38,40,38,80,38,40-38,80-38,40,38,80,38,40-38,80-38,40,38,80,38,40-38,80-38,40,38,80,38,40-38,80-38,40,38,80,38,40-38,80-38,40,38,80,38,40-38,80-38,40,38,80,38,40-38,80-38,40,38,80,38"/><path class="cls-2" d="M16.39,1065.84c40,0,40,38,80,38s40-38,80-38,40,38,80,38,40-38,80-38,40,38,80,38,40-38,80-38,40,38,80,38,40-38,80-38,40,38,80,38,40-38,80-38,40,38,80,38,40-38,80-38,40,38,80,38,40-38,80-38,40,38,80,38,40-38,80-38,40,38,80,38"/><path class="cls-2" d="M16.39,1140.44c40,0,40,38,80,38s40-38,80-38,40,38,80,38,40-38,80-38,40,38,80,38,40-38,80-38,40,38,80,38,40-38,80-38,40,38,80,38,40-38,80-38,40,38,80,38,40-38,80-38,40,38,80,38,40-38,80-38,40,38,80,38,40-38,80-38,40,38,80,38"/><path class="cls-2" d="M16.39,1215c40,0,40,38,80,38s40-38,80-38,40,38,80,38,40-38,80-38,40,38,80,38,40-38,80-38,40,38,80,38,40-38,80-38,40,38,80,38,40-38,80-38,40,38,80,38,40-38,80-38,40,38,80,38,40-38,80-38,40,38,80,38,40-38,80-38,40,38,80,38"/><path class="cls-2" d="M16.39,1289.63c40,0,40,38,80,38s40-38,80-38,40,38,80,38,40-38,80-38,40,38,80,38,40-38,80-38,40,38,80,38,40-38,80-38,40,38,80,38,40-38,80-38,40,38,80,38,40-38,80-38,40,38,80,38,40-38,80-38,40,38,80,38,40-38,80-38,40,38,80,38"/><circle class="cls-3" cx="804" cy="597.02" r="486.05"/><rect class="cls-4" x="493.13" y="669.38" width="215.52" height="220.93"/><polygon class="cls-5" points="488.48 893.8 703.6 893.8 214.06 1383.34 5.92 1383.34 488.48 893.8"/><polygon class="cls-6" points="488.48 893.8 488.48 678.69 5.92 1161.24 5.92 1383.34 488.48 893.8"/><polygon class="cls-7" points="5.92 1161.24 488.48 678.69 488.48 893.8 703.6 893.8 214.06 1383.34 5.92 1383.34 5.92 1161.24"/><path class="cls-7" d="M488.48,893.8,5.92,1383.34Z"/><path class="cls-7" d="M487.34,791.08,4.78,1280.62Z"/><path class="cls-7" d="M593.53,893.1,111,1382.64Z"/><polyline class="cls-8" points="493.13 673.98 708.65 673.98 708.65 890.31"/></g></g></svg>