<svg xmlns="http://www.w3.org/2000/svg" viewBox="0 0 900 801"><defs><style>.cls-1{opacity:0.5;}.cls-2,.cls-3,.cls-4{fill:none;stroke:#fff;stroke-miterlimit:10;}.cls-2{stroke-width:9px;}.cls-3{stroke-width:5px;}.cls-4{stroke-width:7px;}.cls-5{font-size:133px;fill:#fff;font-family:Montserrat-SemiBold, Montserrat;font-weight:700;}</style></defs><title>reseña_1</title><g id="Capa_2" data-name="Capa 2"><g id="marcoext"><polygon class="cls-1" points="4.89 202.1 447.55 0 900 199.63 900 598.9 454.89 801 0 601.37 4.89 202.1"/><polygon class="cls-2" points="27.5 212.35 448.44 21.65 878.67 210.02 878.67 586.77 455.41 777.46 22.85 589.09 27.5 212.35"/><polygon class="cls-3" points="65.93 229.34 448.65 55.96 839.82 227.23 839.82 569.77 454.99 743.15 61.7 571.88 65.93 229.34"/></g><g id="lineas"><path class="cls-3" d="M446.05,97.06l4,152Z"/><line class="cls-3" x1="506.05" y1="111.06" x2="484.05" y2="249.06"/><line class="cls-3" x1="560.05" y1="159.06" x2="534.05" y2="253.06"/><line class="cls-3" x1="612.05" y1="183.06" x2="586.05" y2="281.06"/><line class="cls-3" x1="636.05" y1="243.06" x2="630.05" y2="289.06"/><line class="cls-3" x1="690.05" y1="225.06" x2="666.05" y2="293.06"/><line class="cls-3" x1="782.05" y1="235.06" x2="712.05" y2="323.06"/><line class="cls-3" x1="792.05" y1="297.06" x2="738.05" y2="339.06"/><line class="cls-3" x1="728.05" y1="369.06" x2="788.05" y2="349.06"/><line class="cls-3" x1="746.05" y1="415.06" x2="790.05" y2="415.06"/><line class="cls-3" x1="742.05" y1="457.06" x2="814.05" y2="489.06"/><line class="cls-3" x1="706.05" y1="487.06" x2="790.05" y2="549.06"/><line class="cls-3" x1="622.05" y1="485.06" x2="736.05" y2="591.06"/><line class="cls-3" x1="574.05" y1="493.06" x2="660.05" y2="583.06"/><line class="cls-3" x1="546.05" y1="507.06" x2="612.05" y2="631.06"/><line class="cls-3" x1="510.05" y1="519.06" x2="534.05" y2="585.06"/><line class="cls-3" x1="474.05" y1="539.06" x2="518.05" y2="643.06"/><line class="cls-3" x1="454.05" y1="537.06" x2="454.05" y2="693.06"/><line class="cls-3" x1="426.05" y1="535.06" x2="404.05" y2="691.06"/><line class="cls-3" x1="362.05" y1="553.06" x2="340.05" y2="647.06"/><line class="cls-3" x1="330.05" y1="491.06" x2="280.05" y2="629.06"/><line class="cls-3" x1="278.05" y1="505.06" x2="220.05" y2="601.06"/><line class="cls-3" x1="168.05" y1="571.06" x2="256.05" y2="483.06"/><line class="cls-3" x1="234.05" y1="475.06" x2="108.05" y2="551.06"/><line class="cls-3" x1="154.05" y1="449.06" x2="84.05" y2="507.06"/><line class="cls-3" x1="82.05" y1="419.06" x2="146.05" y2="399.06"/><line class="cls-3" x1="80.05" y1="361.06" x2="146.05" y2="361.06"/><line class="cls-3" x1="82.05" y1="297.06" x2="132.05" y2="327.06"/><line class="cls-3" x1="112.05" y1="235.06" x2="204.05" y2="311.06"/><line class="cls-3" x1="186.05" y1="203.06" x2="252.05" y2="295.06"/><line class="cls-3" x1="254.05" y1="187.06" x2="298.05" y2="273.06"/><line class="cls-3" x1="280.05" y1="155.06" x2="332.05" y2="273.06"/><line class="cls-3" x1="344.05" y1="177.06" x2="362.05" y2="247.06"/><line class="cls-3" x1="388.05" y1="129.06" x2="400.05" y2="249.06"/><line class="cls-3" x1="422.05" y1="151.06" x2="428.05" y2="203.06"/><line class="cls-3" x1="207.05" y1="578.06" x2="207.05" y2="591.06"/><line class="cls-3" x1="277.05" y1="479.06" x2="274.05" y2="486.06"/><line class="cls-3" x1="365.05" y1="529.06" x2="366.05" y2="538.06"/><line class="cls-3" x1="362.05" y1="660.06" x2="362.05" y2="670.06"/><line class="cls-3" x1="469.05" y1="611.06" x2="468.05" y2="625.06"/><line class="cls-3" x1="535.05" y1="603.06" x2="543.05" y2="612.06"/><line class="cls-3" x1="575.05" y1="631.06" x2="587.05" y2="638.06"/><line class="cls-3" x1="630.05" y1="603.06" x2="634.05" y2="609.06"/><line class="cls-3" x1="100.05" y1="519.06" x2="110.05" y2="520.06"/><line class="cls-3" x1="137.05" y1="303.06" x2="147.05" y2="309.06"/><line class="cls-3" x1="173.05" y1="212.06" x2="181.05" y2="219.06"/><line class="cls-3" x1="266.05" y1="272.06" x2="266.05" y2="280.06"/><line class="cls-3" x1="303.05" y1="245.06" x2="308.05" y2="258.06"/><line class="cls-3" x1="147.05" y1="423.06" x2="151.05" y2="423.06"/><line class="cls-3" x1="425.05" y1="226.06" x2="425.05" y2="235.06"/><line class="cls-3" x1="340.05" y1="140.06" x2="344.05" y2="145.06"/><line class="cls-3" x1="412.05" y1="115.06" x2="418.05" y2="119.06"/><line class="cls-3" x1="589.05" y1="182.06" x2="591.05" y2="193.06"/><line class="cls-3" x1="509.05" y1="246.06" x2="511.05" y2="257.06"/><line class="cls-3" x1="638.05" y1="210.06" x2="640.05" y2="226.06"/><line class="cls-3" x1="698.05" y1="245.06" x2="699.05" y2="250.06"/><line class="cls-3" x1="793.05" y1="321.06" x2="800.05" y2="321.06"/><line class="cls-3" x1="757.05" y1="447.06" x2="767.05" y2="447.06"/><line class="cls-3" x1="758.05" y1="570.06" x2="754.05" y2="575.06"/></g><g id="cubiertos"><path class="cls-4" d="M412.05,473.06s99.33-97.34,302.66-30.67"/><path class="cls-4" d="M724.05,429.06c-14.93-16.38-68.85,1.75-18,31.66"/><path class="cls-4" d="M488.05,475.06s-98-93-272-35c0,0-31.77-21.68-39,11.47a11.4,11.4,0,0,0,3.88,11.27c8.18,6.64,25.13,15,39.44-13.41"/></g><g id="reseñas"><text class="cls-5" transform="translate(195.01 430.67) rotate(-17.89) scale(0.8 1)">R</text><text class="cls-5" transform="translate(266.27 407.91) rotate(-11.32) scale(0.8 1)">E</text><text class="cls-5" transform="translate(334.25 394.33) rotate(-6.09) scale(0.8 1)">S</text><text class="cls-5" transform="matrix(0.8, -0.02, 0.02, 1, 399.99, 387.18)">E</text><text class="cls-5" transform="translate(469.3 385.4) rotate(4.12) scale(0.8 1)">Ñ</text><text class="cls-5" transform="translate(551.17 391.31) rotate(9.54) scale(0.8 1)">A</text><text class="cls-5" transform="translate(628.86 404.57) rotate(14.22) scale(0.8 1)">S</text></g></g></svg>