<svg xmlns="http://www.w3.org/2000/svg" viewBox="0 0 99.04 99.06"><defs><style>.cls-1,.cls-2{fill:#fff;}.cls-2{fill-rule:evenodd;}</style></defs><title>snapchat</title><g id="Capa_2" data-name="Capa 2"><g id="_16" data-name="16"><path class="cls-1" d="M49.52,0a49.51,49.51,0,1,1-35,14.5A49.47,49.47,0,0,1,49.52,0Zm32.3,17.25a45.71,45.71,0,1,0,13.35,32.3,45.58,45.58,0,0,0-13.35-32.3Z"/><path class="cls-2" d="M74.3,62v-.06h0v0a4.57,4.57,0,0,0-1.62-.57h0a13.77,13.77,0,0,1-6.55-4.83,16.9,16.9,0,0,1-2.3-3.95h0a1.9,1.9,0,0,1,.08-1.7h.06a4.79,4.79,0,0,1,2.24-1.48h0a8.59,8.59,0,0,0,3.07-1.56h0a1.08,1.08,0,0,0,.47-.58c0-.05.06-.13.08-.22a1.21,1.21,0,0,0-.08-.82h0a2.37,2.37,0,0,0-1-1h0A2.51,2.51,0,0,0,66.76,45h0a6.92,6.92,0,0,1-1.61.47s0,0,0,0a4.78,4.78,0,0,1-1.87,0,1.36,1.36,0,0,0,0-.41h0c0-1.1.08-2.25.08-3.49h0a33.06,33.06,0,0,0-.11-5.53V36A12.55,12.55,0,0,0,58,28.3a13,13,0,0,0-6.39-2.23h0a22,22,0,0,0-2.3-.13,14.29,14.29,0,0,0-8.66,2.79,13.49,13.49,0,0,0-4.25,5.52v0A15.33,15.33,0,0,0,35.7,41h0c0,1.51.19,3,.08,4.44,0,0,0,0-.05.08a6.62,6.62,0,0,1-2.17,0h0c-.52-.09-1-.3-1.64-.47h-.06a1.81,1.81,0,0,0-1.62.36h0v0a1.69,1.69,0,0,0-.93,1.38s0,.08,0,.1h0a1.55,1.55,0,0,0,.55.91,2.28,2.28,0,0,0,.57.41v.06a20.41,20.41,0,0,0,3.43,1.48h0a2.37,2.37,0,0,1,1.54,1.48,3.76,3.76,0,0,1-.61,2.6h0a15.7,15.7,0,0,1-5.21,6,13.07,13.07,0,0,1-3.81,1.73h0a2.19,2.19,0,0,0-1.37.82.23.23,0,0,0-.09.16,1.15,1.15,0,0,0,.22,1.05,1.86,1.86,0,0,0,.6.46h0a12.88,12.88,0,0,0,3.54,1.23h0c.85.23,1.62.31,2.22.55,0,.06.11.25.25.61.22.63.3,1.4.55,2.16a.6.6,0,0,0,.46.41,1.25,1.25,0,0,0,.85,0,0,0,0,0,0,0,0,14.39,14.39,0,0,1,5.6-.16h0c1.86.46,3.42,1.73,5.26,2.82h0A8.3,8.3,0,0,0,48,73.1h0A24.83,24.83,0,0,0,51.6,73h0a6.5,6.5,0,0,0,2.8-.93l.05,0c1.89-1,3.54-2.36,5.41-3.18h0a10.49,10.49,0,0,1,2.19-.25h0a31.81,31.81,0,0,1,4.58.25h.16a.87.87,0,0,0,.52-.28c.11-.13.11-.27.17-.35s.08-.19,0-.09,0-.08.08-.1a6.23,6.23,0,0,1,.85-2.25,1.31,1.31,0,0,1,1-.3h.11a19.24,19.24,0,0,0,3.62-1s0,0,.05,0a3.11,3.11,0,0,0,1.43-1h0A1,1,0,0,0,74.3,62Z"/></g></g></svg>