<svg xmlns="http://www.w3.org/2000/svg" viewBox="0 0 102.67 102.67"><defs><style>.cls-1{fill:#fff;}.cls-2{fill:#4d4d4d;}</style></defs><title>tienda</title><g id="Capa_2" data-name="Capa 2"><g id="Слой_1" data-name="Слой 1"><circle class="cls-1" cx="51.34" cy="51.34" r="51.34" transform="translate(-10.62 89.18) rotate(-76.41)"/><path class="cls-2" d="M36.92,62.28a6.67,6.67,0,1,0,6.67,6.66A6.66,6.66,0,0,0,36.92,62.28Zm0,8.66a2,2,0,1,1,2-2A2,2,0,0,1,36.92,70.94Z"/><path class="cls-2" d="M57.07,62.28a6.67,6.67,0,1,0,6.68,6.66A6.66,6.66,0,0,0,57.07,62.28Zm0,8.66a2,2,0,1,1,2-2A2,2,0,0,1,57.07,70.94Z"/><path class="cls-2" d="M82.86,28.12a1.48,1.48,0,0,0-.81-.22H69.77l-1.13,4.69-.24,1H21.89l6.3,26H66.67l6.46-26.83h8.34c.58,0,1-.26,1.1-.6l.58-3.59A.52.52,0,0,0,82.86,28.12ZM65.16,38.19l-.7.7.47.47-.47-.47-.64.65.64-.65-.69-.7Zm-11.41,0-.17.18,2.06,2.08,1.57-1.56-.7-.7H57.9l-.69.7.46.47-.47-.47-1.55,1.55,1.4,1.41-1.41-1.4-2.06,2.07.86.86-.86-.86L52,44.07,53,45,52,44.08,50,46.15l1,1-1-1h0l-2.08-2.07-1.55,1.55,2.07,2.08h0l.84.84-.84-.83-2.07,2.06L47.53,51l-1.21-1.21h0l-2.08-2.06-.71.7.71-.7h0l2.08-2.08h0l1.55-1.55h0L50,42h0l1.55-1.55h0l2.08-2.08h0l.17-.18ZM42.68,53.4h0l-1.4,1.4,1.4-1.41-2.07-2.06-.78.77.78-.78h0l2.07-2.08-1.55-1.55-2.08,2.06h0L38,50.87l1.08-1.1L37,47.71l-1.13,1.12L37,47.7h0l2.07-2.08-.77-.78.77.78h0l2.08,2.08h0l1.55,1.54h0l2.08,2.08h0l.71.71-.71-.7Zm-9.33-9.33h0l-1.13-1.13,1.13,1.13L35.42,42l-.93-.94.94.94h0l2.08,2.07,1.55-1.55L37,40.44h0l-.93-.93.93.93,2.08-2.07h0l.13-.14-.13.14,2.07,2.07.94-.93-.94.93h0l-2.08,2.08h0L37.5,44.07h0l-2.08,2.08h0l-.63.62.62-.62Zm11.41,0h0l1.09,1.09-1.09-1.08-2.08,2.07h0l-1.09,1.09,1.09-1.09-2.07-2.08h0L39.52,43l1.09,1.09L42.69,42h0l.85-.85-.85.85Zm5.88-5.89-.69.7.7.71-.7-.71h0l-.69-.7Zm-7.26,0-.69.7,1.55,1.55,2.08-2.07h0l.08-.09-.08.09,2.07,2.07,1.4-1.4-1.4,1.4h0l-2.07,2.08.77.78-.77-.78h0l-2.08-2.08h0l-1.55-1.55h0l-.69-.7Zm-15.24,0h.72l-.6.6Zm1,4.73,1.14,1.15,1.55-1.55-2.06-2.08-.95.94L28.31,39h0l.48,2.34.93-.94-.84-.85.85.85,2.06-2.07-.12-.13.13.13h0l2.08,2.07,1.55-1.55-.69-.7h1.39l-.7.7h0l-1.55,1.55h0l-2.08,2.08h0l-1.55,1.55h0l-.76.77Zm5,12.32L33.87,55l-.27.28h-2l-.37-1.78.57-.57-.17-.18.17.17h0L33.87,55h0l.28.28Zm7.25,0L41.13,55l-.28.28H37.26L37,55l-.14.14L37,55l-1.55-1.55-1,1,1-1-2.07-2.06-1.24,1.24,1.24-1.25h0l2.07-2.08-1.55-1.55-2.08,2.06h0l-1.09,1.08h0l1.08-1.09-1.65-1.64L30,47.42l1.79-1.79L31,44.85l.78.78h0l2.08,2.08h0l1.55,1.55h0l2.08,2.08h0l1.55,1.55h0L41.13,55h0l.28.28Zm7.26,0L48.39,55l-.28.28H44.52L44.24,55l-.27.28h0l.28-.28h0l2.08-2.07h0l1.55-1.55h0L50,49.26h0l1.55-1.55h0l2.08-2.08h0l1.55-1.55h0L57.21,42h0l1.56-1.55h0l2.07-2.08.18-.18h0l-.18.18,2.08,2.08h0l-2.08,2.07.63.62-.63-.62-.62.62.62-.62-2.07-2.07L57.21,42l2.07,2.07h0l-2.07,2.07.86.86-.87-.86-1.55,1.56.85.84-.86-.84-2.06,2.06L54.78,51l-1.21-1.21L52,51.33l.78.78L52,51.34,50,53.4l1.39,1.41-1.4-1.4L48.39,55l.27.28Zm14.25-7.53-2.07,2.07h0l-2.07-2.07h0l2.07-2.08h0l2.08,2.07Zm-7,7.53L55.64,55l-.27.28h-3.6L51.5,55l-.28.28L51.5,55h0l2.08-2.07h0l1.55-1.54h0l2.07-2.07h0l2.06,2.08.63-.62-.62.61.93.94-.94-.93-2.06,2.07h0l-2.07-2.07-1.55,1.55L55.64,55l.53-.51-.52.51.27.28Zm7.18,0H59L58.76,55h0l2.07-2.07h0l2.28,2.28Zm.62-2.57-1.33-1.33h0l2.07-2.07h0l0,.05Zm1-4.36.36-1.5-.36-.36.36.36Zm.77-3.23-1.06,1.07h0l-2.07-2.07h0L64.46,42h0l1.45,1.46Zm1-4.14L66,40.45h0l.82-.83Z"/><polygon class="cls-2" points="37.5 51.34 35.42 53.4 36.98 54.96 39.05 52.89 37.5 51.34"/><polygon class="cls-2" points="49.95 42 52.02 44.08 52.02 44.08 53.58 42.52 51.5 40.45 49.95 42"/><polygon class="cls-2" points="57.21 46.15 55.13 44.08 53.58 45.63 55.65 47.71 57.21 46.15"/><polygon class="cls-2" points="53.58 49.77 51.5 47.71 49.95 49.26 52.02 51.34 53.58 49.77"/><polygon class="cls-2" points="47.87 51.34 46.32 52.89 48.39 54.96 49.95 53.4 47.87 51.34"/></g></g></svg>