<svg xmlns="http://www.w3.org/2000/svg" viewBox="0 0 224.75 224.75"><defs><style>.cls-1{fill:#7bc5f8;}.cls-2{fill:#fff;}</style></defs><title>tweet_color</title><g id="Capa_2" data-name="Capa 2"><g id="OBJECTS"><path class="cls-1" d="M224.75,112.38A112.38,112.38,0,1,1,112.37,0,112.37,112.37,0,0,1,224.75,112.38Z"/><polygon class="cls-2" points="184.22 59.89 184.22 59.89 184.22 59.89 184.22 59.89"/><path class="cls-2" d="M179,73.51a18,18,0,0,1-5.18.68l.09-.55c2.7-2.17,9.51-8.8,10.41-11.9.39-1.35-.07-1.81-.07-1.85l-8.71,3.69-7.28,3.29h0a29,29,0,0,0-21.14-8.71c-15.14,0-27.42,10.72-27.42,24a35.55,35.55,0,0,0,1.13,9c0,.69,0-.69,0,0-9.75-.27-22.25-4.26-33.38-9.9C65.48,70.13,64.1,62.43,64.1,62.43c-3.44,3.66-5.23,15.78-1.73,25.28,2.24,6.09,9.93,11.55,9.93,11.55h0a23.33,23.33,0,0,1-7-1.16,15.41,15.41,0,0,1-5-2.42c-2.14,5.22,2.16,14.55,9.59,21.24,4.33,3.91,12.23,6.35,12.23,6.35l-12.35.35c-.69,12,25.18,19.14,25.18,19.14h0c-7.58,5.83-16.38,9.38-25.82,9.38A49.1,49.1,0,0,1,55,150.07c12.46,10.27,28.47,17.36,45.89,16.44,46.2-2.42,72.28-42.13,73.52-81.14l.06.08s2.16-1.08,6.79-5.7a48,48,0,0,0,7.5-10S181.87,72.71,179,73.51Z"/><path class="cls-2" d="M184.22,59.89c0,.74,0,.07,0,0Z"/></g></g></svg>